{"glyphs":{"0":{"ha":909,"x_min":91,"x_max":819,"o":"m 455 -12 q 185 113 280 -12 q 91 514 91 238 q 185 916 91 791 q 455 1040 278 1040 q 725 916 631 1040 q 819 514 819 791 q 724 113 819 238 q 455 -12 629 -12 m 455 63 q 604 105 543 63 q 698 245 665 147 q 731 512 731 344 q 698 781 731 681 q 604 923 665 881 q 455 965 543 965 q 305 923 366 965 q 211 782 244 881 q 178 516 178 683 q 211 247 178 347 q 305 105 244 147 q 455 63 366 63 z "},"1":{"ha":533,"x_min":17,"x_max":393,"o":"m 338 1031 l 393 1031 l 393 0 l 308 0 l 308 919 l 17 713 l 17 802 l 338 1031 z "},"2":{"ha":717,"x_min":37,"x_max":667,"o":"m 667 75 l 667 0 l 49 0 l 49 48 l 363 438 q 482 616 447 542 q 517 760 517 690 q 458 916 517 866 q 277 965 399 965 q 37 924 146 965 l 37 1000 q 150 1030 86 1019 q 282 1040 214 1040 q 603 767 603 1040 q 586 654 603 708 q 533 539 570 600 q 431 398 496 478 l 168 75 l 667 75 z "},"3":{"ha":729,"x_min":40,"x_max":677,"o":"m 448 535 q 618 448 560 513 q 677 280 677 383 q 582 64 677 140 q 297 -12 486 -12 q 165 -2 232 -12 q 40 28 98 8 l 40 102 q 170 70 104 81 q 297 60 236 60 q 520 117 447 60 q 593 283 593 174 q 525 438 593 384 q 321 492 458 492 l 188 492 l 188 565 l 250 565 q 479 618 401 565 q 557 777 557 672 q 494 919 557 869 q 310 968 431 968 q 70 929 185 968 l 70 1003 q 188 1031 125 1021 q 317 1040 251 1040 q 493 1010 420 1040 q 604 921 566 979 q 642 783 642 863 q 590 628 642 692 q 448 535 539 564 z "},"4":{"ha":851,"x_min":36,"x_max":820,"o":"m 820 327 l 820 255 l 665 255 l 665 0 l 584 0 l 584 255 l 36 255 l 36 303 l 474 1028 l 563 1028 l 140 327 l 584 327 l 597 681 l 665 681 l 665 327 l 820 327 z "},"5":{"ha":739,"x_min":59,"x_max":696,"o":"m 265 586 q 514 542 419 577 q 652 445 609 507 q 695 290 696 383 q 599 65 695 142 q 316 -12 503 -12 q 184 -2 251 -12 q 59 29 117 9 l 59 103 q 188 71 122 82 q 316 60 254 60 q 611 288 611 60 q 576 407 611 361 q 459 480 540 453 q 237 514 377 506 l 102 522 l 138 1028 l 653 1028 l 653 956 l 215 956 l 189 590 l 265 586 z "},"6":{"ha":832,"x_min":97,"x_max":784,"o":"m 449 584 q 695 508 606 584 q 784 286 784 433 q 744 123 784 190 q 632 22 703 56 q 466 -12 560 -12 q 97 481 97 -12 q 209 902 97 763 q 540 1040 322 1040 q 736 1009 658 1040 l 736 935 q 644 959 695 951 q 543 967 593 967 q 273 855 363 967 q 182 505 183 742 q 305 563 233 542 q 449 584 376 584 m 466 58 q 638 115 574 58 q 702 283 702 171 q 634 456 702 399 q 438 513 565 513 q 302 493 372 513 q 183 431 232 472 q 261 145 190 232 q 466 58 333 58 z "},"7":{"ha":676,"x_min":10,"x_max":635,"o":"m 10 1028 l 635 1028 l 635 980 l 219 0 l 128 0 l 536 953 l 10 953 l 10 1028 z "},"8":{"ha":909,"x_min":79,"x_max":830,"o":"m 606 517 q 777 417 724 478 q 830 264 830 356 q 787 117 830 180 q 661 21 744 55 q 461 -12 578 -12 q 177 58 275 -12 q 79 260 79 129 q 132 425 79 356 q 282 533 185 494 q 155 632 194 573 q 115 775 115 692 q 156 917 115 857 q 272 1008 196 976 q 454 1040 349 1040 q 636 1009 560 1040 q 752 919 712 978 q 792 781 792 861 q 745 625 792 691 q 606 517 698 558 m 201 778 q 228 673 201 716 q 318 600 255 631 q 490 548 381 570 q 524 540 503 545 q 669 637 624 581 q 714 776 714 692 q 645 921 714 871 q 453 971 577 971 q 265 920 329 971 q 201 778 201 869 m 462 57 q 673 109 600 57 q 745 259 745 161 q 717 359 745 319 q 628 428 690 400 q 460 478 567 456 q 356 504 408 488 q 212 411 262 473 q 163 267 163 349 q 239 110 163 164 q 462 57 315 57 z "},"9":{"ha":832,"x_min":48,"x_max":735,"o":"m 366 1040 q 735 547 735 1040 q 623 126 735 265 q 292 -12 510 -12 q 96 19 174 -12 l 96 93 q 188 68 137 76 q 289 60 239 60 q 559 173 469 60 q 650 523 649 286 q 527 465 599 486 q 383 444 456 444 q 137 519 226 444 q 48 742 48 595 q 88 905 48 838 q 200 1006 128 972 q 366 1040 272 1040 m 130 744 q 198 572 130 628 q 394 515 267 515 q 530 535 460 515 q 649 597 600 556 q 570 883 642 796 q 366 969 499 969 q 194 913 258 969 q 130 744 130 857 z "},"\u0000":{"ha":0,"x_min":0,"x_max":0,"o":""},"\r":{"ha":360,"x_min":0,"x_max":0,"o":""}," ":{"ha":360,"x_min":0,"x_max":0,"o":""},"A":{"ha":972,"x_min":26,"x_max":947,"o":"m 857 0 l 723 347 l 247 347 l 113 0 l 26 0 l 427 1028 l 545 1028 l 947 0 l 857 0 m 276 422 l 694 422 l 485 961 l 276 422 z "},"Á":{"ha":972,"x_min":26,"x_max":947,"o":"m 857 0 l 723 347 l 247 347 l 113 0 l 26 0 l 427 1028 l 545 1028 l 947 0 l 857 0 m 276 422 l 694 422 l 485 961 l 276 422 m 447 1119 l 585 1313 l 681 1313 l 527 1119 l 447 1119 z "},"Ă":{"ha":972,"x_min":26,"x_max":947,"o":"m 857 0 l 723 347 l 247 347 l 113 0 l 26 0 l 427 1028 l 545 1028 l 947 0 l 857 0 m 276 422 l 694 422 l 485 961 l 276 422 m 488 1126 q 327 1172 384 1126 q 262 1296 270 1218 l 324 1296 q 370 1211 333 1240 q 488 1182 408 1182 q 605 1211 567 1182 q 650 1296 642 1240 l 712 1296 q 648 1172 703 1217 q 488 1126 592 1126 z "},"Ắ":{"ha":972,"x_min":26,"x_max":947,"o":"m 857 0 l 723 347 l 247 347 l 113 0 l 26 0 l 427 1028 l 545 1028 l 947 0 l 857 0 m 276 422 l 694 422 l 485 961 l 276 422 m 455 1279 l 585 1453 l 663 1453 l 519 1279 l 455 1279 m 488 1126 q 329 1171 385 1126 q 265 1292 273 1216 l 322 1292 q 368 1207 331 1236 q 488 1178 406 1178 q 606 1207 569 1178 q 652 1292 642 1235 l 709 1292 q 645 1171 701 1215 q 488 1126 590 1126 z "},"Ặ":{"ha":972,"x_min":26,"x_max":947,"o":"m 857 0 l 723 347 l 247 347 l 113 0 l 26 0 l 427 1028 l 545 1028 l 947 0 l 857 0 m 276 422 l 694 422 l 485 961 l 276 422 m 487 -232 q 441 -217 458 -232 q 424 -176 424 -202 q 441 -135 424 -150 q 487 -119 458 -119 q 533 -135 516 -119 q 550 -176 550 -150 q 533 -217 550 -202 q 487 -232 516 -232 m 488 1126 q 327 1172 384 1126 q 262 1296 270 1218 l 324 1296 q 370 1211 333 1240 q 488 1182 408 1182 q 605 1211 567 1182 q 650 1296 642 1240 l 712 1296 q 648 1172 703 1217 q 488 1126 592 1126 z "},"Ằ":{"ha":972,"x_min":26,"x_max":947,"o":"m 857 0 l 723 347 l 247 347 l 113 0 l 26 0 l 427 1028 l 545 1028 l 947 0 l 857 0 m 276 422 l 694 422 l 485 961 l 276 422 m 455 1279 l 311 1453 l 389 1453 l 519 1279 l 455 1279 m 486 1126 q 328 1171 383 1126 q 265 1292 273 1215 l 322 1292 q 368 1207 331 1235 q 486 1178 405 1178 q 605 1207 567 1178 q 651 1292 642 1235 l 709 1292 q 645 1171 701 1216 q 486 1126 589 1126 z "},"Ẳ":{"ha":972,"x_min":26,"x_max":947,"o":"m 857 0 l 723 347 l 247 347 l 113 0 l 26 0 l 427 1028 l 545 1028 l 947 0 l 857 0 m 276 422 l 694 422 l 485 961 l 276 422 m 457 1279 q 477 1322 458 1307 q 530 1351 496 1337 q 567 1369 555 1361 q 578 1391 578 1377 q 559 1417 578 1408 q 493 1426 540 1426 q 421 1420 454 1426 q 350 1402 388 1415 l 350 1447 q 497 1471 412 1471 q 601 1450 567 1471 q 635 1394 635 1430 q 619 1353 635 1367 q 570 1326 602 1340 q 531 1305 544 1315 q 516 1279 518 1296 l 457 1279 m 485 1126 q 328 1171 383 1126 q 265 1292 273 1215 l 322 1292 q 368 1207 331 1235 q 485 1178 405 1178 q 605 1207 567 1178 q 652 1292 642 1235 l 709 1292 q 644 1171 701 1216 q 485 1126 588 1126 z "},"Ẵ":{"ha":972,"x_min":26,"x_max":947,"o":"m 857 0 l 723 347 l 247 347 l 113 0 l 26 0 l 427 1028 l 545 1028 l 947 0 l 857 0 m 276 422 l 694 422 l 485 961 l 276 422 m 589 1340 q 535 1347 561 1340 q 474 1367 510 1353 q 424 1384 443 1378 q 385 1390 404 1390 q 321 1378 350 1390 q 265 1341 292 1366 l 265 1399 q 385 1441 310 1441 q 438 1434 413 1441 q 499 1414 464 1427 q 550 1397 531 1402 q 589 1391 569 1391 q 652 1402 624 1391 q 709 1440 681 1414 l 709 1381 q 589 1340 663 1340 m 485 1126 q 328 1171 383 1126 q 265 1292 273 1215 l 322 1292 q 368 1207 331 1235 q 485 1178 405 1178 q 605 1207 567 1178 q 651 1292 642 1235 l 709 1292 q 644 1171 701 1216 q 485 1126 588 1126 z "},"Â":{"ha":972,"x_min":26,"x_max":947,"o":"m 857 0 l 723 347 l 247 347 l 113 0 l 26 0 l 427 1028 l 545 1028 l 947 0 l 857 0 m 276 422 l 694 422 l 485 961 l 276 422 m 712 1119 l 628 1119 l 487 1271 l 346 1119 l 262 1119 l 446 1313 l 528 1313 l 712 1119 z "},"Ấ":{"ha":972,"x_min":26,"x_max":947,"o":"m 857 0 l 723 347 l 247 347 l 113 0 l 26 0 l 427 1028 l 545 1028 l 947 0 l 857 0 m 276 422 l 694 422 l 485 961 l 276 422 m 783 1433 l 861 1433 l 717 1249 l 653 1249 l 783 1433 m 446 1308 l 528 1308 l 712 1119 l 628 1119 l 487 1268 l 346 1119 l 262 1119 l 446 1308 z "},"Ậ":{"ha":972,"x_min":26,"x_max":947,"o":"m 857 0 l 723 347 l 247 347 l 113 0 l 26 0 l 427 1028 l 545 1028 l 947 0 l 857 0 m 276 422 l 694 422 l 485 961 l 276 422 m 487 -232 q 441 -217 458 -232 q 424 -176 424 -202 q 441 -135 424 -150 q 487 -119 458 -119 q 533 -135 516 -119 q 550 -176 550 -150 q 533 -217 550 -202 q 487 -232 516 -232 m 712 1119 l 628 1119 l 487 1271 l 346 1119 l 262 1119 l 446 1313 l 528 1313 l 712 1119 z "},"Ầ":{"ha":972,"x_min":26,"x_max":947,"o":"m 857 0 l 723 347 l 247 347 l 113 0 l 26 0 l 427 1028 l 545 1028 l 947 0 l 857 0 m 276 422 l 694 422 l 485 961 l 276 422 m 733 1249 l 669 1249 l 525 1433 l 603 1433 l 733 1249 m 446 1308 l 528 1308 l 712 1119 l 628 1119 l 487 1268 l 346 1119 l 262 1119 l 446 1308 z "},"Ẩ":{"ha":972,"x_min":26,"x_max":947,"o":"m 857 0 l 723 347 l 247 347 l 113 0 l 26 0 l 427 1028 l 545 1028 l 947 0 l 857 0 m 276 422 l 694 422 l 485 961 l 276 422 m 694 1440 q 799 1419 765 1440 q 833 1363 833 1399 q 824 1332 833 1344 q 803 1312 815 1319 q 768 1295 790 1305 q 729 1275 742 1284 q 714 1249 716 1265 l 654 1249 q 674 1292 656 1277 q 728 1320 693 1306 q 765 1339 753 1331 q 776 1360 776 1347 q 757 1385 776 1376 q 691 1394 738 1394 q 619 1389 652 1394 q 548 1371 586 1383 l 548 1417 q 694 1440 611 1440 m 446 1308 l 528 1308 l 712 1119 l 628 1119 l 487 1268 l 346 1119 l 262 1119 l 446 1308 z "},"Ẫ":{"ha":972,"x_min":26,"x_max":947,"o":"m 857 0 l 723 347 l 247 347 l 113 0 l 26 0 l 427 1028 l 545 1028 l 947 0 l 857 0 m 276 422 l 694 422 l 485 961 l 276 422 m 591 1391 q 655 1402 626 1391 q 712 1440 683 1414 l 712 1381 q 591 1340 666 1340 q 537 1347 563 1340 q 474 1367 511 1353 q 423 1384 442 1378 q 383 1390 403 1390 q 319 1378 348 1390 q 262 1341 290 1366 l 262 1399 q 383 1441 307 1441 q 437 1434 411 1441 q 499 1414 463 1427 q 551 1397 531 1402 q 591 1391 571 1391 m 446 1308 l 528 1308 l 712 1119 l 628 1119 l 487 1268 l 346 1119 l 262 1119 l 446 1308 z "},"Ȁ":{"ha":972,"x_min":26,"x_max":947,"o":"m 857 0 l 723 347 l 247 347 l 113 0 l 26 0 l 427 1028 l 545 1028 l 947 0 l 857 0 m 276 422 l 694 422 l 485 961 l 276 422 m 333 1119 l 228 1313 l 304 1313 l 404 1119 l 333 1119 m 569 1119 l 464 1313 l 540 1313 l 640 1119 l 569 1119 z "},"Ä":{"ha":972,"x_min":26,"x_max":947,"o":"m 857 0 l 723 347 l 247 347 l 113 0 l 26 0 l 427 1028 l 545 1028 l 947 0 l 857 0 m 276 422 l 694 422 l 485 961 l 276 422 m 315 1161 q 271 1176 287 1161 q 255 1217 255 1191 q 271 1258 255 1242 q 315 1273 287 1273 q 358 1258 342 1273 q 374 1217 374 1242 q 358 1176 374 1191 q 315 1161 342 1161 m 659 1161 q 616 1176 632 1161 q 600 1217 600 1191 q 616 1258 600 1242 q 659 1273 632 1273 q 703 1258 687 1273 q 719 1217 719 1242 q 703 1176 719 1191 q 659 1161 687 1161 z "},"Ạ":{"ha":972,"x_min":26,"x_max":947,"o":"m 857 0 l 723 347 l 247 347 l 113 0 l 26 0 l 427 1028 l 545 1028 l 947 0 l 857 0 m 276 422 l 694 422 l 485 961 l 276 422 m 487 -232 q 441 -217 458 -232 q 424 -176 424 -202 q 441 -135 424 -150 q 487 -119 458 -119 q 533 -135 516 -119 q 550 -176 550 -150 q 533 -217 550 -202 q 487 -232 516 -232 z "},"À":{"ha":972,"x_min":26,"x_max":947,"o":"m 857 0 l 723 347 l 247 347 l 113 0 l 26 0 l 427 1028 l 545 1028 l 947 0 l 857 0 m 276 422 l 694 422 l 485 961 l 276 422 m 447 1119 l 292 1313 l 388 1313 l 527 1119 l 447 1119 z "},"Ả":{"ha":972,"x_min":26,"x_max":947,"o":"m 857 0 l 723 347 l 247 347 l 113 0 l 26 0 l 427 1028 l 545 1028 l 947 0 l 857 0 m 276 422 l 694 422 l 485 961 l 276 422 m 457 1119 q 477 1163 458 1148 q 530 1192 496 1178 q 566 1211 554 1202 q 578 1233 578 1219 q 559 1259 578 1250 q 493 1268 540 1268 q 421 1263 454 1268 q 350 1244 388 1257 l 350 1292 q 497 1315 413 1315 q 601 1294 567 1315 q 635 1237 635 1274 q 619 1195 635 1210 q 571 1167 603 1181 q 531 1146 544 1156 q 516 1119 518 1136 l 457 1119 z "},"Ȃ":{"ha":972,"x_min":26,"x_max":947,"o":"m 857 0 l 723 347 l 247 347 l 113 0 l 26 0 l 427 1028 l 545 1028 l 947 0 l 857 0 m 276 422 l 694 422 l 485 961 l 276 422 m 262 1135 q 326 1260 270 1214 q 485 1306 381 1306 q 647 1259 590 1306 q 712 1135 703 1213 l 650 1135 q 603 1221 641 1192 q 485 1250 565 1250 q 369 1221 406 1250 q 324 1135 332 1192 l 262 1135 z "},"Ā":{"ha":972,"x_min":26,"x_max":947,"o":"m 857 0 l 723 347 l 247 347 l 113 0 l 26 0 l 427 1028 l 545 1028 l 947 0 l 857 0 m 276 422 l 694 422 l 485 961 l 276 422 m 274 1185 l 274 1247 l 699 1247 l 699 1185 l 274 1185 z "},"Ą":{"ha":972,"x_min":26,"x_max":1027,"o":"m 906 -237 q 960 -230 933 -237 q 1027 -210 988 -224 l 1027 -258 q 901 -284 965 -284 q 782 -252 823 -284 q 741 -160 741 -219 q 768 -73 741 -112 q 856 3 794 -33 l 723 347 l 247 347 l 113 0 l 26 0 l 427 1028 l 545 1028 l 947 0 q 831 -76 864 -39 q 799 -156 799 -112 q 826 -216 799 -195 q 906 -237 853 -237 m 276 422 l 694 422 l 485 961 l 276 422 z "},"Å":{"ha":972,"x_min":26,"x_max":947,"o":"m 723 347 l 247 347 l 113 0 l 26 0 l 426 1024 q 374 1070 393 1040 q 356 1141 356 1101 q 373 1208 356 1178 q 420 1255 390 1238 q 488 1272 451 1272 q 556 1255 526 1272 q 603 1208 586 1238 q 621 1141 621 1178 q 601 1069 621 1101 q 547 1022 581 1038 l 947 0 l 857 0 l 723 347 m 488 1227 q 427 1204 451 1227 q 403 1141 403 1181 q 427 1078 403 1101 q 488 1054 451 1054 q 549 1078 526 1054 q 573 1141 573 1101 q 549 1204 573 1181 q 488 1227 526 1227 m 276 422 l 694 422 l 485 961 l 276 422 z "},"Ǻ":{"ha":972,"x_min":26,"x_max":947,"o":"m 723 347 l 247 347 l 113 0 l 26 0 l 426 1024 q 374 1071 393 1040 q 356 1141 356 1102 q 373 1209 356 1178 q 420 1256 390 1239 q 488 1273 451 1273 q 553 1257 525 1273 l 643 1349 l 722 1349 l 595 1222 q 621 1141 621 1187 q 601 1069 621 1101 q 547 1022 581 1038 l 947 0 l 857 0 l 723 347 m 488 1227 q 427 1204 451 1227 q 403 1141 403 1181 q 427 1078 403 1101 q 488 1055 451 1055 q 549 1078 526 1055 q 573 1141 573 1101 q 549 1204 573 1181 q 488 1227 526 1227 m 276 422 l 694 422 l 485 961 l 276 422 z "},"Ã":{"ha":972,"x_min":26,"x_max":947,"o":"m 857 0 l 723 347 l 247 347 l 113 0 l 26 0 l 427 1028 l 545 1028 l 947 0 l 857 0 m 276 422 l 694 422 l 485 961 l 276 422 m 597 1167 q 541 1174 567 1167 q 476 1195 515 1181 q 421 1214 443 1208 q 376 1219 399 1219 q 309 1208 338 1219 q 254 1170 281 1196 l 254 1235 q 306 1268 276 1257 q 377 1278 336 1278 q 433 1272 407 1278 q 498 1251 459 1265 q 552 1232 531 1238 q 597 1226 574 1226 q 664 1238 635 1226 q 719 1275 693 1249 l 719 1210 q 667 1178 697 1188 q 597 1167 638 1167 z "},"Æ":{"ha":1328,"x_min":26,"x_max":1266,"o":"m 761 75 l 1266 75 l 1266 0 l 681 0 l 655 347 l 251 347 l 114 0 l 26 0 l 433 1028 l 1259 1028 l 1259 953 l 692 953 l 722 565 l 1190 565 l 1190 490 l 728 490 l 761 75 m 280 422 l 649 422 l 608 953 l 490 953 l 280 422 z "},"Ǽ":{"ha":1328,"x_min":26,"x_max":1266,"o":"m 761 75 l 1266 75 l 1266 0 l 681 0 l 655 347 l 251 347 l 114 0 l 26 0 l 433 1028 l 1259 1028 l 1259 953 l 692 953 l 722 565 l 1190 565 l 1190 490 l 728 490 l 761 75 m 280 422 l 649 422 l 608 953 l 490 953 l 280 422 m 606 1119 l 744 1313 l 840 1313 l 686 1119 l 606 1119 z "},"B":{"ha":906,"x_min":133,"x_max":849,"o":"m 631 531 q 795 446 741 511 q 849 279 849 381 q 803 120 849 183 q 658 24 758 56 q 395 -8 558 -8 q 133 10 266 -8 l 133 1010 q 272 1031 204 1024 q 423 1038 340 1038 q 724 971 629 1038 q 819 766 819 904 q 773 614 819 676 q 631 531 727 553 m 430 967 q 313 963 363 967 q 217 949 263 958 l 217 564 l 460 564 q 670 612 603 564 q 737 763 737 660 q 706 881 737 836 q 607 946 674 925 q 430 967 540 967 m 409 64 q 622 88 544 64 q 733 159 700 112 q 766 283 766 207 q 695 441 766 391 q 474 492 624 492 l 217 492 l 217 76 q 409 64 297 64 z "},"C":{"ha":844,"x_min":84,"x_max":811,"o":"m 558 -12 q 84 513 84 -12 q 210 911 84 782 q 569 1040 337 1040 q 693 1032 635 1040 q 811 1007 752 1024 l 811 930 q 572 964 697 964 q 275 858 376 964 q 174 515 174 752 q 220 250 174 349 q 353 107 267 150 q 563 64 439 64 q 685 74 627 64 q 811 106 744 83 l 811 29 q 558 -12 696 -12 z "},"Ć":{"ha":844,"x_min":84,"x_max":811,"o":"m 558 -12 q 84 513 84 -12 q 210 911 84 782 q 569 1040 337 1040 q 693 1032 635 1040 q 811 1007 752 1024 l 811 930 q 572 964 697 964 q 275 858 376 964 q 174 515 174 752 q 220 250 174 349 q 353 107 267 150 q 563 64 439 64 q 685 74 627 64 q 811 106 744 83 l 811 29 q 558 -12 696 -12 m 469 1119 l 608 1313 l 704 1313 l 550 1119 l 469 1119 z "},"Č":{"ha":844,"x_min":84,"x_max":811,"o":"m 558 -12 q 84 513 84 -12 q 210 911 84 782 q 569 1040 337 1040 q 693 1032 635 1040 q 811 1007 752 1024 l 811 930 q 572 964 697 964 q 275 858 376 964 q 174 515 174 752 q 220 250 174 349 q 353 107 267 150 q 563 64 439 64 q 685 74 627 64 q 811 106 744 83 l 811 29 q 558 -12 696 -12 m 651 1313 l 735 1313 l 551 1119 l 469 1119 l 285 1313 l 369 1313 l 510 1160 l 651 1313 z "},"Ç":{"ha":844,"x_min":84,"x_max":811,"o":"m 572 964 q 275 858 376 964 q 174 515 174 752 q 220 250 174 349 q 353 107 267 150 q 563 64 439 64 q 685 74 627 64 q 811 106 744 83 l 811 29 q 558 -12 696 -12 l 544 -12 l 544 -74 q 638 -103 604 -76 q 672 -178 672 -130 q 633 -257 672 -231 q 522 -284 594 -284 q 450 -277 487 -284 q 385 -258 414 -270 l 385 -209 q 519 -237 454 -237 q 617 -176 617 -237 q 518 -116 617 -116 l 490 -116 l 490 -10 q 84 513 84 26 q 210 911 84 782 q 569 1040 337 1040 q 693 1032 635 1040 q 811 1007 752 1024 l 811 930 q 572 964 697 964 z "},"Ḉ":{"ha":844,"x_min":84,"x_max":811,"o":"m 704 1313 l 550 1119 l 469 1119 l 608 1313 l 704 1313 m 572 964 q 275 858 376 964 q 174 515 174 752 q 220 250 174 349 q 353 107 267 150 q 563 64 439 64 q 685 74 627 64 q 811 106 744 83 l 811 29 q 558 -12 696 -12 l 544 -12 l 544 -74 q 638 -103 604 -76 q 672 -178 672 -130 q 633 -257 672 -231 q 522 -284 594 -284 q 450 -277 487 -284 q 385 -258 414 -270 l 385 -209 q 519 -237 454 -237 q 617 -176 617 -237 q 518 -116 617 -116 l 490 -116 l 490 -10 q 84 513 84 26 q 210 911 84 782 q 569 1040 337 1040 q 693 1032 635 1040 q 811 1007 752 1024 l 811 930 q 572 964 697 964 z "},"Ĉ":{"ha":844,"x_min":84,"x_max":811,"o":"m 558 -12 q 84 513 84 -12 q 210 911 84 782 q 569 1040 337 1040 q 693 1032 635 1040 q 811 1007 752 1024 l 811 930 q 572 964 697 964 q 275 858 376 964 q 174 515 174 752 q 220 250 174 349 q 353 107 267 150 q 563 64 439 64 q 685 74 627 64 q 811 106 744 83 l 811 29 q 558 -12 696 -12 m 735 1119 l 651 1119 l 510 1271 l 369 1119 l 285 1119 l 469 1313 l 551 1313 l 735 1119 z "},"Ċ":{"ha":844,"x_min":84,"x_max":811,"o":"m 558 -12 q 84 513 84 -12 q 210 911 84 782 q 569 1040 337 1040 q 693 1032 635 1040 q 811 1007 752 1024 l 811 930 q 572 964 697 964 q 275 858 376 964 q 174 515 174 752 q 220 250 174 349 q 353 107 267 150 q 563 64 439 64 q 685 74 627 64 q 811 106 744 83 l 811 29 q 558 -12 696 -12 m 510 1161 q 464 1176 481 1161 q 447 1217 447 1191 q 464 1258 447 1242 q 510 1273 481 1273 q 556 1258 539 1273 q 573 1217 573 1242 q 556 1176 573 1191 q 510 1161 539 1161 z "},"D":{"ha":1021,"x_min":133,"x_max":937,"o":"m 390 -8 q 265 -4 324 -8 q 133 9 206 0 l 133 1010 q 270 1031 199 1024 q 408 1038 342 1038 q 803 908 670 1038 q 937 514 937 777 q 800 121 937 249 q 390 -8 664 -8 m 404 68 q 738 176 628 68 q 848 514 848 283 q 739 853 848 744 q 409 963 630 963 q 218 946 326 963 l 218 80 q 404 68 294 68 z "},"Ǳ":{"ha":1823,"x_min":133,"x_max":1777,"o":"m 390 -8 q 265 -4 324 -8 q 133 9 206 0 l 133 1010 q 270 1031 199 1024 q 408 1038 342 1038 q 803 908 670 1038 q 937 514 937 777 q 800 121 937 249 q 390 -8 664 -8 m 404 68 q 738 176 628 68 q 848 514 848 283 q 739 853 848 744 q 409 963 630 963 q 218 946 326 963 l 218 80 q 404 68 294 68 m 1146 76 l 1777 76 l 1777 0 l 1028 0 l 1028 49 l 1651 952 l 1038 952 l 1038 1028 l 1769 1028 l 1769 979 l 1146 76 z "},"Ǆ":{"ha":1823,"x_min":133,"x_max":1777,"o":"m 390 -8 q 265 -4 324 -8 q 133 9 206 0 l 133 1010 q 270 1031 199 1024 q 408 1038 342 1038 q 803 908 670 1038 q 937 514 937 777 q 800 121 937 249 q 390 -8 664 -8 m 404 68 q 738 176 628 68 q 848 514 848 283 q 739 853 848 744 q 409 963 630 963 q 218 946 326 963 l 218 80 q 404 68 294 68 m 1146 76 l 1777 76 l 1777 0 l 1028 0 l 1028 49 l 1651 952 l 1038 952 l 1038 1028 l 1769 1028 l 1769 979 l 1146 76 m 1544 1313 l 1628 1313 l 1444 1119 l 1363 1119 l 1178 1313 l 1263 1313 l 1403 1160 l 1544 1313 z "},"Ð":{"ha":1021,"x_min":3,"x_max":937,"o":"m 408 1038 q 803 908 670 1038 q 937 514 937 777 q 800 121 937 249 q 390 -8 664 -8 q 265 -4 324 -8 q 133 9 206 0 l 133 497 l 3 497 l 3 561 l 133 561 l 133 1010 q 270 1031 199 1024 q 408 1038 342 1038 m 404 68 q 738 176 628 68 q 848 514 848 283 q 739 853 848 744 q 409 963 630 963 q 218 946 326 963 l 218 561 l 480 561 l 480 497 l 218 497 l 218 80 q 404 68 294 68 z "},"Ď":{"ha":1021,"x_min":133,"x_max":937,"o":"m 390 -8 q 265 -4 324 -8 q 133 9 206 0 l 133 1010 q 270 1031 199 1024 q 408 1038 342 1038 q 803 908 670 1038 q 937 514 937 777 q 800 121 937 249 q 390 -8 664 -8 m 404 68 q 738 176 628 68 q 848 514 848 283 q 739 853 848 744 q 409 963 630 963 q 218 946 326 963 l 218 80 q 404 68 294 68 m 608 1313 l 692 1313 l 508 1119 l 426 1119 l 242 1313 l 326 1313 l 467 1160 l 608 1313 z "},"Đ":{"ha":1021,"x_min":3,"x_max":937,"o":"m 408 1038 q 803 908 670 1038 q 937 514 937 777 q 800 121 937 249 q 390 -8 664 -8 q 265 -4 324 -8 q 133 9 206 0 l 133 497 l 3 497 l 3 561 l 133 561 l 133 1010 q 270 1031 199 1024 q 408 1038 342 1038 m 404 68 q 738 176 628 68 q 848 514 848 283 q 739 853 848 744 q 409 963 630 963 q 218 946 326 963 l 218 561 l 480 561 l 480 497 l 218 497 l 218 80 q 404 68 294 68 z "},"Ḍ":{"ha":1021,"x_min":133,"x_max":937,"o":"m 390 -8 q 265 -4 324 -8 q 133 9 206 0 l 133 1010 q 270 1031 199 1024 q 408 1038 342 1038 q 803 908 670 1038 q 937 514 937 777 q 800 121 937 249 q 390 -8 664 -8 m 404 68 q 738 176 628 68 q 848 514 848 283 q 739 853 848 744 q 409 963 630 963 q 218 946 326 963 l 218 80 q 404 68 294 68 m 469 -232 q 423 -217 440 -232 q 406 -176 406 -202 q 423 -135 406 -150 q 469 -119 440 -119 q 515 -135 498 -119 q 532 -176 532 -150 q 515 -217 532 -202 q 469 -232 498 -232 z "},"Ḏ":{"ha":1021,"x_min":133,"x_max":937,"o":"m 390 -8 q 265 -4 324 -8 q 133 9 206 0 l 133 1010 q 270 1031 199 1024 q 408 1038 342 1038 q 803 908 670 1038 q 937 514 937 777 q 800 121 937 249 q 390 -8 664 -8 m 404 68 q 738 176 628 68 q 848 514 848 283 q 739 853 848 744 q 409 963 630 963 q 218 946 326 963 l 218 80 q 404 68 294 68 m 256 -206 l 256 -145 l 681 -145 l 681 -206 l 256 -206 z "},"ǲ":{"ha":1685,"x_min":133,"x_max":1645,"o":"m 390 -8 q 265 -4 324 -8 q 133 9 206 0 l 133 1010 q 270 1031 199 1024 q 408 1038 342 1038 q 803 908 670 1038 q 937 514 937 777 q 800 121 937 249 q 390 -8 664 -8 m 404 68 q 738 176 628 68 q 848 514 848 283 q 739 853 848 744 q 409 963 630 963 q 218 946 326 963 l 218 80 q 404 68 294 68 m 1177 72 l 1645 72 l 1645 0 l 1066 0 l 1066 52 l 1525 680 l 1075 680 l 1075 752 l 1636 752 l 1636 700 l 1177 72 z "},"ǅ":{"ha":1685,"x_min":133,"x_max":1645,"o":"m 390 -8 q 265 -4 324 -8 q 133 9 206 0 l 133 1010 q 270 1031 199 1024 q 408 1038 342 1038 q 803 908 670 1038 q 937 514 937 777 q 800 121 937 249 q 390 -8 664 -8 m 404 68 q 738 176 628 68 q 848 514 848 283 q 739 853 848 744 q 409 963 630 963 q 218 946 326 963 l 218 80 q 404 68 294 68 m 1177 72 l 1645 72 l 1645 0 l 1066 0 l 1066 52 l 1525 680 l 1075 680 l 1075 752 l 1636 752 l 1636 700 l 1177 72 m 1497 1090 l 1581 1090 l 1397 897 l 1315 897 l 1131 1090 l 1215 1090 l 1356 938 l 1497 1090 z "},"E":{"ha":854,"x_min":133,"x_max":792,"o":"m 217 75 l 792 75 l 792 0 l 133 0 l 133 1028 l 785 1028 l 785 953 l 217 953 l 217 565 l 715 565 l 715 490 l 217 490 l 217 75 z "},"É":{"ha":854,"x_min":133,"x_max":792,"o":"m 217 75 l 792 75 l 792 0 l 133 0 l 133 1028 l 785 1028 l 785 953 l 217 953 l 217 565 l 715 565 l 715 490 l 217 490 l 217 75 m 433 1119 l 572 1313 l 668 1313 l 514 1119 l 433 1119 z "},"Ĕ":{"ha":854,"x_min":133,"x_max":792,"o":"m 217 75 l 792 75 l 792 0 l 133 0 l 133 1028 l 785 1028 l 785 953 l 217 953 l 217 565 l 715 565 l 715 490 l 217 490 l 217 75 m 475 1126 q 314 1172 371 1126 q 249 1296 257 1218 l 310 1296 q 357 1211 319 1240 q 475 1182 395 1182 q 591 1211 554 1182 q 637 1296 628 1240 l 699 1296 q 635 1172 690 1217 q 475 1126 579 1126 z "},"Ě":{"ha":854,"x_min":133,"x_max":792,"o":"m 217 75 l 792 75 l 792 0 l 133 0 l 133 1028 l 785 1028 l 785 953 l 217 953 l 217 565 l 715 565 l 715 490 l 217 490 l 217 75 m 615 1313 l 699 1313 l 515 1119 l 433 1119 l 249 1313 l 333 1313 l 474 1160 l 615 1313 z "},"Ḝ":{"ha":854,"x_min":133,"x_max":792,"o":"m 475 1126 q 314 1172 371 1126 q 249 1296 257 1218 l 310 1296 q 357 1211 319 1240 q 475 1182 395 1182 q 591 1211 554 1182 q 637 1296 628 1240 l 699 1296 q 635 1172 690 1217 q 475 1126 579 1126 m 499 0 l 499 -74 q 593 -103 559 -76 q 627 -178 627 -130 q 588 -257 627 -231 q 477 -284 549 -284 q 405 -277 442 -284 q 340 -258 369 -270 l 340 -209 q 474 -237 409 -237 q 572 -176 572 -237 q 473 -116 572 -116 l 445 -116 l 445 0 l 133 0 l 133 1028 l 785 1028 l 785 953 l 217 953 l 217 565 l 715 565 l 715 490 l 217 490 l 217 75 l 792 75 l 792 0 l 499 0 z "},"Ê":{"ha":854,"x_min":133,"x_max":792,"o":"m 217 75 l 792 75 l 792 0 l 133 0 l 133 1028 l 785 1028 l 785 953 l 217 953 l 217 565 l 715 565 l 715 490 l 217 490 l 217 75 m 699 1119 l 615 1119 l 474 1271 l 333 1119 l 249 1119 l 433 1313 l 515 1313 l 699 1119 z "},"Ế":{"ha":854,"x_min":133,"x_max":848,"o":"m 217 75 l 792 75 l 792 0 l 133 0 l 133 1028 l 785 1028 l 785 953 l 217 953 l 217 565 l 715 565 l 715 490 l 217 490 l 217 75 m 770 1433 l 848 1433 l 704 1249 l 640 1249 l 770 1433 m 433 1308 l 515 1308 l 699 1119 l 615 1119 l 474 1268 l 333 1119 l 249 1119 l 433 1308 z "},"Ệ":{"ha":854,"x_min":133,"x_max":792,"o":"m 217 75 l 792 75 l 792 0 l 133 0 l 133 1028 l 785 1028 l 785 953 l 217 953 l 217 565 l 715 565 l 715 490 l 217 490 l 217 75 m 475 -232 q 429 -217 446 -232 q 412 -176 412 -202 q 429 -135 412 -150 q 475 -119 446 -119 q 521 -135 504 -119 q 538 -176 538 -150 q 521 -217 538 -202 q 475 -232 504 -232 m 699 1119 l 615 1119 l 474 1271 l 333 1119 l 249 1119 l 433 1313 l 515 1313 l 699 1119 z "},"Ề":{"ha":854,"x_min":133,"x_max":792,"o":"m 217 75 l 792 75 l 792 0 l 133 0 l 133 1028 l 785 1028 l 785 953 l 217 953 l 217 565 l 715 565 l 715 490 l 217 490 l 217 75 m 720 1249 l 656 1249 l 512 1433 l 590 1433 l 720 1249 m 433 1308 l 515 1308 l 699 1119 l 615 1119 l 474 1268 l 333 1119 l 249 1119 l 433 1308 z "},"Ể":{"ha":854,"x_min":133,"x_max":820,"o":"m 217 75 l 792 75 l 792 0 l 133 0 l 133 1028 l 785 1028 l 785 953 l 217 953 l 217 565 l 715 565 l 715 490 l 217 490 l 217 75 m 681 1440 q 786 1419 752 1440 q 820 1363 820 1399 q 811 1332 820 1344 q 790 1312 802 1319 q 755 1295 777 1305 q 716 1275 728 1284 q 701 1249 703 1265 l 641 1249 q 661 1292 642 1277 q 715 1320 680 1306 q 751 1339 740 1331 q 763 1360 763 1347 q 744 1385 763 1376 q 678 1394 724 1394 q 606 1389 639 1394 q 535 1371 573 1383 l 535 1417 q 681 1440 598 1440 m 433 1308 l 515 1308 l 699 1119 l 615 1119 l 474 1268 l 333 1119 l 249 1119 l 433 1308 z "},"Ễ":{"ha":854,"x_min":133,"x_max":792,"o":"m 217 75 l 792 75 l 792 0 l 133 0 l 133 1028 l 785 1028 l 785 953 l 217 953 l 217 565 l 715 565 l 715 490 l 217 490 l 217 75 m 578 1391 q 642 1402 613 1391 q 699 1440 670 1414 l 699 1381 q 578 1340 653 1340 q 524 1347 549 1340 q 461 1367 498 1353 q 409 1384 429 1378 q 369 1390 390 1390 q 306 1378 335 1390 q 249 1341 277 1366 l 249 1399 q 369 1441 294 1441 q 424 1434 398 1441 q 486 1414 449 1427 q 538 1397 518 1402 q 578 1391 558 1391 m 433 1308 l 515 1308 l 699 1119 l 615 1119 l 474 1268 l 333 1119 l 249 1119 l 433 1308 z "},"Ȅ":{"ha":854,"x_min":133,"x_max":792,"o":"m 217 75 l 792 75 l 792 0 l 133 0 l 133 1028 l 785 1028 l 785 953 l 217 953 l 217 565 l 715 565 l 715 490 l 217 490 l 217 75 m 320 1119 l 215 1313 l 291 1313 l 391 1119 l 320 1119 m 556 1119 l 451 1313 l 527 1313 l 627 1119 l 556 1119 z "},"Ë":{"ha":854,"x_min":133,"x_max":792,"o":"m 217 75 l 792 75 l 792 0 l 133 0 l 133 1028 l 785 1028 l 785 953 l 217 953 l 217 565 l 715 565 l 715 490 l 217 490 l 217 75 m 301 1161 q 258 1176 274 1161 q 242 1217 242 1191 q 258 1258 242 1242 q 301 1273 274 1273 q 344 1258 328 1273 q 360 1217 360 1242 q 344 1176 360 1191 q 301 1161 328 1161 m 646 1161 q 603 1176 619 1161 q 587 1217 587 1191 q 603 1258 587 1242 q 646 1273 619 1273 q 690 1258 674 1273 q 706 1217 706 1242 q 690 1176 706 1191 q 646 1161 674 1161 z "},"Ė":{"ha":854,"x_min":133,"x_max":792,"o":"m 217 75 l 792 75 l 792 0 l 133 0 l 133 1028 l 785 1028 l 785 953 l 217 953 l 217 565 l 715 565 l 715 490 l 217 490 l 217 75 m 474 1161 q 427 1176 444 1161 q 410 1217 410 1191 q 427 1258 410 1242 q 474 1273 444 1273 q 520 1258 503 1273 q 537 1217 537 1242 q 520 1176 537 1191 q 474 1161 503 1161 z "},"Ẹ":{"ha":854,"x_min":133,"x_max":792,"o":"m 217 75 l 792 75 l 792 0 l 133 0 l 133 1028 l 785 1028 l 785 953 l 217 953 l 217 565 l 715 565 l 715 490 l 217 490 l 217 75 m 475 -232 q 429 -217 446 -232 q 412 -176 412 -202 q 429 -135 412 -150 q 475 -119 446 -119 q 521 -135 504 -119 q 538 -176 538 -150 q 521 -217 538 -202 q 475 -232 504 -232 z "},"È":{"ha":854,"x_min":133,"x_max":792,"o":"m 217 75 l 792 75 l 792 0 l 133 0 l 133 1028 l 785 1028 l 785 953 l 217 953 l 217 565 l 715 565 l 715 490 l 217 490 l 217 75 m 433 1119 l 279 1313 l 375 1313 l 514 1119 l 433 1119 z "},"Ẻ":{"ha":854,"x_min":133,"x_max":792,"o":"m 217 75 l 792 75 l 792 0 l 133 0 l 133 1028 l 785 1028 l 785 953 l 217 953 l 217 565 l 715 565 l 715 490 l 217 490 l 217 75 m 444 1119 q 464 1163 445 1148 q 517 1192 483 1178 q 553 1211 541 1202 q 565 1233 565 1219 q 546 1259 565 1250 q 480 1268 526 1268 q 408 1263 441 1268 q 337 1244 375 1257 l 337 1292 q 483 1315 400 1315 q 588 1294 554 1315 q 622 1237 622 1274 q 606 1195 622 1210 q 558 1167 590 1181 q 518 1146 531 1156 q 503 1119 505 1136 l 444 1119 z "},"Ȇ":{"ha":854,"x_min":133,"x_max":792,"o":"m 217 75 l 792 75 l 792 0 l 133 0 l 133 1028 l 785 1028 l 785 953 l 217 953 l 217 565 l 715 565 l 715 490 l 217 490 l 217 75 m 249 1135 q 313 1260 257 1214 q 472 1306 368 1306 q 633 1259 576 1306 q 699 1135 690 1213 l 637 1135 q 590 1221 628 1192 q 472 1250 552 1250 q 356 1221 393 1250 q 310 1135 319 1192 l 249 1135 z "},"Ē":{"ha":854,"x_min":133,"x_max":792,"o":"m 217 75 l 792 75 l 792 0 l 133 0 l 133 1028 l 785 1028 l 785 953 l 217 953 l 217 565 l 715 565 l 715 490 l 217 490 l 217 75 m 261 1185 l 261 1247 l 686 1247 l 686 1185 l 261 1185 z "},"Ḗ":{"ha":854,"x_min":133,"x_max":792,"o":"m 217 75 l 792 75 l 792 0 l 133 0 l 133 1028 l 785 1028 l 785 953 l 217 953 l 217 565 l 715 565 l 715 490 l 217 490 l 217 75 m 431 1319 l 569 1481 l 670 1481 l 517 1319 l 431 1319 m 261 1185 l 261 1247 l 686 1247 l 686 1185 l 261 1185 z "},"Ḕ":{"ha":854,"x_min":133,"x_max":792,"o":"m 217 75 l 792 75 l 792 0 l 133 0 l 133 1028 l 785 1028 l 785 953 l 217 953 l 217 565 l 715 565 l 715 490 l 217 490 l 217 75 m 431 1319 l 277 1481 l 377 1481 l 517 1319 l 431 1319 m 261 1185 l 261 1247 l 686 1247 l 686 1185 l 261 1185 z "},"Ę":{"ha":854,"x_min":133,"x_max":815,"o":"m 694 -237 q 749 -230 721 -237 q 815 -210 776 -224 l 815 -258 q 689 -284 753 -284 q 570 -252 611 -284 q 529 -160 529 -219 q 555 -75 529 -114 q 638 0 580 -35 l 133 0 l 133 1028 l 785 1028 l 785 953 l 217 953 l 217 565 l 715 565 l 715 490 l 217 490 l 217 75 l 792 75 l 792 0 l 735 0 q 619 -76 652 -39 q 587 -156 587 -112 q 614 -216 587 -195 q 694 -237 642 -237 z "},"Ẽ":{"ha":854,"x_min":133,"x_max":792,"o":"m 217 75 l 792 75 l 792 0 l 133 0 l 133 1028 l 785 1028 l 785 953 l 217 953 l 217 565 l 715 565 l 715 490 l 217 490 l 217 75 m 583 1167 q 527 1174 553 1167 q 463 1195 501 1181 q 408 1214 430 1208 q 363 1219 386 1219 q 296 1208 325 1219 q 241 1170 267 1196 l 241 1235 q 293 1268 263 1257 q 364 1278 323 1278 q 420 1272 394 1278 q 485 1251 446 1265 q 539 1232 517 1238 q 584 1226 561 1226 q 651 1238 622 1226 q 706 1275 680 1249 l 706 1210 q 654 1178 684 1188 q 583 1167 624 1167 z "},"F":{"ha":824,"x_min":133,"x_max":778,"o":"m 778 952 l 218 952 l 218 560 l 710 560 l 710 485 l 218 485 l 218 0 l 133 0 l 133 1028 l 778 1028 l 778 952 z "},"G":{"ha":990,"x_min":83,"x_max":868,"o":"m 868 500 l 868 13 q 741 -3 797 1 q 622 -8 684 -8 q 220 120 356 -8 q 84 513 85 249 q 147 811 83 693 q 325 984 210 928 q 594 1040 439 1040 q 717 1032 657 1040 q 842 1007 776 1024 l 842 930 q 716 956 774 949 q 599 964 658 964 q 286 857 398 964 q 174 515 174 749 q 284 177 174 286 q 619 68 395 68 q 786 79 710 68 l 786 500 l 868 500 z "},"Ǵ":{"ha":990,"x_min":84,"x_max":868,"o":"m 868 500 l 868 13 q 741 -3 797 1 q 622 -8 684 -8 q 220 120 356 -8 q 84 513 85 249 q 147 811 83 693 q 325 984 210 928 q 594 1040 439 1040 q 717 1032 657 1040 q 842 1007 776 1024 l 842 930 q 716 956 774 949 q 599 964 658 964 q 286 857 398 964 q 174 515 174 749 q 284 177 174 286 q 619 68 395 68 q 786 79 710 68 l 786 500 l 868 500 m 498 1119 l 637 1313 l 733 1313 l 578 1119 l 498 1119 z "},"Ğ":{"ha":990,"x_min":84,"x_max":868,"o":"m 868 500 l 868 13 q 741 -3 797 1 q 622 -8 684 -8 q 220 120 356 -8 q 84 513 85 249 q 147 811 83 693 q 325 984 210 928 q 594 1040 439 1040 q 717 1032 657 1040 q 842 1007 776 1024 l 842 930 q 716 956 774 949 q 599 964 658 964 q 286 857 398 964 q 174 515 174 749 q 284 177 174 286 q 619 68 395 68 q 786 79 710 68 l 786 500 l 868 500 m 540 1126 q 378 1172 435 1126 q 313 1296 322 1218 l 375 1296 q 422 1211 384 1240 q 540 1182 460 1182 q 656 1211 619 1182 q 701 1296 693 1240 l 763 1296 q 699 1172 755 1217 q 540 1126 644 1126 z "},"Ǧ":{"ha":990,"x_min":84,"x_max":868,"o":"m 868 500 l 868 13 q 741 -3 797 1 q 622 -8 684 -8 q 220 120 356 -8 q 84 513 85 249 q 147 811 83 693 q 325 984 210 928 q 594 1040 439 1040 q 717 1032 657 1040 q 842 1007 776 1024 l 842 930 q 716 956 774 949 q 599 964 658 964 q 286 857 398 964 q 174 515 174 749 q 284 177 174 286 q 619 68 395 68 q 786 79 710 68 l 786 500 l 868 500 m 679 1313 l 763 1313 l 579 1119 l 497 1119 l 313 1313 l 397 1313 l 538 1160 l 679 1313 z "},"Ĝ":{"ha":990,"x_min":84,"x_max":868,"o":"m 868 500 l 868 13 q 741 -3 797 1 q 622 -8 684 -8 q 220 120 356 -8 q 84 513 85 249 q 147 811 83 693 q 325 984 210 928 q 594 1040 439 1040 q 717 1032 657 1040 q 842 1007 776 1024 l 842 930 q 716 956 774 949 q 599 964 658 964 q 286 857 398 964 q 174 515 174 749 q 284 177 174 286 q 619 68 395 68 q 786 79 710 68 l 786 500 l 868 500 m 763 1119 l 679 1119 l 538 1271 l 397 1119 l 313 1119 l 497 1313 l 579 1313 l 763 1119 z "},"Ģ":{"ha":990,"x_min":84,"x_max":868,"o":"m 868 500 l 868 13 q 741 -3 797 1 q 622 -8 684 -8 q 220 120 356 -8 q 84 513 85 249 q 147 811 83 693 q 325 984 210 928 q 594 1040 439 1040 q 717 1032 657 1040 q 842 1007 776 1024 l 842 930 q 716 956 774 949 q 599 964 658 964 q 286 857 398 964 q 174 515 174 749 q 284 177 174 286 q 619 68 395 68 q 786 79 710 68 l 786 500 l 868 500 m 536 -119 q 583 -137 567 -119 q 599 -188 599 -154 q 589 -252 599 -217 q 563 -319 580 -287 l 510 -319 q 535 -222 532 -265 q 493 -207 508 -221 q 478 -170 478 -193 q 493 -133 478 -147 q 536 -119 508 -119 z "},"Ġ":{"ha":990,"x_min":84,"x_max":868,"o":"m 868 500 l 868 13 q 741 -3 797 1 q 622 -8 684 -8 q 220 120 356 -8 q 84 513 85 249 q 147 811 83 693 q 325 984 210 928 q 594 1040 439 1040 q 717 1032 657 1040 q 842 1007 776 1024 l 842 930 q 716 956 774 949 q 599 964 658 964 q 286 857 398 964 q 174 515 174 749 q 284 177 174 286 q 619 68 395 68 q 786 79 710 68 l 786 500 l 868 500 m 538 1161 q 492 1176 509 1161 q 475 1217 475 1191 q 492 1258 475 1242 q 538 1273 509 1273 q 584 1258 567 1273 q 601 1217 601 1242 q 584 1176 601 1191 q 538 1161 567 1161 z "},"Ḡ":{"ha":990,"x_min":84,"x_max":868,"o":"m 868 500 l 868 13 q 741 -3 797 1 q 622 -8 684 -8 q 220 120 356 -8 q 84 513 85 249 q 147 811 83 693 q 325 984 210 928 q 594 1040 439 1040 q 717 1032 657 1040 q 842 1007 776 1024 l 842 930 q 716 956 774 949 q 599 964 658 964 q 286 857 398 964 q 174 515 174 749 q 284 177 174 286 q 619 68 395 68 q 786 79 710 68 l 786 500 l 868 500 m 326 1185 l 326 1247 l 751 1247 l 751 1185 l 326 1185 z "},"H":{"ha":1051,"x_min":133,"x_max":919,"o":"m 133 0 l 133 1028 l 218 1028 l 218 567 l 833 567 l 833 1028 l 919 1028 l 919 0 l 833 0 l 833 488 l 218 488 l 218 0 l 133 0 z "},"Ħ":{"ha":1051,"x_min":3,"x_max":1048,"o":"m 1048 831 l 1048 768 l 919 768 l 919 0 l 833 0 l 833 488 l 218 488 l 218 0 l 133 0 l 133 768 l 3 768 l 3 831 l 133 831 l 133 1028 l 218 1028 l 218 831 l 833 831 l 833 1028 l 919 1028 l 919 831 l 1048 831 m 833 567 l 833 768 l 218 768 l 218 567 l 833 567 z "},"Ḫ":{"ha":1051,"x_min":133,"x_max":919,"o":"m 133 0 l 133 1028 l 218 1028 l 218 567 l 833 567 l 833 1028 l 919 1028 l 919 0 l 833 0 l 833 488 l 218 488 l 218 0 l 133 0 m 527 -283 q 361 -235 419 -283 q 301 -108 304 -187 l 363 -108 q 406 -197 367 -166 q 527 -227 444 -227 q 647 -197 609 -227 q 689 -108 685 -166 l 751 -108 q 691 -236 747 -188 q 527 -283 635 -283 z "},"Ĥ":{"ha":1051,"x_min":133,"x_max":919,"o":"m 133 0 l 133 1028 l 218 1028 l 218 567 l 833 567 l 833 1028 l 919 1028 l 919 0 l 833 0 l 833 488 l 218 488 l 218 0 l 133 0 m 751 1119 l 667 1119 l 526 1271 l 385 1119 l 301 1119 l 485 1313 l 567 1313 l 751 1119 z "},"Ḥ":{"ha":1051,"x_min":133,"x_max":919,"o":"m 133 0 l 133 1028 l 218 1028 l 218 567 l 833 567 l 833 1028 l 919 1028 l 919 0 l 833 0 l 833 488 l 218 488 l 218 0 l 133 0 m 526 -232 q 480 -217 497 -232 q 463 -176 463 -202 q 480 -135 463 -150 q 526 -119 497 -119 q 572 -135 555 -119 q 589 -176 589 -150 q 572 -217 589 -202 q 526 -232 555 -232 z "},"I":{"ha":351,"x_min":133,"x_max":218,"o":"m 133 0 l 133 1028 l 218 1028 l 218 0 l 133 0 z "},"Í":{"ha":351,"x_min":133,"x_max":369,"o":"m 133 0 l 133 1028 l 218 1028 l 218 0 l 133 0 m 135 1119 l 274 1313 l 369 1313 l 215 1119 l 135 1119 z "},"Ĭ":{"ha":351,"x_min":-50,"x_max":400,"o":"m 133 0 l 133 1028 l 218 1028 l 218 0 l 133 0 m 176 1126 q 15 1172 72 1126 q -50 1296 -42 1218 l 12 1296 q 59 1211 21 1240 q 176 1182 97 1182 q 293 1211 256 1182 q 338 1296 330 1240 l 400 1296 q 336 1172 392 1217 q 176 1126 281 1126 z "},"Î":{"ha":351,"x_min":-50,"x_max":400,"o":"m 133 0 l 133 1028 l 218 1028 l 218 0 l 133 0 m 400 1119 l 316 1119 l 175 1271 l 34 1119 l -50 1119 l 134 1313 l 216 1313 l 400 1119 z "},"Ȉ":{"ha":351,"x_min":-84,"x_max":328,"o":"m 133 0 l 133 1028 l 218 1028 l 218 0 l 133 0 m 22 1119 l -84 1313 l -8 1313 l 92 1119 l 22 1119 m 258 1119 l 152 1313 l 228 1313 l 328 1119 l 258 1119 z "},"Ï":{"ha":351,"x_min":-57,"x_max":407,"o":"m 133 0 l 133 1028 l 218 1028 l 218 0 l 133 0 m 3 1161 q -41 1176 -25 1161 q -57 1217 -57 1191 q -41 1258 -57 1242 q 3 1273 -25 1273 q 46 1258 30 1273 q 62 1217 62 1242 q 46 1176 62 1191 q 3 1161 30 1161 m 347 1161 q 304 1176 320 1161 q 288 1217 288 1191 q 304 1258 288 1242 q 347 1273 320 1273 q 391 1258 375 1273 q 407 1217 407 1242 q 391 1176 407 1191 q 347 1161 375 1161 z "},"Ḯ":{"ha":351,"x_min":-57,"x_max":407,"o":"m 133 0 l 133 1028 l 218 1028 l 218 0 l 133 0 m 132 1319 l 270 1481 l 372 1481 l 219 1319 l 132 1319 m 3 1161 q -41 1176 -25 1161 q -57 1217 -57 1191 q -41 1258 -57 1242 q 3 1273 -25 1273 q 46 1258 30 1273 q 62 1217 62 1242 q 46 1176 62 1191 q 3 1161 30 1161 m 347 1161 q 304 1176 320 1161 q 288 1217 288 1191 q 304 1258 288 1242 q 347 1273 320 1273 q 391 1258 375 1273 q 407 1217 407 1242 q 391 1176 407 1191 q 347 1161 375 1161 z "},"İ":{"ha":351,"x_min":112,"x_max":238,"o":"m 133 0 l 133 1028 l 218 1028 l 218 0 l 133 0 m 175 1161 q 129 1176 146 1161 q 112 1217 112 1191 q 129 1258 112 1242 q 175 1273 146 1273 q 221 1258 204 1273 q 238 1217 238 1242 q 221 1176 238 1191 q 175 1161 204 1161 z "},"Ị":{"ha":351,"x_min":112,"x_max":238,"o":"m 133 0 l 133 1028 l 218 1028 l 218 0 l 133 0 m 175 -232 q 129 -217 146 -232 q 112 -176 112 -202 q 129 -135 112 -150 q 175 -119 146 -119 q 221 -135 204 -119 q 238 -176 238 -150 q 221 -217 238 -202 q 175 -232 204 -232 z "},"Ì":{"ha":351,"x_min":-19,"x_max":218,"o":"m 133 0 l 133 1028 l 218 1028 l 218 0 l 133 0 m 135 1119 l -19 1313 l 76 1313 l 215 1119 l 135 1119 z "},"Ỉ":{"ha":351,"x_min":38,"x_max":324,"o":"m 133 0 l 133 1028 l 218 1028 l 218 0 l 133 0 m 145 1119 q 165 1163 147 1148 q 218 1192 184 1178 q 255 1211 242 1202 q 267 1233 267 1219 q 247 1259 267 1250 q 181 1268 228 1268 q 109 1263 142 1268 q 38 1244 76 1257 l 38 1292 q 185 1315 101 1315 q 290 1294 256 1315 q 324 1237 324 1274 q 307 1195 324 1210 q 259 1167 291 1181 q 219 1146 233 1156 q 204 1119 206 1136 l 145 1119 z "},"Ȋ":{"ha":351,"x_min":-50,"x_max":400,"o":"m 133 0 l 133 1028 l 218 1028 l 218 0 l 133 0 m -50 1135 q 14 1260 -42 1214 q 174 1306 69 1306 q 335 1259 278 1306 q 400 1135 392 1213 l 338 1135 q 291 1221 329 1192 q 174 1250 253 1250 q 57 1221 94 1250 q 12 1135 20 1192 l -50 1135 z "},"Ī":{"ha":351,"x_min":-37,"x_max":388,"o":"m 133 0 l 133 1028 l 218 1028 l 218 0 l 133 0 m -37 1185 l -37 1247 l 388 1247 l 388 1185 l -37 1185 z "},"Į":{"ha":351,"x_min":13,"x_max":299,"o":"m 177 -237 q 232 -230 204 -237 q 299 -210 260 -224 l 299 -258 q 172 -284 236 -284 q 53 -252 94 -284 q 13 -160 13 -219 q 40 -71 13 -112 q 133 7 68 -31 l 133 1028 l 218 1028 l 218 0 q 103 -76 135 -39 q 70 -156 70 -112 q 98 -216 70 -195 q 177 -237 125 -237 z "},"Ĩ":{"ha":351,"x_min":-58,"x_max":408,"o":"m 133 0 l 133 1028 l 218 1028 l 218 0 l 133 0 m 285 1167 q 229 1174 255 1167 q 164 1195 203 1181 q 109 1214 131 1208 q 65 1219 88 1219 q -2 1208 26 1219 q -58 1170 -31 1196 l -58 1235 q -6 1268 -35 1257 q 65 1278 24 1278 q 121 1272 95 1278 q 186 1251 147 1265 q 241 1232 219 1238 q 285 1226 263 1226 q 352 1238 324 1226 q 408 1275 381 1249 l 408 1210 q 356 1178 385 1188 q 285 1167 326 1167 z "},"J":{"ha":351,"x_min":-2,"x_max":218,"o":"m -2 -197 q 101 -13 69 -107 q 133 201 133 81 l 133 1028 l 218 1028 l 218 182 q 176 -40 213 57 q 55 -237 139 -137 l -2 -197 z "},"Ĵ":{"ha":351,"x_min":-50,"x_max":400,"o":"m -2 -197 q 101 -13 69 -107 q 133 201 133 81 l 133 1028 l 218 1028 l 218 182 q 176 -40 213 57 q 55 -237 139 -137 l -2 -197 m 400 1119 l 316 1119 l 175 1271 l 34 1119 l -50 1119 l 134 1313 l 216 1313 l 400 1119 z "},"K":{"ha":893,"x_min":133,"x_max":896,"o":"m 796 0 l 402 488 l 218 488 l 218 0 l 133 0 l 133 1028 l 218 1028 l 218 567 l 404 567 l 769 1028 l 867 1028 l 471 529 l 896 0 l 796 0 z "},"Ķ":{"ha":893,"x_min":133,"x_max":896,"o":"m 796 0 l 402 488 l 218 488 l 218 0 l 133 0 l 133 1028 l 218 1028 l 218 567 l 404 567 l 769 1028 l 867 1028 l 471 529 l 896 0 l 796 0 m 458 -119 q 505 -137 489 -119 q 521 -188 521 -154 q 511 -252 521 -217 q 485 -319 502 -287 l 432 -319 q 458 -222 454 -265 q 415 -207 431 -221 q 400 -170 400 -193 q 415 -133 400 -147 q 458 -119 431 -119 z "},"L":{"ha":778,"x_min":133,"x_max":767,"o":"m 133 0 l 133 1028 l 218 1028 l 218 76 l 767 76 l 767 0 l 133 0 z "},"Ǉ":{"ha":1129,"x_min":133,"x_max":997,"o":"m 133 0 l 133 1028 l 218 1028 l 218 76 l 767 76 l 767 0 l 133 0 m 776 -197 q 879 -13 847 -107 q 911 201 911 81 l 911 1028 l 997 1028 l 997 182 q 954 -40 991 57 q 833 -237 917 -137 l 776 -197 z "},"Ĺ":{"ha":778,"x_min":133,"x_max":767,"o":"m 133 0 l 133 1028 l 218 1028 l 218 76 l 767 76 l 767 0 l 133 0 m 135 1119 l 274 1313 l 370 1313 l 216 1119 l 135 1119 z "},"Ľ":{"ha":778,"x_min":133,"x_max":767,"o":"m 133 0 l 133 1028 l 218 1028 l 218 76 l 767 76 l 767 0 l 133 0 m 492 792 q 503 940 501 860 q 506 1122 506 1019 l 573 1122 q 543 792 573 924 l 492 792 z "},"Ļ":{"ha":778,"x_min":133,"x_max":767,"o":"m 133 0 l 133 1028 l 218 1028 l 218 76 l 767 76 l 767 0 l 133 0 m 448 -119 q 494 -137 478 -119 q 510 -188 510 -154 q 501 -252 510 -217 q 475 -319 492 -287 l 422 -319 q 447 -222 444 -265 q 405 -207 420 -221 q 390 -170 390 -193 q 405 -133 390 -147 q 448 -119 420 -119 z "},"Ŀ":{"ha":778,"x_min":133,"x_max":767,"o":"m 133 0 l 133 1028 l 218 1028 l 218 76 l 767 76 l 767 0 l 133 0 m 555 492 q 508 507 525 492 q 492 551 492 523 q 509 594 492 578 q 555 610 526 610 q 601 594 584 610 q 618 551 618 578 q 601 507 618 523 q 555 492 585 492 z "},"Ḷ":{"ha":778,"x_min":133,"x_max":767,"o":"m 133 0 l 133 1028 l 218 1028 l 218 76 l 767 76 l 767 0 l 133 0 m 450 -232 q 404 -217 421 -232 q 387 -176 387 -202 q 404 -135 387 -150 q 450 -119 421 -119 q 496 -135 479 -119 q 513 -176 513 -150 q 496 -217 513 -202 q 450 -232 479 -232 z "},"ǈ":{"ha":1102,"x_min":133,"x_max":1003,"o":"m 133 0 l 133 1028 l 218 1028 l 218 76 l 767 76 l 767 0 l 133 0 m 763 -281 q 866 -96 834 -190 q 898 117 898 -2 l 898 752 l 983 752 l 983 122 q 944 -114 983 -10 q 820 -321 906 -217 l 763 -281 m 940 934 q 893 950 910 934 q 876 992 876 965 q 893 1036 876 1020 q 940 1053 910 1053 q 986 1036 969 1053 q 1003 992 1003 1020 q 986 950 1003 965 q 940 934 969 934 z "},"Ḻ":{"ha":778,"x_min":133,"x_max":767,"o":"m 133 0 l 133 1028 l 218 1028 l 218 76 l 767 76 l 767 0 l 133 0 m 238 -206 l 238 -145 l 663 -145 l 663 -206 l 238 -206 z "},"Ł":{"ha":778,"x_min":-6,"x_max":767,"o":"m 218 76 l 767 76 l 767 0 l 133 0 l 133 471 l 30 394 l -6 448 l 133 551 l 133 1028 l 218 1028 l 218 614 l 422 766 l 458 713 l 218 534 l 218 76 z "},"M":{"ha":1264,"x_min":135,"x_max":1128,"o":"m 1028 1028 l 1128 1028 l 1128 0 l 1047 0 l 1047 894 l 672 141 l 591 141 l 217 888 l 217 0 l 135 0 l 135 1028 l 235 1028 l 633 225 l 1028 1028 z "},"Ṃ":{"ha":1264,"x_min":135,"x_max":1128,"o":"m 1028 1028 l 1128 1028 l 1128 0 l 1047 0 l 1047 894 l 672 141 l 591 141 l 217 888 l 217 0 l 135 0 l 135 1028 l 235 1028 l 633 225 l 1028 1028 m 635 -232 q 589 -217 606 -232 q 572 -176 572 -202 q 589 -135 572 -150 q 635 -119 606 -119 q 681 -135 664 -119 q 698 -176 698 -150 q 681 -217 698 -202 q 635 -232 664 -232 z "},"N":{"ha":1070,"x_min":133,"x_max":938,"o":"m 856 1028 l 938 1028 l 938 0 l 849 0 l 214 899 l 214 0 l 133 0 l 133 1028 l 222 1028 l 856 129 l 856 1028 z "},"Ǌ":{"ha":1421,"x_min":133,"x_max":1288,"o":"m 856 1028 l 938 1028 l 938 0 l 849 0 l 214 899 l 214 0 l 133 0 l 133 1028 l 222 1028 l 856 129 l 856 1028 m 1068 -197 q 1171 -13 1139 -107 q 1203 201 1203 81 l 1203 1028 l 1288 1028 l 1288 182 q 1246 -40 1283 57 q 1125 -237 1209 -137 l 1068 -197 z "},"Ń":{"ha":1070,"x_min":133,"x_max":938,"o":"m 856 1028 l 938 1028 l 938 0 l 849 0 l 214 899 l 214 0 l 133 0 l 133 1028 l 222 1028 l 856 129 l 856 1028 m 495 1119 l 634 1313 l 730 1313 l 576 1119 l 495 1119 z "},"Ň":{"ha":1070,"x_min":133,"x_max":938,"o":"m 856 1028 l 938 1028 l 938 0 l 849 0 l 214 899 l 214 0 l 133 0 l 133 1028 l 222 1028 l 856 129 l 856 1028 m 676 1313 l 760 1313 l 576 1119 l 494 1119 l 310 1313 l 394 1313 l 535 1160 l 676 1313 z "},"Ņ":{"ha":1070,"x_min":133,"x_max":938,"o":"m 856 1028 l 938 1028 l 938 0 l 849 0 l 214 899 l 214 0 l 133 0 l 133 1028 l 222 1028 l 856 129 l 856 1028 m 533 -119 q 580 -137 564 -119 q 596 -188 596 -154 q 586 -252 596 -217 q 560 -319 577 -287 l 507 -319 q 533 -222 529 -265 q 490 -207 506 -221 q 475 -170 475 -193 q 490 -133 475 -147 q 533 -119 506 -119 z "},"Ṅ":{"ha":1070,"x_min":133,"x_max":938,"o":"m 856 1028 l 938 1028 l 938 0 l 849 0 l 214 899 l 214 0 l 133 0 l 133 1028 l 222 1028 l 856 129 l 856 1028 m 535 1161 q 489 1176 506 1161 q 472 1217 472 1191 q 489 1258 472 1242 q 535 1273 506 1273 q 582 1258 565 1273 q 599 1217 599 1242 q 582 1176 599 1191 q 535 1161 565 1161 z "},"Ṇ":{"ha":1070,"x_min":133,"x_max":938,"o":"m 856 1028 l 938 1028 l 938 0 l 849 0 l 214 899 l 214 0 l 133 0 l 133 1028 l 222 1028 l 856 129 l 856 1028 m 535 -232 q 489 -217 506 -232 q 472 -176 472 -202 q 489 -135 472 -150 q 535 -119 506 -119 q 582 -135 565 -119 q 599 -176 599 -150 q 582 -217 599 -202 q 535 -232 565 -232 z "},"Ŋ":{"ha":1070,"x_min":133,"x_max":938,"o":"m 938 1028 l 938 126 q 900 -112 938 -8 q 775 -321 861 -217 l 718 -281 q 803 -145 772 -212 q 847 0 835 -77 l 214 898 l 214 0 l 133 0 l 133 1028 l 222 1028 l 856 131 l 856 1028 l 938 1028 z "},"ǋ":{"ha":1394,"x_min":133,"x_max":1294,"o":"m 856 1028 l 938 1028 l 938 0 l 849 0 l 214 899 l 214 0 l 133 0 l 133 1028 l 222 1028 l 856 129 l 856 1028 m 1055 -281 q 1158 -96 1126 -190 q 1190 117 1190 -2 l 1190 752 l 1274 752 l 1274 122 q 1236 -114 1274 -10 q 1112 -321 1198 -217 l 1055 -281 m 1231 934 q 1185 950 1201 934 q 1168 992 1168 965 q 1185 1036 1168 1020 q 1231 1053 1202 1053 q 1277 1036 1260 1053 q 1294 992 1294 1020 q 1278 950 1294 965 q 1231 934 1261 934 z "},"Ṉ":{"ha":1070,"x_min":133,"x_max":938,"o":"m 856 1028 l 938 1028 l 938 0 l 849 0 l 214 899 l 214 0 l 133 0 l 133 1028 l 222 1028 l 856 129 l 856 1028 m 323 -206 l 323 -145 l 748 -145 l 748 -206 l 323 -206 z "},"Ñ":{"ha":1070,"x_min":133,"x_max":938,"o":"m 856 1028 l 938 1028 l 938 0 l 849 0 l 214 899 l 214 0 l 133 0 l 133 1028 l 222 1028 l 856 129 l 856 1028 m 645 1167 q 589 1174 615 1167 q 524 1195 563 1181 q 470 1214 492 1208 q 425 1219 448 1219 q 358 1208 387 1219 q 303 1170 329 1196 l 303 1235 q 355 1268 325 1257 q 426 1278 385 1278 q 482 1272 456 1278 q 547 1251 508 1265 q 601 1232 579 1238 q 646 1226 623 1226 q 713 1238 684 1226 q 768 1275 742 1249 l 768 1210 q 716 1178 746 1188 q 645 1167 686 1167 z "},"O":{"ha":1050,"x_min":84,"x_max":966,"o":"m 525 -12 q 292 43 390 -12 q 139 217 193 99 q 84 514 84 334 q 139 811 84 694 q 293 984 194 928 q 525 1040 392 1040 q 758 984 660 1040 q 911 811 857 928 q 966 514 966 694 q 911 217 966 334 q 757 43 856 99 q 525 -12 658 -12 m 525 64 q 784 170 692 64 q 877 510 877 277 q 525 964 877 964 q 266 857 358 964 q 173 517 173 751 q 525 64 173 64 z "},"Ó":{"ha":1050,"x_min":84,"x_max":966,"o":"m 525 -12 q 292 43 390 -12 q 139 217 193 99 q 84 514 84 334 q 139 811 84 694 q 293 984 194 928 q 525 1040 392 1040 q 758 984 660 1040 q 911 811 857 928 q 966 514 966 694 q 911 217 966 334 q 757 43 856 99 q 525 -12 658 -12 m 525 64 q 784 170 692 64 q 877 510 877 277 q 525 964 877 964 q 266 857 358 964 q 173 517 173 751 q 525 64 173 64 m 485 1119 l 624 1313 l 719 1313 l 565 1119 l 485 1119 z "},"Ŏ":{"ha":1050,"x_min":84,"x_max":966,"o":"m 525 -12 q 292 43 390 -12 q 139 217 193 99 q 84 514 84 334 q 139 811 84 694 q 293 984 194 928 q 525 1040 392 1040 q 758 984 660 1040 q 911 811 857 928 q 966 514 966 694 q 911 217 966 334 q 757 43 856 99 q 525 -12 658 -12 m 525 64 q 784 170 692 64 q 877 510 877 277 q 525 964 877 964 q 266 857 358 964 q 173 517 173 751 q 525 64 173 64 m 526 1126 q 365 1172 422 1126 q 300 1296 308 1218 l 362 1296 q 409 1211 371 1240 q 526 1182 447 1182 q 643 1211 606 1182 q 688 1296 680 1240 l 750 1296 q 686 1172 742 1217 q 526 1126 631 1126 z "},"Ô":{"ha":1050,"x_min":84,"x_max":966,"o":"m 525 -12 q 292 43 390 -12 q 139 217 193 99 q 84 514 84 334 q 139 811 84 694 q 293 984 194 928 q 525 1040 392 1040 q 758 984 660 1040 q 911 811 857 928 q 966 514 966 694 q 911 217 966 334 q 757 43 856 99 q 525 -12 658 -12 m 525 64 q 784 170 692 64 q 877 510 877 277 q 525 964 877 964 q 266 857 358 964 q 173 517 173 751 q 525 64 173 64 m 750 1119 l 666 1119 l 525 1271 l 384 1119 l 300 1119 l 484 1313 l 566 1313 l 750 1119 z "},"Ố":{"ha":1050,"x_min":84,"x_max":966,"o":"m 525 -12 q 292 43 390 -12 q 139 217 193 99 q 84 514 84 334 q 139 811 84 694 q 293 984 194 928 q 525 1040 392 1040 q 758 984 660 1040 q 911 811 857 928 q 966 514 966 694 q 911 217 966 334 q 757 43 856 99 q 525 -12 658 -12 m 525 64 q 784 170 692 64 q 877 510 877 277 q 525 964 877 964 q 266 857 358 964 q 173 517 173 751 q 525 64 173 64 m 822 1433 l 899 1433 l 756 1249 l 692 1249 l 822 1433 m 484 1308 l 566 1308 l 750 1119 l 666 1119 l 525 1268 l 384 1119 l 300 1119 l 484 1308 z "},"Ộ":{"ha":1050,"x_min":84,"x_max":966,"o":"m 525 -12 q 292 43 390 -12 q 139 217 193 99 q 84 514 84 334 q 139 811 84 694 q 293 984 194 928 q 525 1040 392 1040 q 758 984 660 1040 q 911 811 857 928 q 966 514 966 694 q 911 217 966 334 q 757 43 856 99 q 525 -12 658 -12 m 525 64 q 784 170 692 64 q 877 510 877 277 q 525 964 877 964 q 266 857 358 964 q 173 517 173 751 q 525 64 173 64 m 525 -232 q 479 -217 496 -232 q 462 -176 462 -202 q 479 -135 462 -150 q 525 -119 496 -119 q 571 -135 554 -119 q 588 -176 588 -150 q 571 -217 588 -202 q 525 -232 554 -232 m 750 1119 l 666 1119 l 525 1271 l 384 1119 l 300 1119 l 484 1313 l 566 1313 l 750 1119 z "},"Ồ":{"ha":1050,"x_min":84,"x_max":966,"o":"m 525 -12 q 292 43 390 -12 q 139 217 193 99 q 84 514 84 334 q 139 811 84 694 q 293 984 194 928 q 525 1040 392 1040 q 758 984 660 1040 q 911 811 857 928 q 966 514 966 694 q 911 217 966 334 q 757 43 856 99 q 525 -12 658 -12 m 525 64 q 784 170 692 64 q 877 510 877 277 q 525 964 877 964 q 266 857 358 964 q 173 517 173 751 q 525 64 173 64 m 772 1249 l 708 1249 l 563 1433 l 642 1433 l 772 1249 m 484 1308 l 566 1308 l 750 1119 l 666 1119 l 525 1268 l 384 1119 l 300 1119 l 484 1308 z "},"Ổ":{"ha":1050,"x_min":84,"x_max":966,"o":"m 525 -12 q 292 43 390 -12 q 139 217 193 99 q 84 514 84 334 q 139 811 84 694 q 293 984 194 928 q 525 1040 392 1040 q 758 984 660 1040 q 911 811 857 928 q 966 514 966 694 q 911 217 966 334 q 757 43 856 99 q 525 -12 658 -12 m 525 64 q 784 170 692 64 q 877 510 877 277 q 525 964 877 964 q 266 857 358 964 q 173 517 173 751 q 525 64 173 64 m 733 1440 q 838 1419 803 1440 q 872 1363 872 1399 q 863 1332 872 1344 q 841 1312 853 1319 q 806 1295 828 1305 q 767 1275 780 1284 q 752 1249 754 1265 l 692 1249 q 713 1292 694 1277 q 766 1320 731 1306 q 803 1339 791 1331 q 815 1360 815 1347 q 795 1385 815 1376 q 729 1394 776 1394 q 657 1389 690 1394 q 586 1371 624 1383 l 586 1417 q 733 1440 649 1440 m 484 1308 l 566 1308 l 750 1119 l 666 1119 l 525 1268 l 384 1119 l 300 1119 l 484 1308 z "},"Ỗ":{"ha":1050,"x_min":84,"x_max":966,"o":"m 525 -12 q 292 43 390 -12 q 139 217 193 99 q 84 514 84 334 q 139 811 84 694 q 293 984 194 928 q 525 1040 392 1040 q 758 984 660 1040 q 911 811 857 928 q 966 514 966 694 q 911 217 966 334 q 757 43 856 99 q 525 -12 658 -12 m 525 64 q 784 170 692 64 q 877 510 877 277 q 525 964 877 964 q 266 857 358 964 q 173 517 173 751 q 525 64 173 64 m 629 1391 q 693 1402 665 1391 q 750 1440 722 1414 l 750 1381 q 629 1340 704 1340 q 575 1347 601 1340 q 513 1367 549 1353 q 461 1384 481 1378 q 421 1390 441 1390 q 357 1378 386 1390 q 300 1341 328 1366 l 300 1399 q 421 1441 345 1441 q 475 1434 449 1441 q 538 1414 501 1427 q 589 1397 569 1402 q 629 1391 609 1391 m 484 1308 l 566 1308 l 750 1119 l 666 1119 l 525 1268 l 384 1119 l 300 1119 l 484 1308 z "},"Ȍ":{"ha":1050,"x_min":84,"x_max":966,"o":"m 525 -12 q 292 43 390 -12 q 139 217 193 99 q 84 514 84 334 q 139 811 84 694 q 293 984 194 928 q 525 1040 392 1040 q 758 984 660 1040 q 911 811 857 928 q 966 514 966 694 q 911 217 966 334 q 757 43 856 99 q 525 -12 658 -12 m 525 64 q 784 170 692 64 q 877 510 877 277 q 525 964 877 964 q 266 857 358 964 q 173 517 173 751 q 525 64 173 64 m 372 1119 l 266 1313 l 342 1313 l 442 1119 l 372 1119 m 608 1119 l 502 1313 l 578 1313 l 678 1119 l 608 1119 z "},"Ö":{"ha":1050,"x_min":84,"x_max":966,"o":"m 525 -12 q 292 43 390 -12 q 139 217 193 99 q 84 514 84 334 q 139 811 84 694 q 293 984 194 928 q 525 1040 392 1040 q 758 984 660 1040 q 911 811 857 928 q 966 514 966 694 q 911 217 966 334 q 757 43 856 99 q 525 -12 658 -12 m 525 64 q 784 170 692 64 q 877 510 877 277 q 525 964 877 964 q 266 857 358 964 q 173 517 173 751 q 525 64 173 64 m 353 1161 q 309 1176 325 1161 q 293 1217 293 1191 q 309 1258 293 1242 q 353 1273 325 1273 q 396 1258 380 1273 q 412 1217 412 1242 q 396 1176 412 1191 q 353 1161 380 1161 m 697 1161 q 654 1176 670 1161 q 638 1217 638 1191 q 654 1258 638 1242 q 697 1273 670 1273 q 741 1258 725 1273 q 757 1217 757 1242 q 741 1176 757 1191 q 697 1161 725 1161 z "},"Ȫ":{"ha":1050,"x_min":84,"x_max":966,"o":"m 525 -12 q 292 43 390 -12 q 139 217 193 99 q 84 514 84 334 q 139 811 84 694 q 293 984 194 928 q 525 1040 392 1040 q 758 984 660 1040 q 911 811 857 928 q 966 514 966 694 q 911 217 966 334 q 757 43 856 99 q 525 -12 658 -12 m 525 64 q 784 170 692 64 q 877 510 877 277 q 525 964 877 964 q 266 857 358 964 q 173 517 173 751 q 525 64 173 64 m 353 1161 q 309 1176 325 1161 q 293 1217 293 1191 q 309 1258 293 1242 q 353 1273 325 1273 q 396 1258 380 1273 q 412 1217 412 1242 q 396 1176 412 1191 q 353 1161 380 1161 m 697 1161 q 654 1176 670 1161 q 638 1217 638 1191 q 654 1258 638 1242 q 697 1273 670 1273 q 741 1258 725 1273 q 757 1217 757 1242 q 741 1176 757 1191 q 697 1161 725 1161 m 313 1362 l 313 1423 l 738 1423 l 738 1362 l 313 1362 z "},"Ȱ":{"ha":1050,"x_min":84,"x_max":966,"o":"m 525 -12 q 292 43 390 -12 q 139 217 193 99 q 84 514 84 334 q 139 811 84 694 q 293 984 194 928 q 525 1040 392 1040 q 758 984 660 1040 q 911 811 857 928 q 966 514 966 694 q 911 217 966 334 q 757 43 856 99 q 525 -12 658 -12 m 525 64 q 784 170 692 64 q 877 510 877 277 q 525 964 877 964 q 266 857 358 964 q 173 517 173 751 q 525 64 173 64 m 525 1161 q 479 1176 496 1161 q 462 1217 462 1191 q 479 1258 462 1242 q 525 1273 496 1273 q 571 1258 554 1273 q 588 1217 588 1242 q 571 1176 588 1191 q 525 1161 554 1161 m 313 1362 l 313 1423 l 738 1423 l 738 1362 l 313 1362 z "},"Ọ":{"ha":1050,"x_min":84,"x_max":966,"o":"m 525 -12 q 292 43 390 -12 q 139 217 193 99 q 84 514 84 334 q 139 811 84 694 q 293 984 194 928 q 525 1040 392 1040 q 758 984 660 1040 q 911 811 857 928 q 966 514 966 694 q 911 217 966 334 q 757 43 856 99 q 525 -12 658 -12 m 525 64 q 784 170 692 64 q 877 510 877 277 q 525 964 877 964 q 266 857 358 964 q 173 517 173 751 q 525 64 173 64 m 525 -232 q 479 -217 496 -232 q 462 -176 462 -202 q 479 -135 462 -150 q 525 -119 496 -119 q 571 -135 554 -119 q 588 -176 588 -150 q 571 -217 588 -202 q 525 -232 554 -232 z "},"Ò":{"ha":1050,"x_min":84,"x_max":966,"o":"m 525 -12 q 292 43 390 -12 q 139 217 193 99 q 84 514 84 334 q 139 811 84 694 q 293 984 194 928 q 525 1040 392 1040 q 758 984 660 1040 q 911 811 857 928 q 966 514 966 694 q 911 217 966 334 q 757 43 856 99 q 525 -12 658 -12 m 525 64 q 784 170 692 64 q 877 510 877 277 q 525 964 877 964 q 266 857 358 964 q 173 517 173 751 q 525 64 173 64 m 485 1119 l 331 1313 l 426 1313 l 565 1119 l 485 1119 z "},"Ỏ":{"ha":1050,"x_min":84,"x_max":966,"o":"m 525 -12 q 292 43 390 -12 q 139 217 193 99 q 84 514 84 334 q 139 811 84 694 q 293 984 194 928 q 525 1040 392 1040 q 758 984 660 1040 q 911 811 857 928 q 966 514 966 694 q 911 217 966 334 q 757 43 856 99 q 525 -12 658 -12 m 525 64 q 784 170 692 64 q 877 510 877 277 q 525 964 877 964 q 266 857 358 964 q 173 517 173 751 q 525 64 173 64 m 495 1119 q 515 1163 497 1148 q 568 1192 534 1178 q 605 1211 592 1202 q 617 1233 617 1219 q 597 1259 617 1250 q 531 1268 578 1268 q 459 1263 492 1268 q 388 1244 426 1257 l 388 1292 q 535 1315 451 1315 q 640 1294 606 1315 q 674 1237 674 1274 q 657 1195 674 1210 q 609 1167 641 1181 q 569 1146 583 1156 q 554 1119 556 1136 l 495 1119 z "},"Ơ":{"ha":1050,"x_min":84,"x_max":968,"o":"m 790 965 q 920 792 874 903 q 966 514 966 680 q 849 116 966 244 q 525 -12 732 -12 q 292 43 390 -12 q 139 217 193 99 q 84 514 84 334 q 139 811 84 694 q 293 984 194 928 q 525 1040 392 1040 q 591 1037 558 1040 q 632 1033 624 1033 q 756 1024 701 1024 q 862 1051 825 1024 q 899 1135 899 1078 q 895 1184 899 1161 q 883 1233 891 1206 l 951 1233 q 964 1185 960 1208 q 968 1132 968 1162 q 922 1015 968 1058 q 790 965 876 972 m 525 64 q 784 170 692 64 q 877 510 877 277 q 525 964 877 964 q 266 857 358 964 q 173 517 173 751 q 525 64 173 64 z "},"Ớ":{"ha":1050,"x_min":84,"x_max":968,"o":"m 790 965 q 920 792 874 903 q 966 514 966 680 q 849 116 966 244 q 525 -12 732 -12 q 292 43 390 -12 q 139 217 193 99 q 84 514 84 334 q 139 811 84 694 q 293 984 194 928 q 525 1040 392 1040 q 591 1037 558 1040 q 632 1033 624 1033 q 756 1024 701 1024 q 862 1051 825 1024 q 899 1135 899 1078 q 895 1184 899 1161 q 883 1233 891 1206 l 951 1233 q 964 1185 960 1208 q 968 1132 968 1162 q 922 1015 968 1058 q 790 965 876 972 m 525 64 q 784 170 692 64 q 877 510 877 277 q 525 964 877 964 q 266 857 358 964 q 173 517 173 751 q 525 64 173 64 m 485 1119 l 624 1313 l 719 1313 l 565 1119 l 485 1119 z "},"Ợ":{"ha":1050,"x_min":84,"x_max":968,"o":"m 790 965 q 920 792 874 903 q 966 514 966 680 q 849 116 966 244 q 525 -12 732 -12 q 292 43 390 -12 q 139 217 193 99 q 84 514 84 334 q 139 811 84 694 q 293 984 194 928 q 525 1040 392 1040 q 591 1037 558 1040 q 632 1033 624 1033 q 756 1024 701 1024 q 862 1051 825 1024 q 899 1135 899 1078 q 895 1184 899 1161 q 883 1233 891 1206 l 951 1233 q 964 1185 960 1208 q 968 1132 968 1162 q 922 1015 968 1058 q 790 965 876 972 m 525 64 q 784 170 692 64 q 877 510 877 277 q 525 964 877 964 q 266 857 358 964 q 173 517 173 751 q 525 64 173 64 m 525 -232 q 479 -217 496 -232 q 462 -176 462 -202 q 479 -135 462 -150 q 525 -119 496 -119 q 571 -135 554 -119 q 588 -176 588 -150 q 571 -217 588 -202 q 525 -232 554 -232 z "},"Ờ":{"ha":1050,"x_min":84,"x_max":968,"o":"m 790 965 q 920 792 874 903 q 966 514 966 680 q 849 116 966 244 q 525 -12 732 -12 q 292 43 390 -12 q 139 217 193 99 q 84 514 84 334 q 139 811 84 694 q 293 984 194 928 q 525 1040 392 1040 q 591 1037 558 1040 q 632 1033 624 1033 q 756 1024 701 1024 q 862 1051 825 1024 q 899 1135 899 1078 q 895 1184 899 1161 q 883 1233 891 1206 l 951 1233 q 964 1185 960 1208 q 968 1132 968 1162 q 922 1015 968 1058 q 790 965 876 972 m 525 64 q 784 170 692 64 q 877 510 877 277 q 525 964 877 964 q 266 857 358 964 q 173 517 173 751 q 525 64 173 64 m 485 1119 l 331 1313 l 426 1313 l 565 1119 l 485 1119 z "},"Ở":{"ha":1050,"x_min":84,"x_max":968,"o":"m 790 965 q 920 792 874 903 q 966 514 966 680 q 849 116 966 244 q 525 -12 732 -12 q 292 43 390 -12 q 139 217 193 99 q 84 514 84 334 q 139 811 84 694 q 293 984 194 928 q 525 1040 392 1040 q 591 1037 558 1040 q 632 1033 624 1033 q 756 1024 701 1024 q 862 1051 825 1024 q 899 1135 899 1078 q 895 1184 899 1161 q 883 1233 891 1206 l 951 1233 q 964 1185 960 1208 q 968 1132 968 1162 q 922 1015 968 1058 q 790 965 876 972 m 525 64 q 784 170 692 64 q 877 510 877 277 q 525 964 877 964 q 266 857 358 964 q 173 517 173 751 q 525 64 173 64 m 495 1119 q 515 1163 497 1148 q 568 1192 534 1178 q 605 1211 592 1202 q 617 1233 617 1219 q 597 1259 617 1250 q 531 1268 578 1268 q 459 1263 492 1268 q 388 1244 426 1257 l 388 1292 q 535 1315 451 1315 q 640 1294 606 1315 q 674 1237 674 1274 q 657 1195 674 1210 q 609 1167 641 1181 q 569 1146 583 1156 q 554 1119 556 1136 l 495 1119 z "},"Ỡ":{"ha":1050,"x_min":84,"x_max":968,"o":"m 634 1167 q 578 1174 605 1167 q 515 1195 552 1181 q 460 1214 482 1208 q 415 1219 438 1219 q 349 1208 378 1219 q 294 1170 321 1196 l 294 1235 q 416 1278 338 1278 q 472 1272 445 1278 q 535 1251 498 1265 q 590 1232 568 1238 q 635 1226 612 1226 q 701 1238 672 1226 q 755 1275 729 1250 l 755 1210 q 704 1178 733 1188 q 634 1167 674 1167 m 790 965 q 920 792 874 903 q 966 514 966 680 q 849 116 966 244 q 525 -12 732 -12 q 292 43 390 -12 q 139 217 193 99 q 84 514 84 334 q 139 811 84 694 q 293 984 194 928 q 525 1040 392 1040 q 591 1037 558 1040 q 632 1033 624 1033 q 756 1024 701 1024 q 862 1051 825 1024 q 899 1135 899 1078 q 895 1184 899 1161 q 883 1233 891 1206 l 951 1233 q 964 1185 960 1208 q 968 1132 968 1162 q 922 1015 968 1058 q 790 965 876 972 m 525 64 q 784 170 692 64 q 877 510 877 277 q 525 964 877 964 q 266 857 358 964 q 173 517 173 751 q 525 64 173 64 z "},"Ő":{"ha":1050,"x_min":84,"x_max":966,"o":"m 525 -12 q 292 43 390 -12 q 139 217 193 99 q 84 514 84 334 q 139 811 84 694 q 293 984 194 928 q 525 1040 392 1040 q 758 984 660 1040 q 911 811 857 928 q 966 514 966 694 q 911 217 966 334 q 757 43 856 99 q 525 -12 658 -12 m 525 64 q 784 170 692 64 q 877 510 877 277 q 525 964 877 964 q 266 857 358 964 q 173 517 173 751 q 525 64 173 64 m 372 1119 l 472 1313 l 548 1313 l 442 1119 l 372 1119 m 608 1119 l 708 1313 l 784 1313 l 678 1119 l 608 1119 z "},"Ȏ":{"ha":1050,"x_min":84,"x_max":966,"o":"m 525 -12 q 292 43 390 -12 q 139 217 193 99 q 84 514 84 334 q 139 811 84 694 q 293 984 194 928 q 525 1040 392 1040 q 758 984 660 1040 q 911 811 857 928 q 966 514 966 694 q 911 217 966 334 q 757 43 856 99 q 525 -12 658 -12 m 525 64 q 784 170 692 64 q 877 510 877 277 q 525 964 877 964 q 266 857 358 964 q 173 517 173 751 q 525 64 173 64 m 300 1135 q 364 1260 308 1214 q 524 1306 419 1306 q 685 1259 628 1306 q 750 1135 742 1213 l 688 1135 q 641 1221 679 1192 q 524 1250 603 1250 q 407 1221 444 1250 q 362 1135 370 1192 l 300 1135 z "},"Ō":{"ha":1050,"x_min":84,"x_max":966,"o":"m 525 -12 q 292 43 390 -12 q 139 217 193 99 q 84 514 84 334 q 139 811 84 694 q 293 984 194 928 q 525 1040 392 1040 q 758 984 660 1040 q 911 811 857 928 q 966 514 966 694 q 911 217 966 334 q 757 43 856 99 q 525 -12 658 -12 m 525 64 q 784 170 692 64 q 877 510 877 277 q 525 964 877 964 q 266 857 358 964 q 173 517 173 751 q 525 64 173 64 m 313 1185 l 313 1247 l 738 1247 l 738 1185 l 313 1185 z "},"Ṓ":{"ha":1050,"x_min":84,"x_max":966,"o":"m 525 -12 q 292 43 390 -12 q 139 217 193 99 q 84 514 84 334 q 139 811 84 694 q 293 984 194 928 q 525 1040 392 1040 q 758 984 660 1040 q 911 811 857 928 q 966 514 966 694 q 911 217 966 334 q 757 43 856 99 q 525 -12 658 -12 m 525 64 q 784 170 692 64 q 877 510 877 277 q 525 964 877 964 q 266 857 358 964 q 173 517 173 751 q 525 64 173 64 m 482 1319 l 620 1481 l 722 1481 l 569 1319 l 482 1319 m 313 1185 l 313 1247 l 738 1247 l 738 1185 l 313 1185 z "},"Ṑ":{"ha":1050,"x_min":84,"x_max":966,"o":"m 525 -12 q 292 43 390 -12 q 139 217 193 99 q 84 514 84 334 q 139 811 84 694 q 293 984 194 928 q 525 1040 392 1040 q 758 984 660 1040 q 911 811 857 928 q 966 514 966 694 q 911 217 966 334 q 757 43 856 99 q 525 -12 658 -12 m 525 64 q 784 170 692 64 q 877 510 877 277 q 525 964 877 964 q 266 857 358 964 q 173 517 173 751 q 525 64 173 64 m 482 1319 l 328 1481 l 428 1481 l 568 1319 l 482 1319 m 313 1185 l 313 1247 l 738 1247 l 738 1185 l 313 1185 z "},"Ǫ":{"ha":1050,"x_min":84,"x_max":966,"o":"m 691 12 q 544 -65 586 -24 q 503 -156 503 -106 q 530 -216 503 -195 q 609 -237 557 -237 q 664 -230 636 -237 q 731 -210 692 -224 l 731 -258 q 605 -284 668 -284 q 485 -252 527 -284 q 444 -160 444 -219 q 466 -80 444 -116 q 539 -12 488 -43 l 527 -12 q 201 117 319 -12 q 84 514 84 247 q 139 811 84 694 q 293 984 194 928 q 525 1040 392 1040 q 848 912 731 1040 q 966 514 966 783 q 892 177 966 300 q 691 12 818 55 m 525 64 q 784 170 692 64 q 877 510 877 277 q 525 964 877 964 q 266 857 358 964 q 173 517 173 751 q 525 64 173 64 z "},"Ø":{"ha":1050,"x_min":84,"x_max":966,"o":"m 864 892 q 966 514 966 759 q 911 217 966 334 q 757 43 856 99 q 525 -12 658 -12 q 227 91 338 -12 l 142 -16 l 95 21 l 186 135 q 84 514 84 269 q 139 811 84 694 q 293 984 194 928 q 525 1040 392 1040 q 823 937 713 1040 l 908 1044 l 955 1007 l 864 892 m 173 517 q 242 206 173 318 l 771 872 q 525 964 683 964 q 266 857 358 964 q 173 517 173 751 m 525 64 q 784 170 692 64 q 877 510 877 277 q 808 822 877 710 l 279 156 q 525 64 367 64 z "},"Ǿ":{"ha":1050,"x_min":84,"x_max":966,"o":"m 864 892 q 966 514 966 759 q 911 217 966 334 q 757 43 856 99 q 525 -12 658 -12 q 227 91 338 -12 l 142 -16 l 95 21 l 186 135 q 84 514 84 269 q 139 811 84 694 q 293 984 194 928 q 525 1040 392 1040 q 823 937 713 1040 l 908 1044 l 955 1007 l 864 892 m 173 517 q 242 206 173 318 l 771 872 q 525 964 683 964 q 266 857 358 964 q 173 517 173 751 m 525 64 q 784 170 692 64 q 877 510 877 277 q 808 822 877 710 l 279 156 q 525 64 367 64 m 480 1119 l 619 1313 l 715 1313 l 560 1119 l 480 1119 z "},"Õ":{"ha":1050,"x_min":84,"x_max":966,"o":"m 525 -12 q 292 43 390 -12 q 139 217 193 99 q 84 514 84 334 q 139 811 84 694 q 293 984 194 928 q 525 1040 392 1040 q 758 984 660 1040 q 911 811 857 928 q 966 514 966 694 q 911 217 966 334 q 757 43 856 99 q 525 -12 658 -12 m 525 64 q 784 170 692 64 q 877 510 877 277 q 525 964 877 964 q 266 857 358 964 q 173 517 173 751 q 525 64 173 64 m 635 1167 q 579 1174 605 1167 q 514 1195 553 1181 q 459 1214 481 1208 q 415 1219 438 1219 q 348 1208 376 1219 q 292 1170 319 1196 l 292 1235 q 344 1268 315 1257 q 415 1278 374 1278 q 471 1272 445 1278 q 536 1251 497 1265 q 591 1232 569 1238 q 635 1226 613 1226 q 702 1238 674 1226 q 758 1275 731 1249 l 758 1210 q 706 1178 735 1188 q 635 1167 676 1167 z "},"Ṍ":{"ha":1050,"x_min":84,"x_max":966,"o":"m 525 -12 q 292 43 390 -12 q 139 217 193 99 q 84 514 84 334 q 139 811 84 694 q 293 984 194 928 q 525 1040 392 1040 q 758 984 660 1040 q 911 811 857 928 q 966 514 966 694 q 911 217 966 334 q 757 43 856 99 q 525 -12 658 -12 m 525 64 q 784 170 692 64 q 877 510 877 277 q 525 964 877 964 q 266 857 358 964 q 173 517 173 751 q 525 64 173 64 m 482 1319 l 620 1481 l 722 1481 l 569 1319 l 482 1319 m 635 1167 q 579 1174 605 1167 q 514 1195 553 1181 q 459 1214 481 1208 q 415 1219 438 1219 q 348 1208 376 1219 q 292 1170 319 1196 l 292 1235 q 344 1268 315 1257 q 415 1278 374 1278 q 471 1272 445 1278 q 536 1251 497 1265 q 591 1232 569 1238 q 635 1226 613 1226 q 702 1238 674 1226 q 758 1275 731 1249 l 758 1210 q 706 1178 735 1188 q 635 1167 676 1167 z "},"Ṏ":{"ha":1050,"x_min":84,"x_max":966,"o":"m 525 -12 q 292 43 390 -12 q 139 217 193 99 q 84 514 84 334 q 139 811 84 694 q 293 984 194 928 q 525 1040 392 1040 q 758 984 660 1040 q 911 811 857 928 q 966 514 966 694 q 911 217 966 334 q 757 43 856 99 q 525 -12 658 -12 m 525 64 q 784 170 692 64 q 877 510 877 277 q 525 964 877 964 q 266 857 358 964 q 173 517 173 751 q 525 64 173 64 m 635 1167 q 579 1174 605 1167 q 514 1195 553 1181 q 459 1214 481 1208 q 415 1219 438 1219 q 348 1208 376 1219 q 292 1170 319 1196 l 292 1235 q 344 1268 315 1257 q 415 1278 374 1278 q 471 1272 445 1278 q 536 1251 497 1265 q 591 1232 569 1238 q 635 1226 613 1226 q 702 1238 674 1226 q 758 1275 731 1249 l 758 1210 q 706 1178 735 1188 q 635 1167 676 1167 m 353 1338 q 309 1352 325 1338 q 293 1393 293 1367 q 309 1434 293 1419 q 353 1449 325 1449 q 396 1434 380 1449 q 412 1393 412 1419 q 396 1352 412 1367 q 353 1338 380 1338 m 697 1338 q 654 1352 670 1338 q 638 1393 638 1367 q 654 1434 638 1419 q 697 1449 670 1449 q 741 1434 725 1449 q 757 1393 757 1419 q 741 1352 757 1367 q 697 1338 725 1338 z "},"Ȭ":{"ha":1050,"x_min":84,"x_max":966,"o":"m 525 -12 q 292 43 390 -12 q 139 217 193 99 q 84 514 84 334 q 139 811 84 694 q 293 984 194 928 q 525 1040 392 1040 q 758 984 660 1040 q 911 811 857 928 q 966 514 966 694 q 911 217 966 334 q 757 43 856 99 q 525 -12 658 -12 m 525 64 q 784 170 692 64 q 877 510 877 277 q 525 964 877 964 q 266 857 358 964 q 173 517 173 751 q 525 64 173 64 m 635 1167 q 579 1174 605 1167 q 514 1195 553 1181 q 459 1214 481 1208 q 415 1219 438 1219 q 348 1208 376 1219 q 292 1170 319 1196 l 292 1235 q 344 1268 315 1257 q 415 1278 374 1278 q 471 1272 445 1278 q 536 1251 497 1265 q 591 1232 569 1238 q 635 1226 613 1226 q 702 1238 674 1226 q 758 1275 731 1249 l 758 1210 q 706 1178 735 1188 q 635 1167 676 1167 m 313 1362 l 313 1423 l 738 1423 l 738 1362 l 313 1362 z "},"Œ":{"ha":1476,"x_min":84,"x_max":1414,"o":"m 1414 75 l 1414 0 l 853 0 q 744 -3 811 0 q 686 -6 727 -4 q 615 -7 644 -7 q 218 122 351 -7 q 84 514 84 250 q 217 907 84 776 q 608 1038 351 1038 q 680 1035 640 1038 q 731 1033 719 1033 q 843 1028 799 1028 l 1407 1028 l 1407 953 l 865 953 l 865 565 l 1338 565 l 1338 490 l 865 490 l 865 75 l 1414 75 m 780 952 q 602 962 688 962 q 280 852 388 962 q 173 514 173 743 q 281 176 173 285 q 605 68 389 68 q 780 76 713 68 l 780 952 z "},"P":{"ha":888,"x_min":133,"x_max":820,"o":"m 133 1011 q 268 1032 203 1025 q 403 1038 332 1038 q 715 954 610 1038 q 820 694 820 870 q 713 434 820 522 q 378 347 605 347 q 218 354 297 347 l 218 0 l 133 0 l 133 1011 m 380 419 q 583 449 506 419 q 697 539 661 479 q 733 692 733 599 q 653 899 733 833 q 408 965 573 965 q 218 949 306 965 l 218 429 q 380 419 295 419 z "},"Þ":{"ha":894,"x_min":133,"x_max":820,"o":"m 133 1028 l 218 1028 l 218 858 q 404 874 310 874 q 715 790 610 874 q 820 529 820 706 q 713 270 820 358 q 379 182 605 182 q 218 190 297 182 l 218 0 l 133 0 l 133 1028 m 380 255 q 583 285 506 255 q 697 375 661 315 q 733 528 733 435 q 653 735 733 669 q 408 801 573 801 q 218 785 306 801 l 218 265 q 380 255 288 255 z "},"Q":{"ha":1050,"x_min":84,"x_max":966,"o":"m 966 514 q 861 132 966 264 q 555 -6 756 -1 q 947 -72 712 -53 l 933 -145 q 421 -35 605 -111 q 161 171 238 40 q 84 513 84 301 q 139 811 84 693 q 293 984 194 928 q 525 1040 392 1040 q 848 912 731 1040 q 966 514 966 783 m 173 517 q 525 64 173 64 q 784 170 692 64 q 877 510 877 277 q 525 964 877 964 q 266 857 358 964 q 173 517 173 751 z "},"R":{"ha":946,"x_min":133,"x_max":896,"o":"m 797 0 l 449 437 q 388 435 410 435 q 301 438 343 435 q 217 443 258 440 l 217 0 l 133 0 l 133 1010 q 266 1031 199 1023 q 413 1038 333 1038 q 643 1007 553 1038 q 777 910 733 976 q 822 740 822 844 q 538 447 823 494 l 896 0 l 797 0 m 217 516 q 301 509 266 511 q 390 508 336 508 q 656 564 573 508 q 739 738 739 620 q 706 871 739 822 q 602 943 672 921 q 417 966 531 966 q 313 962 357 966 q 217 949 268 958 l 217 516 z "},"Ŕ":{"ha":946,"x_min":133,"x_max":896,"o":"m 797 0 l 449 437 q 388 435 410 435 q 301 438 343 435 q 217 443 258 440 l 217 0 l 133 0 l 133 1010 q 266 1031 199 1023 q 413 1038 333 1038 q 643 1007 553 1038 q 777 910 733 976 q 822 740 822 844 q 538 447 823 494 l 896 0 l 797 0 m 217 516 q 301 509 266 511 q 390 508 336 508 q 656 564 573 508 q 739 738 739 620 q 706 871 739 822 q 602 943 672 921 q 417 966 531 966 q 313 962 357 966 q 217 949 268 958 l 217 516 m 415 1119 l 554 1313 l 650 1313 l 496 1119 l 415 1119 z "},"Ř":{"ha":946,"x_min":133,"x_max":896,"o":"m 797 0 l 449 437 q 388 435 410 435 q 301 438 343 435 q 217 443 258 440 l 217 0 l 133 0 l 133 1010 q 266 1031 199 1023 q 413 1038 333 1038 q 643 1007 553 1038 q 777 910 733 976 q 822 740 822 844 q 538 447 823 494 l 896 0 l 797 0 m 217 516 q 301 509 266 511 q 390 508 336 508 q 656 564 573 508 q 739 738 739 620 q 706 871 739 822 q 602 943 672 921 q 417 966 531 966 q 313 962 357 966 q 217 949 268 958 l 217 516 m 597 1313 l 681 1313 l 497 1119 l 415 1119 l 231 1313 l 315 1313 l 456 1160 l 597 1313 z "},"Ŗ":{"ha":946,"x_min":133,"x_max":896,"o":"m 797 0 l 449 437 q 388 435 410 435 q 301 438 343 435 q 217 443 258 440 l 217 0 l 133 0 l 133 1010 q 266 1031 199 1023 q 413 1038 333 1038 q 643 1007 553 1038 q 777 910 733 976 q 822 740 822 844 q 538 447 823 494 l 896 0 l 797 0 m 217 516 q 301 509 266 511 q 390 508 336 508 q 656 564 573 508 q 739 738 739 620 q 706 871 739 822 q 602 943 672 921 q 417 966 531 966 q 313 962 357 966 q 217 949 268 958 l 217 516 m 488 -119 q 535 -137 519 -119 q 551 -188 551 -154 q 541 -252 551 -217 q 515 -319 532 -287 l 462 -319 q 488 -222 484 -265 q 445 -207 460 -221 q 430 -170 430 -193 q 445 -133 430 -147 q 488 -119 460 -119 z "},"Ȑ":{"ha":946,"x_min":133,"x_max":896,"o":"m 797 0 l 449 437 q 388 435 410 435 q 301 438 343 435 q 217 443 258 440 l 217 0 l 133 0 l 133 1010 q 266 1031 199 1023 q 413 1038 333 1038 q 643 1007 553 1038 q 777 910 733 976 q 822 740 822 844 q 538 447 823 494 l 896 0 l 797 0 m 217 516 q 301 509 266 511 q 390 508 336 508 q 656 564 573 508 q 739 738 739 620 q 706 871 739 822 q 602 943 672 921 q 417 966 531 966 q 313 962 357 966 q 217 949 268 958 l 217 516 m 302 1119 l 197 1313 l 273 1313 l 373 1119 l 302 1119 m 538 1119 l 433 1313 l 509 1313 l 609 1119 l 538 1119 z "},"Ṛ":{"ha":946,"x_min":133,"x_max":896,"o":"m 797 0 l 449 437 q 388 435 410 435 q 301 438 343 435 q 217 443 258 440 l 217 0 l 133 0 l 133 1010 q 266 1031 199 1023 q 413 1038 333 1038 q 643 1007 553 1038 q 777 910 733 976 q 822 740 822 844 q 538 447 823 494 l 896 0 l 797 0 m 217 516 q 301 509 266 511 q 390 508 336 508 q 656 564 573 508 q 739 738 739 620 q 706 871 739 822 q 602 943 672 921 q 417 966 531 966 q 313 962 357 966 q 217 949 268 958 l 217 516 m 490 -232 q 444 -217 461 -232 q 427 -176 427 -202 q 444 -135 427 -150 q 490 -119 461 -119 q 536 -135 519 -119 q 553 -176 553 -150 q 536 -217 553 -202 q 490 -232 519 -232 z "},"Ȓ":{"ha":946,"x_min":133,"x_max":896,"o":"m 797 0 l 449 437 q 388 435 410 435 q 301 438 343 435 q 217 443 258 440 l 217 0 l 133 0 l 133 1010 q 266 1031 199 1023 q 413 1038 333 1038 q 643 1007 553 1038 q 777 910 733 976 q 822 740 822 844 q 538 447 823 494 l 896 0 l 797 0 m 217 516 q 301 509 266 511 q 390 508 336 508 q 656 564 573 508 q 739 738 739 620 q 706 871 739 822 q 602 943 672 921 q 417 966 531 966 q 313 962 357 966 q 217 949 268 958 l 217 516 m 231 1135 q 294 1260 239 1214 q 454 1306 350 1306 q 615 1259 558 1306 q 681 1135 672 1213 l 619 1135 q 572 1221 610 1192 q 454 1250 534 1250 q 338 1221 375 1250 q 292 1135 301 1192 l 231 1135 z "},"Ṟ":{"ha":946,"x_min":133,"x_max":896,"o":"m 797 0 l 449 437 q 388 435 410 435 q 301 438 343 435 q 217 443 258 440 l 217 0 l 133 0 l 133 1010 q 266 1031 199 1023 q 413 1038 333 1038 q 643 1007 553 1038 q 777 910 733 976 q 822 740 822 844 q 538 447 823 494 l 896 0 l 797 0 m 217 516 q 301 509 266 511 q 390 508 336 508 q 656 564 573 508 q 739 738 739 620 q 706 871 739 822 q 602 943 672 921 q 417 966 531 966 q 313 962 357 966 q 217 949 268 958 l 217 516 m 278 -206 l 278 -145 l 703 -145 l 703 -206 l 278 -206 z "},"S":{"ha":773,"x_min":60,"x_max":713,"o":"m 340 -12 q 206 -2 274 -12 q 75 31 137 9 l 75 107 q 210 73 142 84 q 341 63 278 63 q 554 115 483 63 q 625 269 625 167 q 601 364 625 326 q 527 427 578 401 q 391 472 477 452 l 337 483 q 128 582 196 515 q 60 760 60 649 q 102 910 60 847 q 225 1007 143 973 q 428 1040 308 1040 q 553 1032 491 1040 q 668 1006 615 1023 l 668 930 q 428 965 551 965 q 218 914 288 965 q 148 765 148 862 q 169 670 148 708 q 237 607 190 633 q 365 563 284 581 l 419 551 q 642 450 572 517 q 713 274 713 384 q 669 118 713 183 q 542 21 626 54 q 340 -12 458 -12 z "},"Ś":{"ha":773,"x_min":60,"x_max":713,"o":"m 340 -12 q 206 -2 274 -12 q 75 31 137 9 l 75 107 q 210 73 142 84 q 341 63 278 63 q 554 115 483 63 q 625 269 625 167 q 601 364 625 326 q 527 427 578 401 q 391 472 477 452 l 337 483 q 128 582 196 515 q 60 760 60 649 q 102 910 60 847 q 225 1007 143 973 q 428 1040 308 1040 q 553 1032 491 1040 q 668 1006 615 1023 l 668 930 q 428 965 551 965 q 218 914 288 965 q 148 765 148 862 q 169 670 148 708 q 237 607 190 633 q 365 563 284 581 l 419 551 q 642 450 572 517 q 713 274 713 384 q 669 118 713 183 q 542 21 626 54 q 340 -12 458 -12 m 351 1119 l 490 1313 l 586 1313 l 432 1119 l 351 1119 z "},"Ṥ":{"ha":773,"x_min":60,"x_max":713,"o":"m 340 -12 q 206 -2 274 -12 q 75 31 137 9 l 75 107 q 210 73 142 84 q 341 63 278 63 q 554 115 483 63 q 625 269 625 167 q 601 364 625 326 q 527 427 578 401 q 391 472 477 452 l 337 483 q 128 582 196 515 q 60 760 60 649 q 102 910 60 847 q 225 1007 143 973 q 428 1040 308 1040 q 553 1032 491 1040 q 668 1006 615 1023 l 668 930 q 428 965 551 965 q 218 914 288 965 q 148 765 148 862 q 169 670 148 708 q 237 607 190 633 q 365 563 284 581 l 419 551 q 642 450 572 517 q 713 274 713 384 q 669 118 713 183 q 542 21 626 54 q 340 -12 458 -12 m 336 1285 q 294 1299 310 1285 q 278 1337 278 1313 q 294 1375 278 1361 q 336 1390 310 1390 q 378 1375 363 1390 q 394 1337 394 1361 q 378 1299 394 1313 q 336 1285 363 1285 m 351 1119 l 490 1313 l 586 1313 l 432 1119 l 351 1119 z "},"Š":{"ha":773,"x_min":60,"x_max":713,"o":"m 340 -12 q 206 -2 274 -12 q 75 31 137 9 l 75 107 q 210 73 142 84 q 341 63 278 63 q 554 115 483 63 q 625 269 625 167 q 601 364 625 326 q 527 427 578 401 q 391 472 477 452 l 337 483 q 128 582 196 515 q 60 760 60 649 q 102 910 60 847 q 225 1007 143 973 q 428 1040 308 1040 q 553 1032 491 1040 q 668 1006 615 1023 l 668 930 q 428 965 551 965 q 218 914 288 965 q 148 765 148 862 q 169 670 148 708 q 237 607 190 633 q 365 563 284 581 l 419 551 q 642 450 572 517 q 713 274 713 384 q 669 118 713 183 q 542 21 626 54 q 340 -12 458 -12 m 533 1313 l 617 1313 l 433 1119 l 351 1119 l 167 1313 l 251 1313 l 392 1160 l 533 1313 z "},"Ṧ":{"ha":773,"x_min":60,"x_max":713,"o":"m 340 -12 q 206 -2 274 -12 q 75 31 137 9 l 75 107 q 210 73 142 84 q 341 63 278 63 q 554 115 483 63 q 625 269 625 167 q 601 364 625 326 q 527 427 578 401 q 391 472 477 452 l 337 483 q 128 582 196 515 q 60 760 60 649 q 102 910 60 847 q 225 1007 143 973 q 428 1040 308 1040 q 553 1032 491 1040 q 668 1006 615 1023 l 668 930 q 428 965 551 965 q 218 914 288 965 q 148 765 148 862 q 169 670 148 708 q 237 607 190 633 q 365 563 284 581 l 419 551 q 642 450 572 517 q 713 274 713 384 q 669 118 713 183 q 542 21 626 54 q 340 -12 458 -12 m 392 1317 q 350 1331 365 1317 q 334 1369 334 1344 q 350 1407 334 1393 q 392 1422 365 1422 q 434 1407 418 1422 q 449 1369 449 1393 q 434 1331 449 1344 q 392 1317 418 1317 m 533 1313 l 617 1313 l 433 1119 l 351 1119 l 167 1313 l 251 1313 l 392 1160 l 533 1313 z "},"Ş":{"ha":773,"x_min":60,"x_max":713,"o":"m 713 274 q 636 79 713 151 q 415 -9 559 6 l 415 -74 q 510 -103 476 -76 q 544 -178 544 -130 q 505 -257 544 -231 q 394 -284 465 -284 q 322 -277 358 -284 q 256 -258 285 -270 l 256 -209 q 391 -237 326 -237 q 488 -176 488 -237 q 390 -116 488 -116 l 362 -116 l 362 -12 l 340 -12 q 206 -2 274 -12 q 75 31 137 9 l 75 107 q 210 73 142 84 q 341 63 278 63 q 554 115 483 63 q 625 269 625 167 q 601 364 625 326 q 527 427 578 401 q 391 472 477 452 l 337 483 q 128 582 196 515 q 60 760 60 649 q 102 910 60 847 q 225 1007 143 973 q 428 1040 308 1040 q 553 1032 491 1040 q 668 1006 615 1023 l 668 930 q 428 965 551 965 q 218 914 288 965 q 148 765 148 862 q 169 670 148 708 q 237 607 190 633 q 365 563 284 581 l 419 551 q 642 450 572 517 q 713 274 713 384 z "},"Ŝ":{"ha":773,"x_min":60,"x_max":713,"o":"m 340 -12 q 206 -2 274 -12 q 75 31 137 9 l 75 107 q 210 73 142 84 q 341 63 278 63 q 554 115 483 63 q 625 269 625 167 q 601 364 625 326 q 527 427 578 401 q 391 472 477 452 l 337 483 q 128 582 196 515 q 60 760 60 649 q 102 910 60 847 q 225 1007 143 973 q 428 1040 308 1040 q 553 1032 491 1040 q 668 1006 615 1023 l 668 930 q 428 965 551 965 q 218 914 288 965 q 148 765 148 862 q 169 670 148 708 q 237 607 190 633 q 365 563 284 581 l 419 551 q 642 450 572 517 q 713 274 713 384 q 669 118 713 183 q 542 21 626 54 q 340 -12 458 -12 m 617 1119 l 533 1119 l 392 1271 l 251 1119 l 167 1119 l 351 1313 l 433 1313 l 617 1119 z "},"Ș":{"ha":773,"x_min":60,"x_max":713,"o":"m 340 -12 q 206 -2 274 -12 q 75 31 137 9 l 75 107 q 210 73 142 84 q 341 63 278 63 q 554 115 483 63 q 625 269 625 167 q 601 364 625 326 q 527 427 578 401 q 391 472 477 452 l 337 483 q 128 582 196 515 q 60 760 60 649 q 102 910 60 847 q 225 1007 143 973 q 428 1040 308 1040 q 553 1032 491 1040 q 668 1006 615 1023 l 668 930 q 428 965 551 965 q 218 914 288 965 q 148 765 148 862 q 169 670 148 708 q 237 607 190 633 q 365 563 284 581 l 419 551 q 642 450 572 517 q 713 274 713 384 q 669 118 713 183 q 542 21 626 54 q 340 -12 458 -12 m 390 -119 q 436 -137 420 -119 q 452 -188 452 -154 q 443 -252 452 -217 q 417 -319 433 -287 l 363 -319 q 389 -222 385 -265 q 347 -207 362 -221 q 331 -170 331 -193 q 347 -133 331 -147 q 390 -119 362 -119 z "},"Ṡ":{"ha":773,"x_min":60,"x_max":713,"o":"m 340 -12 q 206 -2 274 -12 q 75 31 137 9 l 75 107 q 210 73 142 84 q 341 63 278 63 q 554 115 483 63 q 625 269 625 167 q 601 364 625 326 q 527 427 578 401 q 391 472 477 452 l 337 483 q 128 582 196 515 q 60 760 60 649 q 102 910 60 847 q 225 1007 143 973 q 428 1040 308 1040 q 553 1032 491 1040 q 668 1006 615 1023 l 668 930 q 428 965 551 965 q 218 914 288 965 q 148 765 148 862 q 169 670 148 708 q 237 607 190 633 q 365 563 284 581 l 419 551 q 642 450 572 517 q 713 274 713 384 q 669 118 713 183 q 542 21 626 54 q 340 -12 458 -12 m 392 1161 q 345 1176 363 1161 q 328 1217 328 1191 q 345 1258 328 1242 q 392 1273 363 1273 q 438 1258 421 1273 q 455 1217 455 1242 q 438 1176 455 1191 q 392 1161 421 1161 z "},"Ṣ":{"ha":773,"x_min":60,"x_max":713,"o":"m 340 -12 q 206 -2 274 -12 q 75 31 137 9 l 75 107 q 210 73 142 84 q 341 63 278 63 q 554 115 483 63 q 625 269 625 167 q 601 364 625 326 q 527 427 578 401 q 391 472 477 452 l 337 483 q 128 582 196 515 q 60 760 60 649 q 102 910 60 847 q 225 1007 143 973 q 428 1040 308 1040 q 553 1032 491 1040 q 668 1006 615 1023 l 668 930 q 428 965 551 965 q 218 914 288 965 q 148 765 148 862 q 169 670 148 708 q 237 607 190 633 q 365 563 284 581 l 419 551 q 642 450 572 517 q 713 274 713 384 q 669 118 713 183 q 542 21 626 54 q 340 -12 458 -12 m 392 -232 q 345 -217 363 -232 q 328 -176 328 -202 q 345 -135 328 -150 q 392 -119 363 -119 q 438 -135 421 -119 q 455 -176 455 -150 q 438 -217 455 -202 q 392 -232 421 -232 z "},"Ṩ":{"ha":773,"x_min":60,"x_max":713,"o":"m 340 -12 q 206 -2 274 -12 q 75 31 137 9 l 75 107 q 210 73 142 84 q 341 63 278 63 q 554 115 483 63 q 625 269 625 167 q 601 364 625 326 q 527 427 578 401 q 391 472 477 452 l 337 483 q 128 582 196 515 q 60 760 60 649 q 102 910 60 847 q 225 1007 143 973 q 428 1040 308 1040 q 553 1032 491 1040 q 668 1006 615 1023 l 668 930 q 428 965 551 965 q 218 914 288 965 q 148 765 148 862 q 169 670 148 708 q 237 607 190 633 q 365 563 284 581 l 419 551 q 642 450 572 517 q 713 274 713 384 q 669 118 713 183 q 542 21 626 54 q 340 -12 458 -12 m 392 -232 q 345 -217 363 -232 q 328 -176 328 -202 q 345 -135 328 -150 q 392 -119 363 -119 q 438 -135 421 -119 q 455 -176 455 -150 q 438 -217 455 -202 q 392 -232 421 -232 m 392 1161 q 345 1176 363 1161 q 328 1217 328 1191 q 345 1258 328 1242 q 392 1273 363 1273 q 438 1258 421 1273 q 455 1217 455 1242 q 438 1176 455 1191 q 392 1161 421 1161 z "},"ẞ":{"ha":1234,"x_min":133,"x_max":1174,"o":"m 882 551 q 1104 450 1035 517 q 1174 274 1174 384 q 1130 118 1174 183 q 1003 21 1087 54 q 802 -12 920 -12 q 670 -2 738 -12 q 541 30 602 9 l 541 106 q 675 73 608 84 q 803 63 742 63 q 1016 115 946 63 q 1087 269 1087 167 q 1063 364 1087 326 q 990 427 1040 402 q 854 472 940 452 l 801 483 q 593 582 660 515 q 526 760 526 649 q 608 957 526 885 q 517 965 567 965 q 290 891 363 965 q 218 654 218 816 l 218 0 l 133 0 l 133 642 q 226 944 133 847 q 517 1040 320 1040 q 701 1010 626 1040 q 892 1040 781 1040 q 1016 1032 955 1040 q 1129 1007 1077 1024 l 1129 930 q 893 965 1017 965 q 683 914 753 965 q 613 765 613 862 q 634 670 613 708 q 702 607 655 633 q 828 563 749 581 l 882 551 z "},"Ə":{"ha":1048,"x_min":77,"x_max":964,"o":"m 422 1040 q 964 511 964 1040 q 910 214 964 331 q 758 42 856 97 q 528 -12 660 -12 q 197 114 316 -12 q 77 503 77 240 l 77 551 l 876 551 q 815 791 869 699 q 661 924 760 883 q 419 965 563 965 q 274 956 349 965 q 133 929 199 947 l 133 1006 q 422 1040 263 1040 m 528 62 q 876 479 865 62 l 167 479 q 265 160 172 259 q 528 62 358 62 z "},"T":{"ha":844,"x_min":12,"x_max":832,"o":"m 379 0 l 379 951 l 12 951 l 12 1028 l 832 1028 l 832 951 l 465 951 l 465 0 l 379 0 z "},"Ŧ":{"ha":844,"x_min":12,"x_max":832,"o":"m 832 951 l 465 951 l 465 577 l 708 577 l 708 513 l 465 513 l 465 0 l 379 0 l 379 513 l 137 513 l 137 577 l 379 577 l 379 951 l 12 951 l 12 1028 l 832 1028 l 832 951 z "},"Ť":{"ha":844,"x_min":12,"x_max":832,"o":"m 379 0 l 379 951 l 12 951 l 12 1028 l 832 1028 l 832 951 l 465 951 l 465 0 l 379 0 m 563 1313 l 647 1313 l 463 1119 l 381 1119 l 197 1313 l 281 1313 l 422 1160 l 563 1313 z "},"Ţ":{"ha":844,"x_min":12,"x_max":832,"o":"m 446 0 l 446 -74 q 540 -103 506 -76 q 574 -178 574 -130 q 535 -257 574 -231 q 424 -284 496 -284 q 352 -277 389 -284 q 287 -258 316 -270 l 287 -209 q 422 -237 356 -237 q 519 -176 519 -237 q 420 -116 519 -116 l 392 -116 l 392 0 l 379 0 l 379 951 l 12 951 l 12 1028 l 832 1028 l 832 951 l 465 951 l 465 0 l 446 0 z "},"Ț":{"ha":844,"x_min":12,"x_max":832,"o":"m 379 0 l 379 951 l 12 951 l 12 1028 l 832 1028 l 832 951 l 465 951 l 465 0 l 379 0 m 420 -119 q 467 -137 451 -119 q 483 -188 483 -154 q 473 -252 483 -217 q 447 -319 464 -287 l 394 -319 q 419 -222 416 -265 q 377 -207 392 -221 q 362 -170 362 -193 q 377 -133 362 -147 q 420 -119 392 -119 z "},"Ṭ":{"ha":844,"x_min":12,"x_max":832,"o":"m 379 0 l 379 951 l 12 951 l 12 1028 l 832 1028 l 832 951 l 465 951 l 465 0 l 379 0 m 422 -232 q 376 -217 393 -232 q 359 -176 359 -202 q 376 -135 359 -150 q 422 -119 393 -119 q 468 -135 451 -119 q 485 -176 485 -150 q 468 -217 485 -202 q 422 -232 451 -232 z "},"Ṯ":{"ha":844,"x_min":12,"x_max":832,"o":"m 379 0 l 379 951 l 12 951 l 12 1028 l 832 1028 l 832 951 l 465 951 l 465 0 l 379 0 m 210 -206 l 210 -145 l 635 -145 l 635 -206 l 210 -206 z "},"U":{"ha":1031,"x_min":127,"x_max":904,"o":"m 517 -12 q 297 30 383 -12 q 169 163 211 73 q 127 393 127 252 l 127 1028 l 213 1028 l 213 383 q 245 200 213 270 q 345 97 278 130 q 517 63 412 63 q 689 97 622 63 q 788 200 756 130 q 821 383 821 270 l 821 1028 l 904 1028 l 904 393 q 863 162 904 251 q 735 30 821 73 q 517 -12 650 -12 z "},"Ú":{"ha":1031,"x_min":127,"x_max":904,"o":"m 517 -12 q 297 30 383 -12 q 169 163 211 73 q 127 393 127 252 l 127 1028 l 213 1028 l 213 383 q 245 200 213 270 q 345 97 278 130 q 517 63 412 63 q 689 97 622 63 q 788 200 756 130 q 821 383 821 270 l 821 1028 l 904 1028 l 904 393 q 863 162 904 251 q 735 30 821 73 q 517 -12 650 -12 m 476 1119 l 615 1313 l 711 1313 l 557 1119 l 476 1119 z "},"Ŭ":{"ha":1031,"x_min":127,"x_max":904,"o":"m 517 -12 q 297 30 383 -12 q 169 163 211 73 q 127 393 127 252 l 127 1028 l 213 1028 l 213 383 q 245 200 213 270 q 345 97 278 130 q 517 63 412 63 q 689 97 622 63 q 788 200 756 130 q 821 383 821 270 l 821 1028 l 904 1028 l 904 393 q 863 162 904 251 q 735 30 821 73 q 517 -12 650 -12 m 518 1126 q 357 1172 414 1126 q 292 1296 300 1218 l 353 1296 q 400 1211 363 1240 q 518 1182 438 1182 q 634 1211 597 1182 q 680 1296 672 1240 l 742 1296 q 678 1172 733 1217 q 518 1126 622 1126 z "},"Û":{"ha":1031,"x_min":127,"x_max":904,"o":"m 517 -12 q 297 30 383 -12 q 169 163 211 73 q 127 393 127 252 l 127 1028 l 213 1028 l 213 383 q 245 200 213 270 q 345 97 278 130 q 517 63 412 63 q 689 97 622 63 q 788 200 756 130 q 821 383 821 270 l 821 1028 l 904 1028 l 904 393 q 863 162 904 251 q 735 30 821 73 q 517 -12 650 -12 m 742 1119 l 658 1119 l 517 1271 l 376 1119 l 292 1119 l 476 1313 l 558 1313 l 742 1119 z "},"Ȕ":{"ha":1031,"x_min":127,"x_max":904,"o":"m 517 -12 q 297 30 383 -12 q 169 163 211 73 q 127 393 127 252 l 127 1028 l 213 1028 l 213 383 q 245 200 213 270 q 345 97 278 130 q 517 63 412 63 q 689 97 622 63 q 788 200 756 130 q 821 383 821 270 l 821 1028 l 904 1028 l 904 393 q 863 162 904 251 q 735 30 821 73 q 517 -12 650 -12 m 363 1119 l 258 1313 l 334 1313 l 434 1119 l 363 1119 m 599 1119 l 494 1313 l 570 1313 l 670 1119 l 599 1119 z "},"Ü":{"ha":1031,"x_min":127,"x_max":904,"o":"m 517 -12 q 297 30 383 -12 q 169 163 211 73 q 127 393 127 252 l 127 1028 l 213 1028 l 213 383 q 245 200 213 270 q 345 97 278 130 q 517 63 412 63 q 689 97 622 63 q 788 200 756 130 q 821 383 821 270 l 821 1028 l 904 1028 l 904 393 q 863 162 904 251 q 735 30 821 73 q 517 -12 650 -12 m 344 1161 q 301 1176 317 1161 q 285 1217 285 1191 q 301 1258 285 1242 q 344 1273 317 1273 q 388 1258 372 1273 q 403 1217 403 1242 q 388 1176 403 1191 q 344 1161 372 1161 m 689 1161 q 646 1176 662 1161 q 630 1217 630 1191 q 646 1258 630 1242 q 689 1273 662 1273 q 733 1258 717 1273 q 749 1217 749 1242 q 733 1176 749 1191 q 689 1161 717 1161 z "},"Ụ":{"ha":1031,"x_min":127,"x_max":904,"o":"m 517 -12 q 297 30 383 -12 q 169 163 211 73 q 127 393 127 252 l 127 1028 l 213 1028 l 213 383 q 245 200 213 270 q 345 97 278 130 q 517 63 412 63 q 689 97 622 63 q 788 200 756 130 q 821 383 821 270 l 821 1028 l 904 1028 l 904 393 q 863 162 904 251 q 735 30 821 73 q 517 -12 650 -12 m 517 -232 q 470 -217 488 -232 q 453 -176 453 -202 q 470 -135 453 -150 q 517 -119 488 -119 q 563 -135 546 -119 q 580 -176 580 -150 q 563 -217 580 -202 q 517 -232 546 -232 z "},"Ù":{"ha":1031,"x_min":127,"x_max":904,"o":"m 517 -12 q 297 30 383 -12 q 169 163 211 73 q 127 393 127 252 l 127 1028 l 213 1028 l 213 383 q 245 200 213 270 q 345 97 278 130 q 517 63 412 63 q 689 97 622 63 q 788 200 756 130 q 821 383 821 270 l 821 1028 l 904 1028 l 904 393 q 863 162 904 251 q 735 30 821 73 q 517 -12 650 -12 m 476 1119 l 322 1313 l 418 1313 l 557 1119 l 476 1119 z "},"Ủ":{"ha":1031,"x_min":127,"x_max":904,"o":"m 517 -12 q 297 30 383 -12 q 169 163 211 73 q 127 393 127 252 l 127 1028 l 213 1028 l 213 383 q 245 200 213 270 q 345 97 278 130 q 517 63 412 63 q 689 97 622 63 q 788 200 756 130 q 821 383 821 270 l 821 1028 l 904 1028 l 904 393 q 863 162 904 251 q 735 30 821 73 q 517 -12 650 -12 m 487 1119 q 507 1163 488 1148 q 560 1192 526 1178 q 596 1211 584 1202 q 608 1233 608 1219 q 589 1259 608 1250 q 523 1268 569 1268 q 451 1263 484 1268 q 380 1244 418 1257 l 380 1292 q 526 1315 443 1315 q 631 1294 597 1315 q 665 1237 665 1274 q 649 1195 665 1210 q 601 1167 633 1181 q 561 1146 574 1156 q 546 1119 548 1136 l 487 1119 z "},"Ư":{"ha":1032,"x_min":127,"x_max":1067,"o":"m 517 -12 q 297 30 383 -12 q 169 163 211 73 q 127 393 127 252 l 127 1028 l 213 1028 l 213 383 q 245 200 213 270 q 345 97 278 130 q 517 63 412 63 q 689 97 622 63 q 788 200 756 130 q 821 383 821 270 l 821 1028 l 855 1028 q 962 1053 926 1028 q 999 1135 999 1079 q 994 1184 999 1161 q 982 1233 990 1206 l 1050 1233 q 1063 1185 1059 1208 q 1067 1132 1067 1162 q 1025 1021 1067 1062 q 904 974 982 980 l 904 393 q 863 162 904 251 q 735 30 821 73 q 517 -12 650 -12 z "},"Ứ":{"ha":1032,"x_min":127,"x_max":1067,"o":"m 517 -12 q 297 30 383 -12 q 169 163 211 73 q 127 393 127 252 l 127 1028 l 213 1028 l 213 383 q 245 200 213 270 q 345 97 278 130 q 517 63 412 63 q 689 97 622 63 q 788 200 756 130 q 821 383 821 270 l 821 1028 l 855 1028 q 962 1053 926 1028 q 999 1135 999 1079 q 994 1184 999 1161 q 982 1233 990 1206 l 1050 1233 q 1063 1185 1059 1208 q 1067 1132 1067 1162 q 1025 1021 1067 1062 q 904 974 982 980 l 904 393 q 863 162 904 251 q 735 30 821 73 q 517 -12 650 -12 m 476 1119 l 615 1313 l 711 1313 l 557 1119 l 476 1119 z "},"Ự":{"ha":1032,"x_min":127,"x_max":1067,"o":"m 517 -12 q 297 30 383 -12 q 169 163 211 73 q 127 393 127 252 l 127 1028 l 213 1028 l 213 383 q 245 200 213 270 q 345 97 278 130 q 517 63 412 63 q 689 97 622 63 q 788 200 756 130 q 821 383 821 270 l 821 1028 l 855 1028 q 962 1053 926 1028 q 999 1135 999 1079 q 994 1184 999 1161 q 982 1233 990 1206 l 1050 1233 q 1063 1185 1059 1208 q 1067 1132 1067 1162 q 1025 1021 1067 1062 q 904 974 982 980 l 904 393 q 863 162 904 251 q 735 30 821 73 q 517 -12 650 -12 m 517 -232 q 470 -217 488 -232 q 453 -176 453 -202 q 470 -135 453 -150 q 517 -119 488 -119 q 563 -135 546 -119 q 580 -176 580 -150 q 563 -217 580 -202 q 517 -232 546 -232 z "},"Ừ":{"ha":1032,"x_min":127,"x_max":1067,"o":"m 517 -12 q 297 30 383 -12 q 169 163 211 73 q 127 393 127 252 l 127 1028 l 213 1028 l 213 383 q 245 200 213 270 q 345 97 278 130 q 517 63 412 63 q 689 97 622 63 q 788 200 756 130 q 821 383 821 270 l 821 1028 l 855 1028 q 962 1053 926 1028 q 999 1135 999 1079 q 994 1184 999 1161 q 982 1233 990 1206 l 1050 1233 q 1063 1185 1059 1208 q 1067 1132 1067 1162 q 1025 1021 1067 1062 q 904 974 982 980 l 904 393 q 863 162 904 251 q 735 30 821 73 q 517 -12 650 -12 m 476 1119 l 322 1313 l 418 1313 l 557 1119 l 476 1119 z "},"Ử":{"ha":1032,"x_min":127,"x_max":1067,"o":"m 517 -12 q 297 30 383 -12 q 169 163 211 73 q 127 393 127 252 l 127 1028 l 213 1028 l 213 383 q 245 200 213 270 q 345 97 278 130 q 517 63 412 63 q 689 97 622 63 q 788 200 756 130 q 821 383 821 270 l 821 1028 l 855 1028 q 962 1053 926 1028 q 999 1135 999 1079 q 994 1184 999 1161 q 982 1233 990 1206 l 1050 1233 q 1063 1185 1059 1208 q 1067 1132 1067 1162 q 1025 1021 1067 1062 q 904 974 982 980 l 904 393 q 863 162 904 251 q 735 30 821 73 q 517 -12 650 -12 m 487 1119 q 507 1163 488 1148 q 560 1192 526 1178 q 596 1211 584 1202 q 608 1233 608 1219 q 589 1259 608 1250 q 523 1268 569 1268 q 451 1263 484 1268 q 380 1244 418 1257 l 380 1292 q 526 1315 443 1315 q 631 1294 597 1315 q 665 1237 665 1274 q 649 1195 665 1210 q 601 1167 633 1181 q 561 1146 574 1156 q 546 1119 548 1136 l 487 1119 z "},"Ữ":{"ha":1032,"x_min":127,"x_max":1067,"o":"m 517 -12 q 297 30 383 -12 q 169 163 211 73 q 127 393 127 252 l 127 1028 l 213 1028 l 213 383 q 245 200 213 270 q 345 97 278 130 q 517 63 412 63 q 689 97 622 63 q 788 200 756 130 q 821 383 821 270 l 821 1028 l 855 1028 q 962 1053 926 1028 q 999 1135 999 1079 q 994 1184 999 1161 q 982 1233 990 1206 l 1050 1233 q 1063 1185 1059 1208 q 1067 1132 1067 1162 q 1025 1021 1067 1062 q 904 974 982 980 l 904 393 q 863 162 904 251 q 735 30 821 73 q 517 -12 650 -12 m 626 1167 q 570 1174 597 1167 q 506 1195 544 1181 q 451 1214 473 1208 q 406 1219 429 1219 q 339 1208 368 1219 q 284 1170 310 1196 l 284 1235 q 336 1268 306 1257 q 407 1278 366 1278 q 463 1272 437 1278 q 528 1251 489 1265 q 582 1232 560 1238 q 627 1226 604 1226 q 694 1238 665 1226 q 749 1275 723 1249 l 749 1210 q 697 1178 727 1188 q 626 1167 667 1167 z "},"Ű":{"ha":1031,"x_min":127,"x_max":904,"o":"m 517 -12 q 297 30 383 -12 q 169 163 211 73 q 127 393 127 252 l 127 1028 l 213 1028 l 213 383 q 245 200 213 270 q 345 97 278 130 q 517 63 412 63 q 689 97 622 63 q 788 200 756 130 q 821 383 821 270 l 821 1028 l 904 1028 l 904 393 q 863 162 904 251 q 735 30 821 73 q 517 -12 650 -12 m 363 1119 l 463 1313 l 540 1313 l 434 1119 l 363 1119 m 599 1119 l 699 1313 l 776 1313 l 670 1119 l 599 1119 z "},"Ȗ":{"ha":1031,"x_min":127,"x_max":904,"o":"m 517 -12 q 297 30 383 -12 q 169 163 211 73 q 127 393 127 252 l 127 1028 l 213 1028 l 213 383 q 245 200 213 270 q 345 97 278 130 q 517 63 412 63 q 689 97 622 63 q 788 200 756 130 q 821 383 821 270 l 821 1028 l 904 1028 l 904 393 q 863 162 904 251 q 735 30 821 73 q 517 -12 650 -12 m 292 1135 q 356 1260 300 1214 q 515 1306 411 1306 q 676 1259 619 1306 q 742 1135 733 1213 l 680 1135 q 633 1221 671 1192 q 515 1250 595 1250 q 399 1221 436 1250 q 353 1135 362 1192 l 292 1135 z "},"Ū":{"ha":1031,"x_min":127,"x_max":904,"o":"m 517 -12 q 297 30 383 -12 q 169 163 211 73 q 127 393 127 252 l 127 1028 l 213 1028 l 213 383 q 245 200 213 270 q 345 97 278 130 q 517 63 412 63 q 689 97 622 63 q 788 200 756 130 q 821 383 821 270 l 821 1028 l 904 1028 l 904 393 q 863 162 904 251 q 735 30 821 73 q 517 -12 650 -12 m 304 1185 l 304 1247 l 729 1247 l 729 1185 l 304 1185 z "},"Ṻ":{"ha":1031,"x_min":127,"x_max":904,"o":"m 517 -12 q 297 30 383 -12 q 169 163 211 73 q 127 393 127 252 l 127 1028 l 213 1028 l 213 383 q 245 200 213 270 q 345 97 278 130 q 517 63 412 63 q 689 97 622 63 q 788 200 756 130 q 821 383 821 270 l 821 1028 l 904 1028 l 904 393 q 863 162 904 251 q 735 30 821 73 q 517 -12 650 -12 m 304 1185 l 304 1247 l 729 1247 l 729 1185 l 304 1185 m 344 1338 q 301 1352 317 1338 q 285 1393 285 1367 q 301 1434 285 1419 q 344 1449 317 1449 q 388 1434 372 1449 q 403 1393 403 1419 q 388 1352 403 1367 q 344 1338 372 1338 m 689 1338 q 646 1352 662 1338 q 630 1393 630 1367 q 646 1434 630 1419 q 689 1449 662 1449 q 733 1434 717 1449 q 749 1393 749 1419 q 733 1352 749 1367 q 689 1338 717 1338 z "},"Ų":{"ha":1031,"x_min":127,"x_max":904,"o":"m 904 1028 l 904 393 q 847 133 904 228 q 668 5 790 38 q 482 -152 482 -47 q 509 -214 482 -192 q 588 -235 536 -235 q 644 -228 616 -235 q 710 -208 672 -222 l 710 -256 q 584 -282 647 -282 q 464 -249 505 -282 q 424 -155 424 -217 q 446 -77 424 -114 q 518 -12 469 -40 l 517 -12 q 297 30 383 -12 q 169 163 211 73 q 127 393 127 252 l 127 1028 l 213 1028 l 213 383 q 245 200 213 270 q 345 97 278 130 q 517 63 412 63 q 689 97 622 63 q 788 200 756 130 q 821 383 821 270 l 821 1028 l 904 1028 z "},"Ů":{"ha":1031,"x_min":127,"x_max":904,"o":"m 517 -12 q 297 30 383 -12 q 169 163 211 73 q 127 393 127 252 l 127 1028 l 213 1028 l 213 383 q 245 200 213 270 q 345 97 278 130 q 517 63 412 63 q 689 97 622 63 q 788 200 756 130 q 821 383 821 270 l 821 1028 l 904 1028 l 904 393 q 863 162 904 251 q 735 30 821 73 q 517 -12 650 -12 m 517 1115 q 449 1132 479 1115 q 401 1179 419 1149 q 384 1247 384 1209 q 401 1314 384 1284 q 449 1361 419 1344 q 517 1378 479 1378 q 584 1361 554 1378 q 632 1314 615 1344 q 649 1247 649 1284 q 632 1179 649 1209 q 584 1132 615 1149 q 517 1115 554 1115 m 517 1160 q 578 1183 554 1160 q 601 1247 601 1207 q 578 1309 601 1286 q 517 1333 554 1333 q 456 1309 479 1333 q 432 1247 432 1286 q 456 1183 432 1207 q 517 1160 479 1160 z "},"Ũ":{"ha":1031,"x_min":127,"x_max":904,"o":"m 517 -12 q 297 30 383 -12 q 169 163 211 73 q 127 393 127 252 l 127 1028 l 213 1028 l 213 383 q 245 200 213 270 q 345 97 278 130 q 517 63 412 63 q 689 97 622 63 q 788 200 756 130 q 821 383 821 270 l 821 1028 l 904 1028 l 904 393 q 863 162 904 251 q 735 30 821 73 q 517 -12 650 -12 m 626 1167 q 570 1174 597 1167 q 506 1195 544 1181 q 451 1214 473 1208 q 406 1219 429 1219 q 339 1208 368 1219 q 284 1170 310 1196 l 284 1235 q 336 1268 306 1257 q 407 1278 366 1278 q 463 1272 437 1278 q 528 1251 489 1265 q 582 1232 560 1238 q 627 1226 604 1226 q 694 1238 665 1226 q 749 1275 723 1249 l 749 1210 q 697 1178 727 1188 q 626 1167 667 1167 z "},"Ṹ":{"ha":1031,"x_min":127,"x_max":904,"o":"m 517 -12 q 297 30 383 -12 q 169 163 211 73 q 127 393 127 252 l 127 1028 l 213 1028 l 213 383 q 245 200 213 270 q 345 97 278 130 q 517 63 412 63 q 689 97 622 63 q 788 200 756 130 q 821 383 821 270 l 821 1028 l 904 1028 l 904 393 q 863 162 904 251 q 735 30 821 73 q 517 -12 650 -12 m 474 1319 l 612 1481 l 713 1481 l 560 1319 l 474 1319 m 626 1167 q 570 1174 597 1167 q 506 1195 544 1181 q 451 1214 473 1208 q 406 1219 429 1219 q 339 1208 368 1219 q 284 1170 310 1196 l 284 1235 q 336 1268 306 1257 q 407 1278 366 1278 q 463 1272 437 1278 q 528 1251 489 1265 q 582 1232 560 1238 q 627 1226 604 1226 q 694 1238 665 1226 q 749 1275 723 1249 l 749 1210 q 697 1178 727 1188 q 626 1167 667 1167 z "},"V":{"ha":944,"x_min":12,"x_max":932,"o":"m 846 1028 l 932 1028 l 533 0 l 410 0 l 12 1028 l 103 1028 l 475 66 l 846 1028 z "},"W":{"ha":1528,"x_min":47,"x_max":1480,"o":"m 1396 1028 l 1480 1028 l 1168 0 l 1054 0 l 765 934 l 474 0 l 360 0 l 47 1028 l 136 1028 l 421 77 l 713 1028 l 818 1028 l 1109 76 l 1396 1028 z "},"Ẃ":{"ha":1528,"x_min":47,"x_max":1480,"o":"m 1396 1028 l 1480 1028 l 1168 0 l 1054 0 l 765 934 l 474 0 l 360 0 l 47 1028 l 136 1028 l 421 77 l 713 1028 l 818 1028 l 1109 76 l 1396 1028 m 724 1119 l 863 1313 l 959 1313 l 805 1119 l 724 1119 z "},"Ŵ":{"ha":1528,"x_min":47,"x_max":1480,"o":"m 1396 1028 l 1480 1028 l 1168 0 l 1054 0 l 765 934 l 474 0 l 360 0 l 47 1028 l 136 1028 l 421 77 l 713 1028 l 818 1028 l 1109 76 l 1396 1028 m 990 1119 l 906 1119 l 765 1271 l 624 1119 l 540 1119 l 724 1313 l 806 1313 l 990 1119 z "},"Ẅ":{"ha":1528,"x_min":47,"x_max":1480,"o":"m 1396 1028 l 1480 1028 l 1168 0 l 1054 0 l 765 934 l 474 0 l 360 0 l 47 1028 l 136 1028 l 421 77 l 713 1028 l 818 1028 l 1109 76 l 1396 1028 m 592 1161 q 549 1176 565 1161 q 533 1217 533 1191 q 549 1258 533 1242 q 592 1273 565 1273 q 635 1258 619 1273 q 651 1217 651 1242 q 635 1176 651 1191 q 592 1161 619 1161 m 937 1161 q 894 1176 910 1161 q 878 1217 878 1191 q 894 1258 878 1242 q 937 1273 910 1273 q 981 1258 965 1273 q 997 1217 997 1242 q 981 1176 997 1191 q 937 1161 965 1161 z "},"Ẁ":{"ha":1528,"x_min":47,"x_max":1480,"o":"m 1396 1028 l 1480 1028 l 1168 0 l 1054 0 l 765 934 l 474 0 l 360 0 l 47 1028 l 136 1028 l 421 77 l 713 1028 l 818 1028 l 1109 76 l 1396 1028 m 724 1119 l 570 1313 l 666 1313 l 805 1119 l 724 1119 z "},"X":{"ha":922,"x_min":15,"x_max":906,"o":"m 513 523 l 906 0 l 803 0 l 460 456 l 116 0 l 15 0 l 409 522 l 26 1028 l 128 1028 l 461 589 l 795 1028 l 894 1028 l 513 523 z "},"Y":{"ha":844,"x_min":-17,"x_max":855,"o":"m 855 1028 l 465 463 l 465 0 l 379 0 l 379 463 l -17 1028 l 81 1028 l 424 540 l 763 1028 l 855 1028 z "},"Ý":{"ha":844,"x_min":-17,"x_max":855,"o":"m 855 1028 l 465 463 l 465 0 l 379 0 l 379 463 l -17 1028 l 81 1028 l 424 540 l 763 1028 l 855 1028 m 382 1119 l 521 1313 l 617 1313 l 463 1119 l 382 1119 z "},"Ŷ":{"ha":844,"x_min":-17,"x_max":855,"o":"m 855 1028 l 465 463 l 465 0 l 379 0 l 379 463 l -17 1028 l 81 1028 l 424 540 l 763 1028 l 855 1028 m 647 1119 l 563 1119 l 422 1271 l 281 1119 l 197 1119 l 381 1313 l 463 1313 l 647 1119 z "},"Ÿ":{"ha":844,"x_min":-17,"x_max":855,"o":"m 855 1028 l 465 463 l 465 0 l 379 0 l 379 463 l -17 1028 l 81 1028 l 424 540 l 763 1028 l 855 1028 m 250 1161 q 206 1176 222 1161 q 190 1217 190 1191 q 206 1258 190 1242 q 250 1273 222 1273 q 293 1258 277 1273 q 309 1217 309 1242 q 293 1176 309 1191 q 250 1161 277 1161 m 594 1161 q 551 1176 567 1161 q 535 1217 535 1191 q 551 1258 535 1242 q 594 1273 567 1273 q 638 1258 622 1273 q 654 1217 654 1242 q 638 1176 654 1191 q 594 1161 622 1161 z "},"Ẏ":{"ha":844,"x_min":-17,"x_max":855,"o":"m 855 1028 l 465 463 l 465 0 l 379 0 l 379 463 l -17 1028 l 81 1028 l 424 540 l 763 1028 l 855 1028 m 422 1161 q 376 1176 393 1161 q 359 1217 359 1191 q 376 1258 359 1242 q 422 1273 393 1273 q 468 1258 451 1273 q 485 1217 485 1242 q 468 1176 485 1191 q 422 1161 451 1161 z "},"Ỵ":{"ha":844,"x_min":-17,"x_max":855,"o":"m 855 1028 l 465 463 l 465 0 l 379 0 l 379 463 l -17 1028 l 81 1028 l 424 540 l 763 1028 l 855 1028 m 422 -232 q 376 -217 393 -232 q 359 -176 359 -202 q 376 -135 359 -150 q 422 -119 393 -119 q 468 -135 451 -119 q 485 -176 485 -150 q 468 -217 485 -202 q 422 -232 451 -232 z "},"Ỳ":{"ha":844,"x_min":-17,"x_max":855,"o":"m 855 1028 l 465 463 l 465 0 l 379 0 l 379 463 l -17 1028 l 81 1028 l 424 540 l 763 1028 l 855 1028 m 382 1119 l 228 1313 l 324 1313 l 463 1119 l 382 1119 z "},"Ỷ":{"ha":844,"x_min":-17,"x_max":855,"o":"m 855 1028 l 465 463 l 465 0 l 379 0 l 379 463 l -17 1028 l 81 1028 l 424 540 l 763 1028 l 855 1028 m 392 1119 q 413 1163 394 1148 q 465 1192 431 1178 q 502 1211 490 1202 q 514 1233 514 1219 q 494 1259 514 1250 q 428 1268 475 1268 q 357 1263 390 1268 q 285 1244 324 1257 l 285 1292 q 432 1315 349 1315 q 537 1294 503 1315 q 571 1237 571 1274 q 555 1195 571 1210 q 506 1167 538 1181 q 467 1146 480 1156 q 451 1119 453 1136 l 392 1119 z "},"Ȳ":{"ha":844,"x_min":-17,"x_max":855,"o":"m 855 1028 l 465 463 l 465 0 l 379 0 l 379 463 l -17 1028 l 81 1028 l 424 540 l 763 1028 l 855 1028 m 210 1185 l 210 1247 l 635 1247 l 635 1185 l 210 1185 z "},"Ỹ":{"ha":844,"x_min":-17,"x_max":855,"o":"m 855 1028 l 465 463 l 465 0 l 379 0 l 379 463 l -17 1028 l 81 1028 l 424 540 l 763 1028 l 855 1028 m 532 1167 q 476 1174 502 1167 q 411 1195 450 1181 q 357 1214 378 1208 q 312 1219 335 1219 q 245 1208 274 1219 q 190 1170 216 1196 l 190 1235 q 242 1268 212 1257 q 313 1278 272 1278 q 368 1272 342 1278 q 433 1251 394 1265 q 488 1232 466 1238 q 533 1226 510 1226 q 600 1238 571 1226 q 655 1275 628 1249 l 655 1210 q 603 1178 633 1188 q 532 1167 573 1167 z "},"Z":{"ha":840,"x_min":45,"x_max":794,"o":"m 163 76 l 794 76 l 794 0 l 45 0 l 45 49 l 668 952 l 54 952 l 54 1028 l 785 1028 l 785 979 l 163 76 z "},"Ź":{"ha":840,"x_min":45,"x_max":794,"o":"m 163 76 l 794 76 l 794 0 l 45 0 l 45 49 l 668 952 l 54 952 l 54 1028 l 785 1028 l 785 979 l 163 76 m 380 1119 l 519 1313 l 615 1313 l 460 1119 l 380 1119 z "},"Ž":{"ha":840,"x_min":45,"x_max":794,"o":"m 163 76 l 794 76 l 794 0 l 45 0 l 45 49 l 668 952 l 54 952 l 54 1028 l 785 1028 l 785 979 l 163 76 m 561 1313 l 645 1313 l 461 1119 l 379 1119 l 195 1313 l 279 1313 l 420 1160 l 561 1313 z "},"Ż":{"ha":840,"x_min":45,"x_max":794,"o":"m 163 76 l 794 76 l 794 0 l 45 0 l 45 49 l 668 952 l 54 952 l 54 1028 l 785 1028 l 785 979 l 163 76 m 420 1161 q 374 1176 391 1161 q 357 1217 357 1191 q 374 1258 357 1242 q 420 1273 391 1273 q 466 1258 449 1273 q 483 1217 483 1242 q 466 1176 483 1191 q 420 1161 449 1161 z "},"Ẓ":{"ha":840,"x_min":45,"x_max":794,"o":"m 163 76 l 794 76 l 794 0 l 45 0 l 45 49 l 668 952 l 54 952 l 54 1028 l 785 1028 l 785 979 l 163 76 m 419 -232 q 373 -217 390 -232 q 356 -176 356 -202 q 373 -135 356 -150 q 419 -119 390 -119 q 466 -135 449 -119 q 483 -176 483 -150 q 466 -217 483 -202 q 419 -232 449 -232 z "},"a":{"ha":744,"x_min":77,"x_max":635,"o":"m 348 763 q 507 739 444 763 q 603 657 570 714 q 635 501 635 599 l 635 0 l 563 0 l 557 88 l 550 88 q 447 15 510 42 q 312 -12 383 -12 q 186 13 239 -12 q 105 82 133 37 q 77 190 77 128 q 142 340 77 287 q 351 408 208 393 l 552 431 l 552 503 q 528 617 552 576 q 459 675 505 658 q 340 691 413 691 q 233 682 290 691 q 124 655 177 674 l 124 728 q 231 754 171 745 q 348 763 291 763 m 328 58 q 449 83 391 58 q 552 160 507 108 l 552 368 l 356 346 q 209 298 254 334 q 165 197 165 263 q 206 94 165 130 q 328 58 247 58 z "},"á":{"ha":744,"x_min":77,"x_max":635,"o":"m 348 763 q 507 739 444 763 q 603 657 570 714 q 635 501 635 599 l 635 0 l 563 0 l 557 88 l 550 88 q 447 15 510 42 q 312 -12 383 -12 q 186 13 239 -12 q 105 82 133 37 q 77 190 77 128 q 142 340 77 287 q 351 408 208 393 l 552 431 l 552 503 q 528 617 552 576 q 459 675 505 658 q 340 691 413 691 q 233 682 290 691 q 124 655 177 674 l 124 728 q 231 754 171 745 q 348 763 291 763 m 328 58 q 449 83 391 58 q 552 160 507 108 l 552 368 l 356 346 q 209 298 254 334 q 165 197 165 263 q 206 94 165 130 q 328 58 247 58 m 330 873 l 498 1122 l 593 1122 l 410 873 l 330 873 z "},"ă":{"ha":744,"x_min":77,"x_max":635,"o":"m 348 763 q 507 739 444 763 q 603 657 570 714 q 635 501 635 599 l 635 0 l 563 0 l 557 88 l 550 88 q 447 15 510 42 q 312 -12 383 -12 q 186 13 239 -12 q 105 82 133 37 q 77 190 77 128 q 142 340 77 287 q 351 408 208 393 l 552 431 l 552 503 q 528 617 552 576 q 459 675 505 658 q 340 691 413 691 q 233 682 290 691 q 124 655 177 674 l 124 728 q 231 754 171 745 q 348 763 291 763 m 328 58 q 449 83 391 58 q 552 160 507 108 l 552 368 l 356 346 q 209 298 254 334 q 165 197 165 263 q 206 94 165 130 q 328 58 247 58 m 372 881 q 219 941 274 881 q 159 1103 164 1000 l 220 1103 q 372 937 231 937 q 480 980 444 937 q 520 1103 515 1023 l 581 1103 q 523 940 576 999 q 372 881 469 881 z "},"ắ":{"ha":744,"x_min":77,"x_max":635,"o":"m 348 763 q 507 739 444 763 q 603 657 570 714 q 635 501 635 599 l 635 0 l 563 0 l 557 88 l 550 88 q 447 15 510 42 q 312 -12 383 -12 q 186 13 239 -12 q 105 82 133 37 q 77 190 77 128 q 142 340 77 287 q 351 408 208 393 l 552 431 l 552 503 q 528 617 552 576 q 459 675 505 658 q 340 691 413 691 q 233 682 290 691 q 124 655 177 674 l 124 728 q 231 754 171 745 q 348 763 291 763 m 328 58 q 449 83 391 58 q 552 160 507 108 l 552 368 l 356 346 q 209 298 254 334 q 165 197 165 263 q 206 94 165 130 q 328 58 247 58 m 335 1108 l 474 1297 l 560 1297 l 406 1108 l 335 1108 m 372 881 q 218 940 273 881 q 157 1099 163 999 l 219 1099 q 372 936 231 936 q 480 978 444 936 q 522 1099 516 1020 l 583 1099 q 523 940 578 998 q 372 881 469 881 z "},"ặ":{"ha":744,"x_min":77,"x_max":635,"o":"m 348 763 q 507 739 444 763 q 603 657 570 714 q 635 501 635 599 l 635 0 l 563 0 l 557 88 l 550 88 q 447 15 510 42 q 312 -12 383 -12 q 186 13 239 -12 q 105 82 133 37 q 77 190 77 128 q 142 340 77 287 q 351 408 208 393 l 552 431 l 552 503 q 528 617 552 576 q 459 675 505 658 q 340 691 413 691 q 233 682 290 691 q 124 655 177 674 l 124 728 q 231 754 171 745 q 348 763 291 763 m 328 58 q 449 83 391 58 q 552 160 507 108 l 552 368 l 356 346 q 209 298 254 334 q 165 197 165 263 q 206 94 165 130 q 328 58 247 58 m 382 -235 q 339 -220 355 -235 q 322 -178 322 -204 q 339 -135 322 -151 q 382 -119 355 -119 q 425 -135 409 -119 q 442 -178 442 -151 q 425 -220 442 -204 q 382 -235 409 -235 m 372 881 q 219 941 274 881 q 159 1103 164 1000 l 220 1103 q 372 937 231 937 q 480 980 444 937 q 520 1103 515 1023 l 581 1103 q 523 940 576 999 q 372 881 469 881 z "},"ằ":{"ha":744,"x_min":77,"x_max":635,"o":"m 348 763 q 507 739 444 763 q 603 657 570 714 q 635 501 635 599 l 635 0 l 563 0 l 557 88 l 550 88 q 447 15 510 42 q 312 -12 383 -12 q 186 13 239 -12 q 105 82 133 37 q 77 190 77 128 q 142 340 77 287 q 351 408 208 393 l 552 431 l 552 503 q 528 617 552 576 q 459 675 505 658 q 340 691 413 691 q 233 682 290 691 q 124 655 177 674 l 124 728 q 231 754 171 745 q 348 763 291 763 m 328 58 q 449 83 391 58 q 552 160 507 108 l 552 368 l 356 346 q 209 298 254 334 q 165 197 165 263 q 206 94 165 130 q 328 58 247 58 m 335 1108 l 181 1297 l 267 1297 l 406 1108 l 335 1108 m 372 881 q 218 940 273 881 q 157 1099 163 999 l 219 1099 q 372 936 231 936 q 480 978 444 936 q 522 1099 516 1020 l 583 1099 q 523 940 578 998 q 372 881 469 881 z "},"ẳ":{"ha":744,"x_min":77,"x_max":635,"o":"m 348 763 q 507 739 444 763 q 603 657 570 714 q 635 501 635 599 l 635 0 l 563 0 l 557 88 l 550 88 q 447 15 510 42 q 312 -12 383 -12 q 186 13 239 -12 q 105 82 133 37 q 77 190 77 128 q 142 340 77 287 q 351 408 208 393 l 552 431 l 552 503 q 528 617 552 576 q 459 675 505 658 q 340 691 413 691 q 233 682 290 691 q 124 655 177 674 l 124 728 q 231 754 171 745 q 348 763 291 763 m 328 58 q 449 83 391 58 q 552 160 507 108 l 552 368 l 356 346 q 209 298 254 334 q 165 197 165 263 q 206 94 165 130 q 328 58 247 58 m 340 1108 q 360 1151 342 1136 q 413 1180 379 1166 q 450 1198 438 1190 q 462 1220 462 1206 q 442 1246 462 1237 q 376 1255 423 1255 q 305 1249 338 1255 q 233 1231 272 1244 l 233 1276 q 380 1300 295 1300 q 485 1280 451 1300 q 519 1224 519 1259 q 510 1192 519 1205 q 488 1173 501 1180 q 454 1156 476 1165 q 415 1135 428 1145 q 399 1108 401 1125 l 340 1108 m 372 881 q 218 940 273 881 q 157 1099 163 999 l 219 1099 q 372 936 231 936 q 480 978 444 936 q 522 1099 516 1020 l 583 1099 q 523 940 578 998 q 372 881 469 881 z "},"ẵ":{"ha":744,"x_min":77,"x_max":635,"o":"m 348 763 q 507 739 444 763 q 603 657 570 714 q 635 501 635 599 l 635 0 l 563 0 l 557 88 l 550 88 q 447 15 510 42 q 312 -12 383 -12 q 186 13 239 -12 q 105 82 133 37 q 77 190 77 128 q 142 340 77 287 q 351 408 208 393 l 552 431 l 552 503 q 528 617 552 576 q 459 675 505 658 q 340 691 413 691 q 233 682 290 691 q 124 655 177 674 l 124 728 q 231 754 171 745 q 348 763 291 763 m 328 58 q 449 83 391 58 q 552 160 507 108 l 552 368 l 356 346 q 209 298 254 334 q 165 197 165 263 q 206 94 165 130 q 328 58 247 58 m 475 1156 q 421 1163 447 1156 q 359 1183 396 1169 q 308 1200 330 1194 q 265 1206 286 1206 q 202 1195 230 1206 q 147 1158 174 1183 l 147 1219 q 265 1263 192 1263 q 320 1256 294 1263 q 381 1235 346 1249 q 434 1217 414 1223 q 476 1211 455 1211 q 539 1223 510 1211 q 593 1259 567 1234 l 593 1198 q 475 1156 550 1156 m 372 881 q 218 940 273 881 q 157 1099 163 999 l 219 1099 q 372 936 231 936 q 480 978 444 936 q 522 1099 516 1020 l 583 1099 q 523 940 578 998 q 372 881 469 881 z "},"â":{"ha":744,"x_min":77,"x_max":635,"o":"m 348 763 q 507 739 444 763 q 603 657 570 714 q 635 501 635 599 l 635 0 l 563 0 l 557 88 l 550 88 q 447 15 510 42 q 312 -12 383 -12 q 186 13 239 -12 q 105 82 133 37 q 77 190 77 128 q 142 340 77 287 q 351 408 208 393 l 552 431 l 552 503 q 528 617 552 576 q 459 675 505 658 q 340 691 413 691 q 233 682 290 691 q 124 655 177 674 l 124 728 q 231 754 171 745 q 348 763 291 763 m 328 58 q 449 83 391 58 q 552 160 507 108 l 552 368 l 356 346 q 209 298 254 334 q 165 197 165 263 q 206 94 165 130 q 328 58 247 58 m 578 873 l 503 873 l 370 1074 l 237 873 l 162 873 l 330 1122 l 410 1122 l 578 873 z "},"ấ":{"ha":744,"x_min":77,"x_max":747,"o":"m 348 763 q 507 739 444 763 q 603 657 570 714 q 635 501 635 599 l 635 0 l 563 0 l 557 88 l 550 88 q 447 15 510 42 q 312 -12 383 -12 q 186 13 239 -12 q 105 82 133 37 q 77 190 77 128 q 142 340 77 287 q 351 408 208 393 l 552 431 l 552 503 q 528 617 552 576 q 459 675 505 658 q 340 691 413 691 q 233 682 290 691 q 124 655 177 674 l 124 728 q 231 754 171 745 q 348 763 291 763 m 328 58 q 449 83 391 58 q 552 160 507 108 l 552 368 l 356 346 q 209 298 254 334 q 165 197 165 263 q 206 94 165 130 q 328 58 247 58 m 661 1297 l 747 1297 l 593 1108 l 522 1108 l 661 1297 m 330 1122 l 410 1122 l 578 873 l 503 873 l 370 1074 l 237 873 l 162 873 l 330 1122 z "},"ậ":{"ha":744,"x_min":77,"x_max":635,"o":"m 348 763 q 507 739 444 763 q 603 657 570 714 q 635 501 635 599 l 635 0 l 563 0 l 557 88 l 550 88 q 447 15 510 42 q 312 -12 383 -12 q 186 13 239 -12 q 105 82 133 37 q 77 190 77 128 q 142 340 77 287 q 351 408 208 393 l 552 431 l 552 503 q 528 617 552 576 q 459 675 505 658 q 340 691 413 691 q 233 682 290 691 q 124 655 177 674 l 124 728 q 231 754 171 745 q 348 763 291 763 m 328 58 q 449 83 391 58 q 552 160 507 108 l 552 368 l 356 346 q 209 298 254 334 q 165 197 165 263 q 206 94 165 130 q 328 58 247 58 m 382 -235 q 339 -220 355 -235 q 322 -178 322 -204 q 339 -135 322 -151 q 382 -119 355 -119 q 425 -135 409 -119 q 442 -178 442 -151 q 425 -220 442 -204 q 382 -235 409 -235 m 578 873 l 503 873 l 370 1074 l 237 873 l 162 873 l 330 1122 l 410 1122 l 578 873 z "},"ầ":{"ha":744,"x_min":77,"x_max":635,"o":"m 348 763 q 507 739 444 763 q 603 657 570 714 q 635 501 635 599 l 635 0 l 563 0 l 557 88 l 550 88 q 447 15 510 42 q 312 -12 383 -12 q 186 13 239 -12 q 105 82 133 37 q 77 190 77 128 q 142 340 77 287 q 351 408 208 393 l 552 431 l 552 503 q 528 617 552 576 q 459 675 505 658 q 340 691 413 691 q 233 682 290 691 q 124 655 177 674 l 124 728 q 231 754 171 745 q 348 763 291 763 m 328 58 q 449 83 391 58 q 552 160 507 108 l 552 368 l 356 346 q 209 298 254 334 q 165 197 165 263 q 206 94 165 130 q 328 58 247 58 m 610 1108 l 539 1108 l 385 1297 l 471 1297 l 610 1108 m 330 1122 l 410 1122 l 578 873 l 503 873 l 370 1074 l 237 873 l 162 873 l 330 1122 z "},"ẩ":{"ha":744,"x_min":77,"x_max":699,"o":"m 348 763 q 507 739 444 763 q 603 657 570 714 q 635 501 635 599 l 635 0 l 563 0 l 557 88 l 550 88 q 447 15 510 42 q 312 -12 383 -12 q 186 13 239 -12 q 105 82 133 37 q 77 190 77 128 q 142 340 77 287 q 351 408 208 393 l 552 431 l 552 503 q 528 617 552 576 q 459 675 505 658 q 340 691 413 691 q 233 682 290 691 q 124 655 177 674 l 124 728 q 231 754 171 745 q 348 763 291 763 m 328 58 q 449 83 391 58 q 552 160 507 108 l 552 368 l 356 346 q 209 298 254 334 q 165 197 165 263 q 206 94 165 130 q 328 58 247 58 m 563 1300 q 666 1280 633 1300 q 699 1224 699 1260 q 683 1184 699 1197 q 636 1157 667 1170 q 597 1135 610 1145 q 581 1108 583 1126 l 523 1108 q 543 1152 524 1137 q 595 1181 562 1167 q 632 1199 620 1190 q 643 1220 643 1207 q 624 1246 643 1237 q 559 1255 606 1255 q 488 1249 520 1255 q 417 1232 455 1244 l 417 1276 q 563 1300 478 1300 m 330 1122 l 410 1122 l 578 873 l 503 873 l 370 1074 l 237 873 l 162 873 l 330 1122 z "},"ẫ":{"ha":744,"x_min":77,"x_max":635,"o":"m 348 763 q 507 739 444 763 q 603 657 570 714 q 635 501 635 599 l 635 0 l 563 0 l 557 88 l 550 88 q 447 15 510 42 q 312 -12 383 -12 q 186 13 239 -12 q 105 82 133 37 q 77 190 77 128 q 142 340 77 287 q 351 408 208 393 l 552 431 l 552 503 q 528 617 552 576 q 459 675 505 658 q 340 691 413 691 q 233 682 290 691 q 124 655 177 674 l 124 728 q 231 754 171 745 q 348 763 291 763 m 328 58 q 449 83 391 58 q 552 160 507 108 l 552 368 l 356 346 q 209 298 254 334 q 165 197 165 263 q 206 94 165 130 q 328 58 247 58 m 475 1211 q 538 1223 510 1211 q 592 1259 565 1234 l 592 1198 q 474 1156 549 1156 q 420 1163 446 1156 q 359 1183 394 1169 q 307 1200 328 1194 q 265 1206 286 1206 q 203 1195 231 1206 q 149 1158 175 1183 l 149 1219 q 266 1263 192 1263 q 321 1255 294 1263 q 381 1235 347 1248 q 435 1217 417 1222 q 475 1211 454 1211 m 329 1114 l 411 1114 l 581 874 l 505 874 l 370 1070 l 235 874 l 159 874 l 329 1114 z "},"ȁ":{"ha":744,"x_min":77,"x_max":635,"o":"m 348 763 q 507 739 444 763 q 603 657 570 714 q 635 501 635 599 l 635 0 l 563 0 l 557 88 l 550 88 q 447 15 510 42 q 312 -12 383 -12 q 186 13 239 -12 q 105 82 133 37 q 77 190 77 128 q 142 340 77 287 q 351 408 208 393 l 552 431 l 552 503 q 528 617 552 576 q 459 675 505 658 q 340 691 413 691 q 233 682 290 691 q 124 655 177 674 l 124 728 q 231 754 171 745 q 348 763 291 763 m 328 58 q 449 83 391 58 q 552 160 507 108 l 552 368 l 356 346 q 209 298 254 334 q 165 197 165 263 q 206 94 165 130 q 328 58 247 58 m 217 873 l 99 1122 l 176 1122 l 288 873 l 217 873 m 453 873 l 335 1122 l 412 1122 l 524 873 l 453 873 z "},"ä":{"ha":744,"x_min":77,"x_max":635,"o":"m 348 763 q 507 739 444 763 q 603 657 570 714 q 635 501 635 599 l 635 0 l 563 0 l 557 88 l 550 88 q 447 15 510 42 q 312 -12 383 -12 q 186 13 239 -12 q 105 82 133 37 q 77 190 77 128 q 142 340 77 287 q 351 408 208 393 l 552 431 l 552 503 q 528 617 552 576 q 459 675 505 658 q 340 691 413 691 q 233 682 290 691 q 124 655 177 674 l 124 728 q 231 754 171 745 q 348 763 291 763 m 328 58 q 449 83 391 58 q 552 160 507 108 l 552 368 l 356 346 q 209 298 254 334 q 165 197 165 263 q 206 94 165 130 q 328 58 247 58 m 210 929 q 167 945 183 929 q 151 987 151 960 q 167 1030 151 1014 q 210 1047 183 1047 q 254 1030 238 1047 q 270 987 270 1014 q 254 945 270 960 q 210 929 238 929 m 530 929 q 486 945 503 929 q 470 987 470 960 q 486 1030 470 1014 q 530 1047 503 1047 q 573 1030 557 1047 q 590 987 590 1014 q 573 945 590 960 q 530 929 557 929 z "},"ạ":{"ha":744,"x_min":77,"x_max":635,"o":"m 348 763 q 507 739 444 763 q 603 657 570 714 q 635 501 635 599 l 635 0 l 563 0 l 557 88 l 550 88 q 447 15 510 42 q 312 -12 383 -12 q 186 13 239 -12 q 105 82 133 37 q 77 190 77 128 q 142 340 77 287 q 351 408 208 393 l 552 431 l 552 503 q 528 617 552 576 q 459 675 505 658 q 340 691 413 691 q 233 682 290 691 q 124 655 177 674 l 124 728 q 231 754 171 745 q 348 763 291 763 m 328 58 q 449 83 391 58 q 552 160 507 108 l 552 368 l 356 346 q 209 298 254 334 q 165 197 165 263 q 206 94 165 130 q 328 58 247 58 m 382 -235 q 339 -220 355 -235 q 322 -178 322 -204 q 339 -135 322 -151 q 382 -119 355 -119 q 425 -135 409 -119 q 442 -178 442 -151 q 425 -220 442 -204 q 382 -235 409 -235 z "},"à":{"ha":744,"x_min":77,"x_max":635,"o":"m 348 763 q 507 739 444 763 q 603 657 570 714 q 635 501 635 599 l 635 0 l 563 0 l 557 88 l 550 88 q 447 15 510 42 q 312 -12 383 -12 q 186 13 239 -12 q 105 82 133 37 q 77 190 77 128 q 142 340 77 287 q 351 408 208 393 l 552 431 l 552 503 q 528 617 552 576 q 459 675 505 658 q 340 691 413 691 q 233 682 290 691 q 124 655 177 674 l 124 728 q 231 754 171 745 q 348 763 291 763 m 328 58 q 449 83 391 58 q 552 160 507 108 l 552 368 l 356 346 q 209 298 254 334 q 165 197 165 263 q 206 94 165 130 q 328 58 247 58 m 330 873 l 147 1122 l 242 1122 l 410 873 l 330 873 z "},"ả":{"ha":744,"x_min":77,"x_max":635,"o":"m 348 763 q 507 739 444 763 q 603 657 570 714 q 635 501 635 599 l 635 0 l 563 0 l 557 88 l 550 88 q 447 15 510 42 q 312 -12 383 -12 q 186 13 239 -12 q 105 82 133 37 q 77 190 77 128 q 142 340 77 287 q 351 408 208 393 l 552 431 l 552 503 q 528 617 552 576 q 459 675 505 658 q 340 691 413 691 q 233 682 290 691 q 124 655 177 674 l 124 728 q 231 754 171 745 q 348 763 291 763 m 328 58 q 449 83 391 58 q 552 160 507 108 l 552 368 l 356 346 q 209 298 254 334 q 165 197 165 263 q 206 94 165 130 q 328 58 247 58 m 342 873 q 353 918 342 899 q 377 949 363 938 q 412 976 390 961 q 447 1003 435 992 q 458 1032 458 1015 q 436 1069 458 1058 q 368 1081 414 1081 q 309 1077 340 1081 q 254 1065 279 1073 l 254 1114 q 308 1126 277 1122 q 368 1131 339 1131 q 515 1035 515 1131 q 500 985 515 1003 q 456 948 485 967 q 415 915 428 931 q 399 873 401 899 l 342 873 z "},"ȃ":{"ha":744,"x_min":77,"x_max":635,"o":"m 348 763 q 507 739 444 763 q 603 657 570 714 q 635 501 635 599 l 635 0 l 563 0 l 557 88 l 550 88 q 447 15 510 42 q 312 -12 383 -12 q 186 13 239 -12 q 105 82 133 37 q 77 190 77 128 q 142 340 77 287 q 351 408 208 393 l 552 431 l 552 503 q 528 617 552 576 q 459 675 505 658 q 340 691 413 691 q 233 682 290 691 q 124 655 177 674 l 124 728 q 231 754 171 745 q 348 763 291 763 m 328 58 q 449 83 391 58 q 552 160 507 108 l 552 368 l 356 346 q 209 298 254 334 q 165 197 165 263 q 206 94 165 130 q 328 58 247 58 m 159 892 q 217 1056 164 997 q 369 1115 271 1115 q 521 1056 466 1115 q 581 892 576 996 l 520 892 q 477 1015 515 972 q 369 1058 440 1058 q 220 892 230 1058 l 159 892 z "},"ā":{"ha":744,"x_min":77,"x_max":635,"o":"m 348 763 q 507 739 444 763 q 603 657 570 714 q 635 501 635 599 l 635 0 l 563 0 l 557 88 l 550 88 q 447 15 510 42 q 312 -12 383 -12 q 186 13 239 -12 q 105 82 133 37 q 77 190 77 128 q 142 340 77 287 q 351 408 208 393 l 552 431 l 552 503 q 528 617 552 576 q 459 675 505 658 q 340 691 413 691 q 233 682 290 691 q 124 655 177 674 l 124 728 q 231 754 171 745 q 348 763 291 763 m 328 58 q 449 83 391 58 q 552 160 507 108 l 552 368 l 356 346 q 209 298 254 334 q 165 197 165 263 q 206 94 165 130 q 328 58 247 58 m 151 958 l 151 1019 l 589 1019 l 589 958 l 151 958 z "},"ą":{"ha":744,"x_min":77,"x_max":703,"o":"m 594 -237 q 703 -207 648 -237 l 703 -256 q 648 -277 678 -269 q 590 -284 618 -284 q 482 -251 521 -284 q 444 -160 444 -218 q 472 -68 444 -110 q 563 11 501 -26 l 557 88 l 550 88 q 447 15 510 42 q 312 -12 383 -12 q 186 13 239 -12 q 105 82 133 37 q 77 190 77 128 q 142 340 77 287 q 351 408 208 393 l 552 431 l 552 503 q 528 617 552 576 q 459 675 505 658 q 340 691 413 691 q 233 682 290 691 q 124 655 177 674 l 124 728 q 231 754 171 745 q 348 763 291 763 q 507 739 444 763 q 603 657 570 714 q 635 501 635 599 l 635 0 q 532 -75 563 -38 q 501 -156 501 -111 q 526 -215 501 -194 q 594 -237 551 -237 m 328 58 q 449 83 391 58 q 552 160 507 108 l 552 368 l 356 346 q 209 298 254 334 q 165 197 165 263 q 206 94 165 130 q 328 58 247 58 z "},"å":{"ha":744,"x_min":77,"x_max":635,"o":"m 348 763 q 507 739 444 763 q 603 657 570 714 q 635 501 635 599 l 635 0 l 563 0 l 557 88 l 550 88 q 447 15 510 42 q 312 -12 383 -12 q 186 13 239 -12 q 105 82 133 37 q 77 190 77 128 q 142 340 77 287 q 351 408 208 393 l 552 431 l 552 503 q 528 617 552 576 q 459 675 505 658 q 340 691 413 691 q 233 682 290 691 q 124 655 177 674 l 124 728 q 231 754 171 745 q 348 763 291 763 m 328 58 q 449 83 391 58 q 552 160 507 108 l 552 368 l 356 346 q 209 298 254 334 q 165 197 165 263 q 206 94 165 130 q 328 58 247 58 m 370 870 q 302 887 333 870 q 255 934 272 904 q 238 1001 238 964 q 255 1069 238 1039 q 302 1116 272 1099 q 370 1133 333 1133 q 438 1116 408 1133 q 485 1069 468 1099 q 503 1001 503 1039 q 485 934 503 964 q 438 887 468 904 q 370 870 408 870 m 370 915 q 431 939 408 915 q 455 1001 455 962 q 431 1065 455 1042 q 370 1088 408 1088 q 309 1065 333 1088 q 285 1001 285 1042 q 309 939 285 962 q 370 915 333 915 z "},"ǻ":{"ha":744,"x_min":77,"x_max":635,"o":"m 348 763 q 507 739 444 763 q 603 657 570 714 q 635 501 635 599 l 635 0 l 563 0 l 557 88 l 550 88 q 447 15 510 42 q 312 -12 383 -12 q 186 13 239 -12 q 105 82 133 37 q 77 190 77 128 q 142 340 77 287 q 351 408 208 393 l 552 431 l 552 503 q 528 617 552 576 q 459 675 505 658 q 340 691 413 691 q 233 682 290 691 q 124 655 177 674 l 124 728 q 231 754 171 745 q 348 763 291 763 m 328 58 q 449 83 391 58 q 552 160 507 108 l 552 368 l 356 346 q 209 298 254 334 q 165 197 165 263 q 206 94 165 130 q 328 58 247 58 m 475 1085 q 503 1001 503 1049 q 485 934 503 964 q 438 887 468 904 q 370 870 408 870 q 302 887 333 870 q 255 934 272 904 q 238 1001 238 964 q 255 1069 238 1039 q 302 1116 272 1099 q 370 1133 333 1133 q 433 1119 405 1133 l 533 1236 l 611 1236 l 475 1085 m 370 915 q 431 939 408 915 q 455 1001 455 962 q 431 1065 455 1042 q 370 1088 408 1088 q 309 1065 333 1088 q 285 1001 285 1042 q 309 939 285 962 q 370 915 333 915 z "},"ã":{"ha":744,"x_min":77,"x_max":635,"o":"m 348 763 q 507 739 444 763 q 603 657 570 714 q 635 501 635 599 l 635 0 l 563 0 l 557 88 l 550 88 q 447 15 510 42 q 312 -12 383 -12 q 186 13 239 -12 q 105 82 133 37 q 77 190 77 128 q 142 340 77 287 q 351 408 208 393 l 552 431 l 552 503 q 528 617 552 576 q 459 675 505 658 q 340 691 413 691 q 233 682 290 691 q 124 655 177 674 l 124 728 q 231 754 171 745 q 348 763 291 763 m 328 58 q 449 83 391 58 q 552 160 507 108 l 552 368 l 356 346 q 209 298 254 334 q 165 197 165 263 q 206 94 165 130 q 328 58 247 58 m 472 944 q 419 951 444 944 q 358 974 394 959 q 306 993 326 987 q 267 999 287 999 q 205 986 233 999 q 151 947 177 974 l 151 1015 q 268 1059 194 1059 q 321 1051 296 1059 q 382 1029 346 1044 q 434 1010 415 1016 q 473 1004 453 1004 q 535 1017 508 1004 q 589 1056 563 1029 l 589 988 q 472 944 546 944 z "},"æ":{"ha":1216,"x_min":77,"x_max":1153,"o":"m 1153 346 l 635 346 q 710 127 640 196 q 916 59 781 59 q 1116 94 1003 59 l 1116 21 q 908 -13 1007 -13 q 608 128 692 -13 q 469 20 541 51 q 317 -12 397 -12 q 189 13 243 -12 q 106 82 135 37 q 77 191 77 128 q 148 351 77 292 q 372 410 219 410 l 552 410 l 552 503 q 528 617 552 576 q 458 675 504 658 q 340 691 413 691 q 234 682 290 691 q 124 655 178 674 l 124 728 q 230 755 172 746 q 346 763 289 763 q 519 730 453 763 q 609 619 584 696 q 708 728 645 692 q 858 764 771 764 q 1076 667 999 764 q 1153 376 1153 569 l 1153 346 m 855 697 q 695 628 751 697 q 635 410 639 560 l 1070 410 q 1013 628 1067 560 q 855 697 958 697 m 330 58 q 463 89 399 58 q 579 190 527 120 q 553 347 556 257 l 372 347 q 165 197 165 347 q 206 94 165 130 q 330 58 248 58 z "},"ǽ":{"ha":1216,"x_min":77,"x_max":1153,"o":"m 1153 346 l 635 346 q 710 127 640 196 q 916 59 781 59 q 1116 94 1003 59 l 1116 21 q 908 -13 1007 -13 q 608 128 692 -13 q 469 20 541 51 q 317 -12 397 -12 q 189 13 243 -12 q 106 82 135 37 q 77 191 77 128 q 148 351 77 292 q 372 410 219 410 l 552 410 l 552 503 q 528 617 552 576 q 458 675 504 658 q 340 691 413 691 q 234 682 290 691 q 124 655 178 674 l 124 728 q 230 755 172 746 q 346 763 289 763 q 519 730 453 763 q 609 619 584 696 q 708 728 645 692 q 858 764 771 764 q 1076 667 999 764 q 1153 376 1153 569 l 1153 346 m 855 697 q 695 628 751 697 q 635 410 639 560 l 1070 410 q 1013 628 1067 560 q 855 697 958 697 m 330 58 q 463 89 399 58 q 579 190 527 120 q 553 347 556 257 l 372 347 q 165 197 165 347 q 206 94 165 130 q 330 58 248 58 m 554 873 l 722 1122 l 817 1122 l 635 873 l 554 873 z "},"b":{"ha":822,"x_min":119,"x_max":746,"o":"m 359 -12 q 119 22 232 -12 l 119 1122 l 204 1122 l 204 669 l 210 669 q 310 738 251 713 q 440 763 369 763 q 598 725 529 763 q 706 604 667 687 q 746 390 746 521 q 648 88 746 189 q 359 -12 551 -12 m 365 59 q 585 137 512 59 q 658 382 658 215 q 595 617 658 547 q 420 688 531 688 q 300 664 356 688 q 204 590 244 640 l 204 81 q 365 59 279 59 z "},"c":{"ha":637,"x_min":76,"x_max":606,"o":"m 413 -13 q 76 376 76 -13 q 169 669 76 574 q 442 763 262 763 q 606 742 532 763 l 606 667 q 449 689 527 689 q 290 657 352 689 q 196 557 227 626 q 165 378 165 489 q 229 136 165 211 q 424 62 294 62 q 606 97 506 62 l 606 22 q 413 -13 511 -13 z "},"ć":{"ha":637,"x_min":76,"x_max":606,"o":"m 413 -13 q 76 376 76 -13 q 169 669 76 574 q 442 763 262 763 q 606 742 532 763 l 606 667 q 449 689 527 689 q 290 657 352 689 q 196 557 227 626 q 165 378 165 489 q 229 136 165 211 q 424 62 294 62 q 606 97 506 62 l 606 22 q 413 -13 511 -13 m 338 873 l 506 1122 l 601 1122 l 419 873 l 338 873 z "},"č":{"ha":637,"x_min":76,"x_max":606,"o":"m 413 -13 q 76 376 76 -13 q 169 669 76 574 q 442 763 262 763 q 606 742 532 763 l 606 667 q 449 689 527 689 q 290 657 352 689 q 196 557 227 626 q 165 378 165 489 q 229 136 165 211 q 424 62 294 62 q 606 97 506 62 l 606 22 q 413 -13 511 -13 m 515 1122 l 591 1122 l 419 873 l 338 873 l 166 1122 l 242 1122 l 378 920 l 515 1122 z "},"ç":{"ha":637,"x_min":76,"x_max":606,"o":"m 449 689 q 290 657 352 689 q 196 557 227 626 q 165 378 165 489 q 229 136 165 211 q 424 62 294 62 q 606 97 506 62 l 606 22 q 413 -13 511 -13 l 407 -13 l 407 -74 q 491 -106 461 -78 q 520 -179 520 -133 q 484 -257 520 -229 q 383 -284 449 -284 q 317 -277 350 -284 q 260 -258 284 -271 l 260 -209 q 381 -237 317 -237 q 444 -223 424 -237 q 465 -177 465 -208 q 444 -131 465 -146 q 380 -116 423 -116 l 353 -116 l 353 -10 q 76 376 76 23 q 169 669 76 574 q 442 763 262 763 q 606 742 532 763 l 606 667 q 449 689 527 689 z "},"ḉ":{"ha":637,"x_min":76,"x_max":606,"o":"m 601 1122 l 419 873 l 338 873 l 506 1122 l 601 1122 m 449 689 q 290 657 352 689 q 196 557 227 626 q 165 378 165 489 q 229 136 165 211 q 424 62 294 62 q 606 97 506 62 l 606 22 q 413 -13 511 -13 l 407 -13 l 407 -74 q 491 -106 461 -78 q 520 -179 520 -133 q 484 -257 520 -229 q 383 -284 449 -284 q 317 -277 350 -284 q 260 -258 284 -271 l 260 -209 q 381 -237 317 -237 q 444 -223 424 -237 q 465 -177 465 -208 q 444 -131 465 -146 q 380 -116 423 -116 l 353 -116 l 353 -10 q 76 376 76 23 q 169 669 76 574 q 442 763 262 763 q 606 742 532 763 l 606 667 q 449 689 527 689 z "},"ĉ":{"ha":637,"x_min":76,"x_max":606,"o":"m 413 -13 q 76 376 76 -13 q 169 669 76 574 q 442 763 262 763 q 606 742 532 763 l 606 667 q 449 689 527 689 q 290 657 352 689 q 196 557 227 626 q 165 378 165 489 q 229 136 165 211 q 424 62 294 62 q 606 97 506 62 l 606 22 q 413 -13 511 -13 m 587 873 l 512 873 l 378 1074 l 245 873 l 170 873 l 338 1122 l 419 1122 l 587 873 z "},"ċ":{"ha":637,"x_min":76,"x_max":606,"o":"m 413 -13 q 76 376 76 -13 q 169 669 76 574 q 442 763 262 763 q 606 742 532 763 l 606 667 q 449 689 527 689 q 290 657 352 689 q 196 557 227 626 q 165 378 165 489 q 229 136 165 211 q 424 62 294 62 q 606 97 506 62 l 606 22 q 413 -13 511 -13 m 378 928 q 332 944 349 928 q 315 987 315 960 q 332 1031 315 1015 q 378 1047 349 1047 q 425 1031 408 1047 q 442 987 442 1015 q 425 944 442 960 q 378 928 408 928 z "},"d":{"ha":822,"x_min":76,"x_max":703,"o":"m 389 -12 q 226 26 297 -12 q 116 149 156 65 q 76 360 76 232 q 469 763 76 763 q 618 750 538 763 l 618 1122 l 703 1122 l 703 0 l 630 0 l 624 87 l 617 87 q 518 14 577 40 q 389 -12 460 -12 m 406 63 q 524 88 468 63 q 618 168 579 114 l 618 674 q 547 686 587 682 q 467 691 507 691 q 238 613 313 691 q 163 369 163 535 q 226 134 163 205 q 406 63 290 63 z "},"ð":{"ha":807,"x_min":76,"x_max":730,"o":"m 556 918 q 683 668 637 803 q 730 401 730 534 q 643 90 730 192 q 405 -13 557 -13 q 163 82 249 -13 q 76 376 76 178 q 116 593 76 507 q 228 721 156 680 q 399 763 301 763 q 590 696 517 763 q 472 904 545 808 l 155 853 l 145 910 l 430 957 q 244 1122 349 1048 l 353 1122 q 515 971 442 1060 l 703 1001 l 713 944 l 556 918 m 405 59 q 581 135 519 59 q 644 374 644 211 q 582 617 644 542 q 403 691 519 691 q 225 617 288 691 q 163 377 163 544 q 225 133 163 208 q 405 59 288 59 z "},"ď":{"ha":822,"x_min":76,"x_max":856,"o":"m 389 -12 q 226 26 297 -12 q 116 149 156 65 q 76 360 76 232 q 469 763 76 763 q 618 750 538 763 l 618 1122 l 703 1122 l 703 0 l 630 0 l 624 87 l 617 87 q 518 14 577 40 q 389 -12 460 -12 m 406 63 q 524 88 468 63 q 618 168 579 114 l 618 674 q 547 686 587 682 q 467 691 507 691 q 238 613 313 691 q 163 369 163 535 q 226 134 163 205 q 406 63 290 63 m 776 819 q 790 1122 790 935 l 856 1122 q 849 966 856 1046 q 826 819 842 887 l 776 819 z "},"đ":{"ha":822,"x_min":76,"x_max":814,"o":"m 814 910 l 703 910 l 703 0 l 630 0 l 624 87 l 617 87 q 518 14 577 40 q 389 -12 460 -12 q 226 26 297 -12 q 116 149 156 65 q 76 360 76 232 q 469 763 76 763 q 618 750 538 763 l 618 910 l 347 910 l 347 972 l 618 972 l 618 1122 l 703 1122 l 703 972 l 814 972 l 814 910 m 618 674 q 547 686 587 682 q 467 691 507 691 q 238 613 313 691 q 163 369 163 535 q 226 134 163 205 q 406 63 290 63 q 524 88 468 63 q 618 168 579 114 l 618 674 z "},"ḍ":{"ha":822,"x_min":76,"x_max":703,"o":"m 389 -12 q 226 26 297 -12 q 116 149 156 65 q 76 360 76 232 q 469 763 76 763 q 618 750 538 763 l 618 1122 l 703 1122 l 703 0 l 630 0 l 624 87 l 617 87 q 518 14 577 40 q 389 -12 460 -12 m 406 63 q 524 88 468 63 q 618 168 579 114 l 618 674 q 547 686 587 682 q 467 691 507 691 q 238 613 313 691 q 163 369 163 535 q 226 134 163 205 q 406 63 290 63 m 411 -235 q 368 -220 384 -235 q 351 -178 351 -204 q 368 -135 351 -151 q 411 -119 384 -119 q 455 -135 438 -119 q 471 -178 471 -151 q 455 -220 471 -204 q 411 -235 438 -235 z "},"ḏ":{"ha":822,"x_min":76,"x_max":703,"o":"m 389 -12 q 226 26 297 -12 q 116 149 156 65 q 76 360 76 232 q 469 763 76 763 q 618 750 538 763 l 618 1122 l 703 1122 l 703 0 l 630 0 l 624 87 l 617 87 q 518 14 577 40 q 389 -12 460 -12 m 406 63 q 524 88 468 63 q 618 168 579 114 l 618 674 q 547 686 587 682 q 467 691 507 691 q 238 613 313 691 q 163 369 163 535 q 226 134 163 205 q 406 63 290 63 m 213 -209 l 213 -148 l 610 -148 l 610 -209 l 213 -209 z "},"ǳ":{"ha":1486,"x_min":76,"x_max":1446,"o":"m 389 -12 q 226 26 297 -12 q 116 149 156 65 q 76 360 76 232 q 469 763 76 763 q 618 750 538 763 l 618 1122 l 703 1122 l 703 0 l 630 0 l 624 87 l 617 87 q 518 14 577 40 q 389 -12 460 -12 m 406 63 q 524 88 468 63 q 618 168 579 114 l 618 674 q 547 686 587 682 q 467 691 507 691 q 238 613 313 691 q 163 369 163 535 q 226 134 163 205 q 406 63 290 63 m 978 72 l 1446 72 l 1446 0 l 867 0 l 867 52 l 1326 680 l 876 680 l 876 752 l 1437 752 l 1437 700 l 978 72 z "},"ǆ":{"ha":1486,"x_min":76,"x_max":1446,"o":"m 389 -12 q 226 26 297 -12 q 116 149 156 65 q 76 360 76 232 q 469 763 76 763 q 618 750 538 763 l 618 1122 l 703 1122 l 703 0 l 630 0 l 624 87 l 617 87 q 518 14 577 40 q 389 -12 460 -12 m 406 63 q 524 88 468 63 q 618 168 579 114 l 618 674 q 547 686 587 682 q 467 691 507 691 q 238 613 313 691 q 163 369 163 535 q 226 134 163 205 q 406 63 290 63 m 978 72 l 1446 72 l 1446 0 l 867 0 l 867 52 l 1326 680 l 876 680 l 876 752 l 1437 752 l 1437 700 l 978 72 m 1293 1122 l 1369 1122 l 1197 873 l 1116 873 l 944 1122 l 1019 1122 l 1156 920 l 1293 1122 z "},"e":{"ha":749,"x_min":76,"x_max":686,"o":"m 686 346 l 163 346 q 239 127 168 195 q 447 59 309 59 q 649 94 535 59 l 649 21 q 438 -13 538 -13 q 168 82 260 -13 q 76 376 76 176 q 158 666 76 568 q 387 763 240 763 q 609 666 532 763 q 686 375 686 569 l 686 346 m 386 697 q 223 628 280 697 q 163 410 167 560 l 603 410 q 546 628 601 559 q 386 697 491 697 z "},"é":{"ha":749,"x_min":76,"x_max":686,"o":"m 686 346 l 163 346 q 239 127 168 195 q 447 59 309 59 q 649 94 535 59 l 649 21 q 438 -13 538 -13 q 168 82 260 -13 q 76 376 76 176 q 158 666 76 568 q 387 763 240 763 q 609 666 532 763 q 686 375 686 569 l 686 346 m 386 697 q 223 628 280 697 q 163 410 167 560 l 603 410 q 546 628 601 559 q 386 697 491 697 m 348 873 l 516 1122 l 611 1122 l 428 873 l 348 873 z "},"ĕ":{"ha":749,"x_min":76,"x_max":686,"o":"m 686 346 l 163 346 q 239 127 168 195 q 447 59 309 59 q 649 94 535 59 l 649 21 q 438 -13 538 -13 q 168 82 260 -13 q 76 376 76 176 q 158 666 76 568 q 387 763 240 763 q 609 666 532 763 q 686 375 686 569 l 686 346 m 386 697 q 223 628 280 697 q 163 410 167 560 l 603 410 q 546 628 601 559 q 386 697 491 697 m 390 881 q 237 941 292 881 q 177 1103 182 1000 l 238 1103 q 390 937 249 937 q 498 980 462 937 q 538 1103 533 1023 l 599 1103 q 541 940 594 999 q 390 881 487 881 z "},"ě":{"ha":749,"x_min":76,"x_max":686,"o":"m 686 346 l 163 346 q 239 127 168 195 q 447 59 309 59 q 649 94 535 59 l 649 21 q 438 -13 538 -13 q 168 82 260 -13 q 76 376 76 176 q 158 666 76 568 q 387 763 240 763 q 609 666 532 763 q 686 375 686 569 l 686 346 m 386 697 q 223 628 280 697 q 163 410 167 560 l 603 410 q 546 628 601 559 q 386 697 491 697 m 525 1122 l 601 1122 l 428 873 l 348 873 l 176 1122 l 251 1122 l 388 920 l 525 1122 z "},"ḝ":{"ha":749,"x_min":76,"x_max":686,"o":"m 390 881 q 237 941 292 881 q 177 1103 182 1000 l 238 1103 q 390 937 249 937 q 498 980 462 937 q 538 1103 533 1023 l 599 1103 q 541 940 594 999 q 390 881 487 881 m 686 346 l 163 346 q 239 127 168 195 q 447 59 309 59 q 649 94 535 59 l 649 21 q 438 -13 538 -13 l 417 -13 l 417 -74 q 501 -106 472 -78 q 531 -179 531 -133 q 495 -257 531 -229 q 393 -284 459 -284 q 327 -277 360 -284 q 271 -258 294 -271 l 271 -209 q 392 -237 328 -237 q 455 -223 434 -237 q 476 -177 476 -208 q 455 -131 476 -146 q 390 -116 433 -116 l 364 -116 l 364 -9 q 149 104 222 10 q 76 376 76 199 q 158 666 76 568 q 387 763 240 763 q 609 666 532 763 q 686 375 686 569 l 686 346 m 386 697 q 223 628 280 697 q 163 410 167 560 l 603 410 q 546 628 601 559 q 386 697 491 697 z "},"ê":{"ha":749,"x_min":76,"x_max":686,"o":"m 686 346 l 163 346 q 239 127 168 195 q 447 59 309 59 q 649 94 535 59 l 649 21 q 438 -13 538 -13 q 168 82 260 -13 q 76 376 76 176 q 158 666 76 568 q 387 763 240 763 q 609 666 532 763 q 686 375 686 569 l 686 346 m 386 697 q 223 628 280 697 q 163 410 167 560 l 603 410 q 546 628 601 559 q 386 697 491 697 m 597 873 l 522 873 l 388 1074 l 255 873 l 180 873 l 348 1122 l 428 1122 l 597 873 z "},"ế":{"ha":749,"x_min":76,"x_max":765,"o":"m 686 346 l 163 346 q 239 127 168 195 q 447 59 309 59 q 649 94 535 59 l 649 21 q 438 -13 538 -13 q 168 82 260 -13 q 76 376 76 176 q 158 666 76 568 q 387 763 240 763 q 609 666 532 763 q 686 375 686 569 l 686 346 m 386 697 q 223 628 280 697 q 163 410 167 560 l 603 410 q 546 628 601 559 q 386 697 491 697 m 679 1297 l 765 1297 l 611 1108 l 540 1108 l 679 1297 m 348 1122 l 428 1122 l 597 873 l 522 873 l 388 1074 l 255 873 l 180 873 l 348 1122 z "},"ệ":{"ha":749,"x_min":76,"x_max":686,"o":"m 686 346 l 163 346 q 239 127 168 195 q 447 59 309 59 q 649 94 535 59 l 649 21 q 438 -13 538 -13 q 168 82 260 -13 q 76 376 76 176 q 158 666 76 568 q 387 763 240 763 q 609 666 532 763 q 686 375 686 569 l 686 346 m 386 697 q 223 628 280 697 q 163 410 167 560 l 603 410 q 546 628 601 559 q 386 697 491 697 m 388 -235 q 345 -220 361 -235 q 328 -178 328 -204 q 345 -135 328 -151 q 388 -119 361 -119 q 432 -135 415 -119 q 448 -178 448 -151 q 432 -220 448 -204 q 388 -235 415 -235 m 597 873 l 522 873 l 388 1074 l 255 873 l 180 873 l 348 1122 l 428 1122 l 597 873 z "},"ề":{"ha":749,"x_min":76,"x_max":686,"o":"m 686 346 l 163 346 q 239 127 168 195 q 447 59 309 59 q 649 94 535 59 l 649 21 q 438 -13 538 -13 q 168 82 260 -13 q 76 376 76 176 q 158 666 76 568 q 387 763 240 763 q 609 666 532 763 q 686 375 686 569 l 686 346 m 386 697 q 223 628 280 697 q 163 410 167 560 l 603 410 q 546 628 601 559 q 386 697 491 697 m 628 1108 l 557 1108 l 403 1297 l 489 1297 l 628 1108 m 348 1122 l 428 1122 l 597 873 l 522 873 l 388 1074 l 255 873 l 180 873 l 348 1122 z "},"ể":{"ha":749,"x_min":76,"x_max":717,"o":"m 686 346 l 163 346 q 239 127 168 195 q 447 59 309 59 q 649 94 535 59 l 649 21 q 438 -13 538 -13 q 168 82 260 -13 q 76 376 76 176 q 158 666 76 568 q 387 763 240 763 q 609 666 532 763 q 686 375 686 569 l 686 346 m 386 697 q 223 628 280 697 q 163 410 167 560 l 603 410 q 546 628 601 559 q 386 697 491 697 m 581 1300 q 684 1280 651 1300 q 717 1224 717 1260 q 701 1184 717 1197 q 654 1157 685 1170 q 615 1135 628 1145 q 599 1108 601 1126 l 541 1108 q 561 1152 542 1137 q 613 1181 580 1167 q 650 1199 638 1190 q 661 1220 661 1207 q 642 1246 661 1237 q 577 1255 624 1255 q 506 1249 538 1255 q 435 1232 473 1244 l 435 1276 q 581 1300 496 1300 m 348 1122 l 428 1122 l 597 873 l 522 873 l 388 1074 l 255 873 l 180 873 l 348 1122 z "},"ễ":{"ha":749,"x_min":76,"x_max":686,"o":"m 686 346 l 163 346 q 239 127 168 195 q 447 59 309 59 q 649 94 535 59 l 649 21 q 438 -13 538 -13 q 168 82 260 -13 q 76 376 76 176 q 158 666 76 568 q 387 763 240 763 q 609 666 532 763 q 686 375 686 569 l 686 346 m 386 697 q 223 628 280 697 q 163 410 167 560 l 603 410 q 546 628 601 559 q 386 697 491 697 m 493 1211 q 556 1223 528 1211 q 610 1259 583 1234 l 610 1198 q 492 1156 567 1156 q 438 1163 464 1156 q 377 1183 413 1169 q 325 1200 346 1194 q 283 1206 304 1206 q 221 1195 249 1206 q 167 1158 193 1183 l 167 1219 q 284 1263 210 1263 q 339 1255 313 1263 q 399 1235 365 1248 q 453 1217 435 1222 q 493 1211 472 1211 m 347 1114 l 429 1114 l 599 874 l 523 874 l 388 1070 l 253 874 l 177 874 l 347 1114 z "},"ȅ":{"ha":749,"x_min":76,"x_max":686,"o":"m 686 346 l 163 346 q 239 127 168 195 q 447 59 309 59 q 649 94 535 59 l 649 21 q 438 -13 538 -13 q 168 82 260 -13 q 76 376 76 176 q 158 666 76 568 q 387 763 240 763 q 609 666 532 763 q 686 375 686 569 l 686 346 m 386 697 q 223 628 280 697 q 163 410 167 560 l 603 410 q 546 628 601 559 q 386 697 491 697 m 235 873 l 117 1122 l 194 1122 l 306 873 l 235 873 m 471 873 l 353 1122 l 430 1122 l 542 873 l 471 873 z "},"ë":{"ha":749,"x_min":76,"x_max":686,"o":"m 686 346 l 163 346 q 239 127 168 195 q 447 59 309 59 q 649 94 535 59 l 649 21 q 438 -13 538 -13 q 168 82 260 -13 q 76 376 76 176 q 158 666 76 568 q 387 763 240 763 q 609 666 532 763 q 686 375 686 569 l 686 346 m 386 697 q 223 628 280 697 q 163 410 167 560 l 603 410 q 546 628 601 559 q 386 697 491 697 m 228 929 q 185 945 201 929 q 169 987 169 960 q 185 1030 169 1014 q 228 1047 201 1047 q 272 1030 256 1047 q 288 987 288 1014 q 272 945 288 960 q 228 929 256 929 m 548 929 q 505 945 521 929 q 488 987 488 960 q 505 1030 488 1014 q 548 1047 521 1047 q 591 1030 575 1047 q 608 987 608 1014 q 591 945 608 960 q 548 929 575 929 z "},"ė":{"ha":749,"x_min":76,"x_max":686,"o":"m 686 346 l 163 346 q 239 127 168 195 q 447 59 309 59 q 649 94 535 59 l 649 21 q 438 -13 538 -13 q 168 82 260 -13 q 76 376 76 176 q 158 666 76 568 q 387 763 240 763 q 609 666 532 763 q 686 375 686 569 l 686 346 m 386 697 q 223 628 280 697 q 163 410 167 560 l 603 410 q 546 628 601 559 q 386 697 491 697 m 388 928 q 342 944 358 928 q 325 987 325 960 q 342 1031 325 1015 q 388 1047 359 1047 q 434 1031 417 1047 q 451 987 451 1015 q 435 944 451 960 q 388 928 418 928 z "},"ẹ":{"ha":749,"x_min":76,"x_max":686,"o":"m 686 346 l 163 346 q 239 127 168 195 q 447 59 309 59 q 649 94 535 59 l 649 21 q 438 -13 538 -13 q 168 82 260 -13 q 76 376 76 176 q 158 666 76 568 q 387 763 240 763 q 609 666 532 763 q 686 375 686 569 l 686 346 m 386 697 q 223 628 280 697 q 163 410 167 560 l 603 410 q 546 628 601 559 q 386 697 491 697 m 388 -235 q 345 -220 361 -235 q 328 -178 328 -204 q 345 -135 328 -151 q 388 -119 361 -119 q 432 -135 415 -119 q 448 -178 448 -151 q 432 -220 448 -204 q 388 -235 415 -235 z "},"è":{"ha":749,"x_min":76,"x_max":686,"o":"m 686 346 l 163 346 q 239 127 168 195 q 447 59 309 59 q 649 94 535 59 l 649 21 q 438 -13 538 -13 q 168 82 260 -13 q 76 376 76 176 q 158 666 76 568 q 387 763 240 763 q 609 666 532 763 q 686 375 686 569 l 686 346 m 386 697 q 223 628 280 697 q 163 410 167 560 l 603 410 q 546 628 601 559 q 386 697 491 697 m 348 873 l 165 1122 l 260 1122 l 428 873 l 348 873 z "},"ẻ":{"ha":749,"x_min":76,"x_max":686,"o":"m 686 346 l 163 346 q 239 127 168 195 q 447 59 309 59 q 649 94 535 59 l 649 21 q 438 -13 538 -13 q 168 82 260 -13 q 76 376 76 176 q 158 666 76 568 q 387 763 240 763 q 609 666 532 763 q 686 375 686 569 l 686 346 m 386 697 q 223 628 280 697 q 163 410 167 560 l 603 410 q 546 628 601 559 q 386 697 491 697 m 360 873 q 371 918 360 899 q 395 949 381 938 q 430 976 408 961 q 465 1003 453 992 q 476 1032 476 1015 q 454 1069 476 1058 q 386 1081 432 1081 q 327 1077 358 1081 q 272 1065 297 1073 l 272 1114 q 326 1126 295 1122 q 386 1131 357 1131 q 533 1035 533 1131 q 518 985 533 1003 q 474 948 503 967 q 433 915 447 931 q 417 873 419 899 l 360 873 z "},"ȇ":{"ha":749,"x_min":76,"x_max":686,"o":"m 686 346 l 163 346 q 239 127 168 195 q 447 59 309 59 q 649 94 535 59 l 649 21 q 438 -13 538 -13 q 168 82 260 -13 q 76 376 76 176 q 158 666 76 568 q 387 763 240 763 q 609 666 532 763 q 686 375 686 569 l 686 346 m 386 697 q 223 628 280 697 q 163 410 167 560 l 603 410 q 546 628 601 559 q 386 697 491 697 m 177 892 q 235 1056 182 997 q 387 1115 289 1115 q 539 1056 484 1115 q 599 892 594 996 l 538 892 q 495 1015 533 972 q 387 1058 458 1058 q 238 892 248 1058 l 177 892 z "},"ē":{"ha":749,"x_min":76,"x_max":686,"o":"m 686 346 l 163 346 q 239 127 168 195 q 447 59 309 59 q 649 94 535 59 l 649 21 q 438 -13 538 -13 q 168 82 260 -13 q 76 376 76 176 q 158 666 76 568 q 387 763 240 763 q 609 666 532 763 q 686 375 686 569 l 686 346 m 386 697 q 223 628 280 697 q 163 410 167 560 l 603 410 q 546 628 601 559 q 386 697 491 697 m 169 958 l 169 1019 l 607 1019 l 607 958 l 169 958 z "},"ḗ":{"ha":749,"x_min":76,"x_max":686,"o":"m 686 346 l 163 346 q 239 127 168 195 q 447 59 309 59 q 649 94 535 59 l 649 21 q 438 -13 538 -13 q 168 82 260 -13 q 76 376 76 176 q 158 666 76 568 q 387 763 240 763 q 609 666 532 763 q 686 375 686 569 l 686 346 m 386 697 q 223 628 280 697 q 163 410 167 560 l 603 410 q 546 628 601 559 q 386 697 491 697 m 169 958 l 169 1019 l 607 1019 l 607 958 l 169 958 m 348 1117 l 487 1311 l 583 1311 l 428 1117 l 348 1117 z "},"ḕ":{"ha":749,"x_min":76,"x_max":686,"o":"m 686 346 l 163 346 q 239 127 168 195 q 447 59 309 59 q 649 94 535 59 l 649 21 q 438 -13 538 -13 q 168 82 260 -13 q 76 376 76 176 q 158 666 76 568 q 387 763 240 763 q 609 666 532 763 q 686 375 686 569 l 686 346 m 386 697 q 223 628 280 697 q 163 410 167 560 l 603 410 q 546 628 601 559 q 386 697 491 697 m 169 958 l 169 1019 l 607 1019 l 607 958 l 169 958 m 348 1117 l 194 1311 l 290 1311 l 428 1117 l 348 1117 z "},"ę":{"ha":749,"x_min":76,"x_max":686,"o":"m 686 346 l 163 346 q 239 127 168 195 q 447 59 309 59 q 649 94 535 59 l 649 21 q 447 -156 447 -43 q 472 -215 447 -194 q 540 -237 497 -237 q 649 -207 593 -237 l 649 -256 q 594 -277 624 -269 q 535 -284 564 -284 q 428 -251 467 -284 q 390 -160 390 -218 q 412 -78 390 -116 q 477 -12 434 -40 q 438 -13 451 -13 q 168 82 260 -13 q 76 376 76 176 q 158 666 76 568 q 387 763 240 763 q 609 666 532 763 q 686 375 686 569 l 686 346 m 386 696 q 223 627 280 696 q 163 408 166 558 l 603 408 q 546 627 601 558 q 386 696 491 696 z "},"ẽ":{"ha":749,"x_min":76,"x_max":686,"o":"m 686 346 l 163 346 q 239 127 168 195 q 447 59 309 59 q 649 94 535 59 l 649 21 q 438 -13 538 -13 q 168 82 260 -13 q 76 376 76 176 q 158 666 76 568 q 387 763 240 763 q 609 666 532 763 q 686 375 686 569 l 686 346 m 386 697 q 223 628 280 697 q 163 410 167 560 l 603 410 q 546 628 601 559 q 386 697 491 697 m 490 944 q 438 951 463 944 q 376 974 413 959 q 324 993 344 987 q 285 999 305 999 q 223 986 251 999 q 169 947 195 974 l 169 1015 q 286 1059 213 1059 q 339 1051 314 1059 q 400 1029 364 1044 q 452 1010 433 1016 q 491 1004 471 1004 q 553 1017 526 1004 q 607 1056 581 1029 l 607 988 q 490 944 564 944 z "},"ə":{"ha":749,"x_min":63,"x_max":673,"o":"m 311 765 q 581 670 490 765 q 673 376 673 576 q 591 86 673 184 q 363 -11 510 -11 q 140 86 217 -11 q 63 377 63 183 l 63 406 l 586 406 q 511 625 581 557 q 302 693 440 693 q 101 658 215 693 l 101 731 q 311 765 212 765 m 363 55 q 526 124 469 55 q 586 342 583 192 l 146 342 q 203 124 149 193 q 363 55 258 55 z "},"f":{"ha":520,"x_min":14,"x_max":552,"o":"m 450 1063 q 300 1017 348 1063 q 252 865 252 971 l 252 752 l 522 752 l 522 680 l 252 680 l 252 0 l 167 0 l 167 680 l 14 680 l 14 752 l 167 752 l 167 859 q 445 1136 167 1136 q 552 1127 497 1136 l 552 1053 q 450 1063 499 1063 z "},"g":{"ha":822,"x_min":76,"x_max":703,"o":"m 356 -319 q 239 -310 301 -319 q 125 -283 176 -300 l 125 -208 q 353 -247 244 -247 q 503 -221 445 -247 q 590 -139 561 -196 q 618 13 618 -83 l 618 84 l 613 84 q 513 14 572 40 q 381 -11 453 -11 q 225 27 293 -11 q 116 148 156 65 q 76 361 76 231 q 174 663 76 563 q 465 763 272 763 q 703 729 590 763 l 703 24 q 664 -173 703 -97 q 549 -284 626 -249 q 356 -319 473 -319 m 402 64 q 521 89 465 64 q 618 163 578 113 l 618 672 q 458 691 548 691 q 237 613 310 691 q 163 369 163 535 q 227 134 163 205 q 402 64 290 64 z "},"ǵ":{"ha":822,"x_min":76,"x_max":703,"o":"m 356 -319 q 239 -310 301 -319 q 125 -283 176 -300 l 125 -208 q 353 -247 244 -247 q 503 -221 445 -247 q 590 -139 561 -196 q 618 13 618 -83 l 618 84 l 613 84 q 513 14 572 40 q 381 -11 453 -11 q 225 27 293 -11 q 116 148 156 65 q 76 361 76 231 q 174 663 76 563 q 465 763 272 763 q 703 729 590 763 l 703 24 q 664 -173 703 -97 q 549 -284 626 -249 q 356 -319 473 -319 m 402 64 q 521 89 465 64 q 618 163 578 113 l 618 672 q 458 691 548 691 q 237 613 310 691 q 163 369 163 535 q 227 134 163 205 q 402 64 290 64 m 383 873 l 551 1122 l 647 1122 l 464 873 l 383 873 z "},"ğ":{"ha":822,"x_min":76,"x_max":703,"o":"m 356 -319 q 239 -310 301 -319 q 125 -283 176 -300 l 125 -208 q 353 -247 244 -247 q 503 -221 445 -247 q 590 -139 561 -196 q 618 13 618 -83 l 618 84 l 613 84 q 513 14 572 40 q 381 -11 453 -11 q 225 27 293 -11 q 116 148 156 65 q 76 361 76 231 q 174 663 76 563 q 465 763 272 763 q 703 729 590 763 l 703 24 q 664 -173 703 -97 q 549 -284 626 -249 q 356 -319 473 -319 m 402 64 q 521 89 465 64 q 618 163 578 113 l 618 672 q 458 691 548 691 q 237 613 310 691 q 163 369 163 535 q 227 134 163 205 q 402 64 290 64 m 425 881 q 272 941 327 881 q 213 1103 217 1000 l 274 1103 q 425 937 285 937 q 533 980 497 937 q 574 1103 569 1023 l 635 1103 q 576 940 630 999 q 425 881 522 881 z "},"ǧ":{"ha":822,"x_min":76,"x_max":703,"o":"m 356 -319 q 239 -310 301 -319 q 125 -283 176 -300 l 125 -208 q 353 -247 244 -247 q 503 -221 445 -247 q 590 -139 561 -196 q 618 13 618 -83 l 618 84 l 613 84 q 513 14 572 40 q 381 -11 453 -11 q 225 27 293 -11 q 116 148 156 65 q 76 361 76 231 q 174 663 76 563 q 465 763 272 763 q 703 729 590 763 l 703 24 q 664 -173 703 -97 q 549 -284 626 -249 q 356 -319 473 -319 m 402 64 q 521 89 465 64 q 618 163 578 113 l 618 672 q 458 691 548 691 q 237 613 310 691 q 163 369 163 535 q 227 134 163 205 q 402 64 290 64 m 560 1122 l 636 1122 l 464 873 l 383 873 l 211 1122 l 287 1122 l 424 920 l 560 1122 z "},"ĝ":{"ha":822,"x_min":76,"x_max":703,"o":"m 356 -319 q 239 -310 301 -319 q 125 -283 176 -300 l 125 -208 q 353 -247 244 -247 q 503 -221 445 -247 q 590 -139 561 -196 q 618 13 618 -83 l 618 84 l 613 84 q 513 14 572 40 q 381 -11 453 -11 q 225 27 293 -11 q 116 148 156 65 q 76 361 76 231 q 174 663 76 563 q 465 763 272 763 q 703 729 590 763 l 703 24 q 664 -173 703 -97 q 549 -284 626 -249 q 356 -319 473 -319 m 402 64 q 521 89 465 64 q 618 163 578 113 l 618 672 q 458 691 548 691 q 237 613 310 691 q 163 369 163 535 q 227 134 163 205 q 402 64 290 64 m 632 873 l 557 873 l 424 1074 l 290 873 l 215 873 l 383 1122 l 464 1122 l 632 873 z "},"ģ":{"ha":822,"x_min":76,"x_max":703,"o":"m 356 -319 q 239 -310 301 -319 q 125 -283 176 -300 l 125 -208 q 353 -247 244 -247 q 503 -221 445 -247 q 590 -139 561 -196 q 618 13 618 -83 l 618 84 l 613 84 q 513 14 572 40 q 381 -11 453 -11 q 225 27 293 -11 q 116 148 156 65 q 76 361 76 231 q 174 663 76 563 q 465 763 272 763 q 703 729 590 763 l 703 24 q 664 -173 703 -97 q 549 -284 626 -249 q 356 -319 473 -319 m 402 64 q 521 89 465 64 q 618 163 578 113 l 618 672 q 458 691 548 691 q 237 613 310 691 q 163 369 163 535 q 227 134 163 205 q 402 64 290 64 m 426 1031 q 469 1017 453 1031 q 484 979 484 1003 q 469 942 484 956 q 426 928 453 928 q 379 946 395 928 q 363 998 363 964 q 373 1061 363 1026 q 399 1128 382 1097 l 452 1128 q 426 1031 430 1076 z "},"ġ":{"ha":822,"x_min":76,"x_max":703,"o":"m 356 -319 q 239 -310 301 -319 q 125 -283 176 -300 l 125 -208 q 353 -247 244 -247 q 503 -221 445 -247 q 590 -139 561 -196 q 618 13 618 -83 l 618 84 l 613 84 q 513 14 572 40 q 381 -11 453 -11 q 225 27 293 -11 q 116 148 156 65 q 76 361 76 231 q 174 663 76 563 q 465 763 272 763 q 703 729 590 763 l 703 24 q 664 -173 703 -97 q 549 -284 626 -249 q 356 -319 473 -319 m 402 64 q 521 89 465 64 q 618 163 578 113 l 618 672 q 458 691 548 691 q 237 613 310 691 q 163 369 163 535 q 227 134 163 205 q 402 64 290 64 m 424 928 q 377 944 394 928 q 360 987 360 960 q 377 1031 360 1015 q 424 1047 394 1047 q 470 1031 453 1047 q 487 987 487 1015 q 470 944 487 960 q 424 928 453 928 z "},"ḡ":{"ha":822,"x_min":76,"x_max":703,"o":"m 356 -319 q 239 -310 301 -319 q 125 -283 176 -300 l 125 -208 q 353 -247 244 -247 q 503 -221 445 -247 q 590 -139 561 -196 q 618 13 618 -83 l 618 84 l 613 84 q 513 14 572 40 q 381 -11 453 -11 q 225 27 293 -11 q 116 148 156 65 q 76 361 76 231 q 174 663 76 563 q 465 763 272 763 q 703 729 590 763 l 703 24 q 664 -173 703 -97 q 549 -284 626 -249 q 356 -319 473 -319 m 402 64 q 521 89 465 64 q 618 163 578 113 l 618 672 q 458 691 548 691 q 237 613 310 691 q 163 369 163 535 q 227 134 163 205 q 402 64 290 64 m 205 958 l 205 1019 l 642 1019 l 642 958 l 205 958 z "},"h":{"ha":830,"x_min":119,"x_max":720,"o":"m 119 1122 l 204 1122 l 204 665 l 210 665 q 326 738 260 713 q 467 763 392 763 q 653 699 586 763 q 720 494 720 635 l 720 0 l 635 0 l 635 490 q 587 640 635 594 q 449 685 538 685 q 316 658 381 685 q 204 577 251 631 l 204 0 l 119 0 l 119 1122 z "},"ħ":{"ha":830,"x_min":8,"x_max":720,"o":"m 467 763 q 653 699 586 763 q 720 494 720 635 l 720 0 l 635 0 l 635 490 q 587 640 635 594 q 449 685 538 685 q 316 658 381 685 q 204 577 251 631 l 204 0 l 119 0 l 119 910 l 8 910 l 8 972 l 119 972 l 119 1122 l 204 1122 l 204 972 l 475 972 l 475 910 l 204 910 l 204 665 l 210 665 q 326 738 260 713 q 467 763 392 763 z "},"ḫ":{"ha":830,"x_min":119,"x_max":720,"o":"m 119 1122 l 204 1122 l 204 665 l 210 665 q 326 738 260 713 q 467 763 392 763 q 653 699 586 763 q 720 494 720 635 l 720 0 l 635 0 l 635 490 q 587 640 635 594 q 449 685 538 685 q 316 658 381 685 q 204 577 251 631 l 204 0 l 119 0 l 119 1122 m 422 -286 q 308 -264 355 -286 q 236 -201 260 -241 q 210 -109 211 -161 l 271 -109 q 422 -230 278 -230 q 571 -109 565 -230 l 632 -109 q 576 -238 631 -190 q 422 -286 522 -286 z "},"ĥ":{"ha":830,"x_min":119,"x_max":720,"o":"m 119 1122 l 204 1122 l 204 665 l 210 665 q 326 738 260 713 q 467 763 392 763 q 653 699 586 763 q 720 494 720 635 l 720 0 l 635 0 l 635 490 q 587 640 635 594 q 449 685 538 685 q 316 658 381 685 q 204 577 251 631 l 204 0 l 119 0 l 119 1122 m 646 1185 l 562 1185 l 421 1338 l 280 1185 l 196 1185 l 380 1379 l 462 1379 l 646 1185 z "},"ḥ":{"ha":830,"x_min":119,"x_max":720,"o":"m 119 1122 l 204 1122 l 204 665 l 210 665 q 326 738 260 713 q 467 763 392 763 q 653 699 586 763 q 720 494 720 635 l 720 0 l 635 0 l 635 490 q 587 640 635 594 q 449 685 538 685 q 316 658 381 685 q 204 577 251 631 l 204 0 l 119 0 l 119 1122 m 421 -235 q 377 -220 394 -235 q 361 -178 361 -204 q 377 -135 361 -151 q 421 -119 394 -119 q 464 -135 448 -119 q 481 -178 481 -151 q 464 -220 481 -204 q 421 -235 448 -235 z "},"i":{"ha":324,"x_min":99,"x_max":225,"o":"m 119 0 l 119 752 l 204 752 l 204 0 l 119 0 m 162 928 q 115 944 132 928 q 99 987 99 960 q 116 1031 99 1015 q 162 1047 133 1047 q 208 1031 191 1047 q 225 987 225 1015 q 208 944 225 960 q 162 928 192 928 z "},"ı":{"ha":324,"x_min":119,"x_max":204,"o":"m 119 0 l 119 752 l 204 752 l 204 0 l 119 0 z "},"í":{"ha":324,"x_min":119,"x_max":385,"o":"m 119 0 l 119 752 l 204 752 l 204 0 l 119 0 m 122 873 l 290 1122 l 385 1122 l 202 873 l 122 873 z "},"ĭ":{"ha":324,"x_min":-49,"x_max":373,"o":"m 119 0 l 119 752 l 204 752 l 204 0 l 119 0 m 163 881 q 10 941 65 881 q -49 1103 -44 1000 l 12 1103 q 163 937 23 937 q 271 980 235 937 q 312 1103 307 1023 l 373 1103 q 314 940 368 999 q 163 881 260 881 z "},"î":{"ha":324,"x_min":-47,"x_max":370,"o":"m 119 0 l 119 752 l 204 752 l 204 0 l 119 0 m 370 873 l 295 873 l 162 1074 l 28 873 l -47 873 l 122 1122 l 202 1122 l 370 873 z "},"ȉ":{"ha":324,"x_min":-110,"x_max":315,"o":"m 119 0 l 119 752 l 204 752 l 204 0 l 119 0 m 8 873 l -110 1122 l -33 1122 l 79 873 l 8 873 m 244 873 l 126 1122 l 203 1122 l 315 873 l 244 873 z "},"ï":{"ha":324,"x_min":-58,"x_max":381,"o":"m 119 0 l 119 752 l 204 752 l 204 0 l 119 0 m 2 929 q -41 945 -25 929 q -58 987 -58 960 q -41 1030 -58 1014 q 2 1047 -25 1047 q 45 1030 29 1047 q 62 987 62 1014 q 45 945 62 960 q 2 929 29 929 m 322 929 q 278 945 294 929 q 262 987 262 960 q 278 1030 262 1014 q 322 1047 294 1047 q 365 1030 349 1047 q 381 987 381 1014 q 365 945 381 960 q 322 929 349 929 z "},"ḯ":{"ha":324,"x_min":-58,"x_max":381,"o":"m 119 0 l 119 752 l 204 752 l 204 0 l 119 0 m 2 929 q -41 945 -25 929 q -58 987 -58 960 q -41 1030 -58 1014 q 2 1047 -25 1047 q 45 1030 29 1047 q 62 987 62 1014 q 45 945 62 960 q 2 929 29 929 m 322 929 q 278 945 294 929 q 262 987 262 960 q 278 1030 262 1014 q 322 1047 294 1047 q 365 1030 349 1047 q 381 987 381 1014 q 365 945 381 960 q 322 929 349 929 m 135 1153 l 274 1347 l 370 1347 l 216 1153 l 135 1153 z "},"ị":{"ha":324,"x_min":99,"x_max":225,"o":"m 119 0 l 119 752 l 204 752 l 204 0 l 119 0 m 162 928 q 115 944 132 928 q 99 987 99 960 q 116 1031 99 1015 q 162 1047 133 1047 q 208 1031 191 1047 q 225 987 225 1015 q 208 944 225 960 q 162 928 192 928 m 162 -235 q 118 -220 135 -235 q 102 -178 102 -204 q 118 -135 102 -151 q 162 -119 135 -119 q 205 -135 189 -119 q 222 -178 222 -151 q 205 -220 222 -204 q 162 -235 189 -235 z "},"ì":{"ha":324,"x_min":-61,"x_max":204,"o":"m 119 0 l 119 752 l 204 752 l 204 0 l 119 0 m 122 873 l -61 1122 l 34 1122 l 202 873 l 122 873 z "},"ỉ":{"ha":324,"x_min":46,"x_max":306,"o":"m 119 0 l 119 752 l 204 752 l 204 0 l 119 0 m 133 873 q 144 918 134 899 q 168 949 155 938 q 203 976 182 961 q 238 1003 227 992 q 249 1032 249 1015 q 227 1069 249 1058 q 160 1081 206 1081 q 101 1077 131 1081 q 46 1065 71 1073 l 46 1114 q 100 1126 69 1122 q 160 1131 131 1131 q 306 1035 306 1131 q 291 985 306 1003 q 247 948 276 967 q 206 915 220 931 q 191 873 192 899 l 133 873 z "},"ȋ":{"ha":324,"x_min":-49,"x_max":373,"o":"m 119 0 l 119 752 l 204 752 l 204 0 l 119 0 m -49 892 q 9 1056 -44 997 q 160 1115 63 1115 q 313 1056 258 1115 q 373 892 368 996 l 312 892 q 269 1015 306 972 q 160 1058 232 1058 q 12 892 22 1058 l -49 892 z "},"ī":{"ha":324,"x_min":-57,"x_max":381,"o":"m 119 0 l 119 752 l 204 752 l 204 0 l 119 0 m -57 958 l -57 1019 l 381 1019 l 381 958 l -57 958 z "},"į":{"ha":324,"x_min":13,"x_max":272,"o":"m 162 928 q 115 944 132 928 q 99 987 99 960 q 116 1031 99 1015 q 162 1047 133 1047 q 208 1031 191 1047 q 225 987 225 1015 q 208 944 225 960 q 162 928 192 928 m 163 -237 q 272 -207 217 -237 l 272 -256 q 217 -277 247 -269 q 158 -284 187 -284 q 51 -251 90 -284 q 13 -160 13 -218 q 38 -73 13 -112 q 119 4 64 -33 l 119 752 l 204 752 l 204 0 q 101 -75 132 -38 q 70 -156 70 -111 q 95 -215 70 -194 q 163 -237 119 -237 z "},"ĩ":{"ha":324,"x_min":-57,"x_max":381,"o":"m 119 0 l 119 752 l 204 752 l 204 0 l 119 0 m 264 944 q 211 951 236 944 q 150 974 186 959 q 98 993 117 987 q 59 999 78 999 q -3 986 24 999 q -57 947 -31 974 l -57 1015 q 60 1059 -14 1059 q 113 1051 88 1059 q 174 1029 138 1044 q 225 1010 206 1016 q 265 1004 244 1004 q 327 1017 299 1004 q 381 1056 355 1029 l 381 988 q 264 944 338 944 z "},"j":{"ha":324,"x_min":-15,"x_max":224,"o":"m -15 -281 q 88 -96 56 -190 q 119 117 119 -2 l 119 752 l 204 752 l 204 122 q 166 -114 204 -10 q 42 -321 128 -217 l -15 -281 m 161 934 q 115 950 131 934 q 98 992 98 965 q 115 1036 98 1020 q 161 1053 132 1053 q 207 1036 190 1053 q 224 992 224 1020 q 208 950 224 965 q 161 934 191 934 z "},"ȷ":{"ha":324,"x_min":-15,"x_max":204,"o":"m -15 -281 q 88 -96 56 -190 q 119 117 119 -2 l 119 752 l 204 752 l 204 122 q 166 -114 204 -10 q 42 -321 128 -217 l -15 -281 z "},"ĵ":{"ha":324,"x_min":-47,"x_max":369,"o":"m -15 -281 q 88 -96 56 -190 q 119 117 119 -2 l 119 752 l 204 752 l 204 122 q 166 -114 204 -10 q 42 -321 128 -217 l -15 -281 m 369 878 l 294 878 l 161 1080 l 28 878 l -47 878 l 121 1128 l 201 1128 l 369 878 z "},"k":{"ha":741,"x_min":119,"x_max":751,"o":"m 652 0 l 354 349 l 204 349 l 204 0 l 119 0 l 119 1122 l 204 1122 l 204 422 l 354 422 l 631 752 l 728 752 l 426 386 l 751 0 l 652 0 z "},"ķ":{"ha":741,"x_min":119,"x_max":751,"o":"m 652 0 l 354 349 l 204 349 l 204 0 l 119 0 l 119 1122 l 204 1122 l 204 422 l 354 422 l 631 752 l 728 752 l 426 386 l 751 0 l 652 0 m 394 -119 q 440 -137 424 -119 q 456 -188 456 -154 q 447 -252 456 -217 q 421 -319 438 -287 l 367 -319 q 393 -222 390 -265 q 351 -207 366 -221 q 335 -170 335 -193 q 351 -133 335 -147 q 394 -119 366 -119 z "},"ĸ":{"ha":741,"x_min":119,"x_max":751,"o":"m 652 0 l 354 349 l 204 349 l 204 0 l 119 0 l 119 752 l 204 752 l 204 422 l 354 422 l 631 752 l 728 752 l 426 386 l 751 0 l 652 0 z "},"l":{"ha":324,"x_min":119,"x_max":204,"o":"m 119 0 l 119 1122 l 204 1122 l 204 0 l 119 0 z "},"ĺ":{"ha":324,"x_min":119,"x_max":356,"o":"m 119 0 l 119 1122 l 204 1122 l 204 0 l 119 0 m 122 1185 l 260 1379 l 356 1379 l 202 1185 l 122 1185 z "},"ľ":{"ha":324,"x_min":119,"x_max":358,"o":"m 119 0 l 119 1122 l 204 1122 l 204 0 l 119 0 m 278 819 q 292 1122 292 935 l 358 1122 q 351 966 358 1046 q 328 819 344 887 l 278 819 z "},"ļ":{"ha":324,"x_min":101,"x_max":222,"o":"m 119 0 l 119 1122 l 204 1122 l 204 0 l 119 0 m 160 -119 q 206 -137 190 -119 q 222 -188 222 -154 q 213 -252 222 -217 q 187 -319 203 -287 l 133 -319 q 159 -222 156 -265 q 117 -207 132 -221 q 101 -170 101 -193 q 117 -133 101 -147 q 160 -119 132 -119 z "},"ŀ":{"ha":369,"x_min":119,"x_max":401,"o":"m 119 0 l 119 1122 l 204 1122 l 204 0 l 119 0 m 338 492 q 292 507 308 492 q 275 550 275 523 q 292 594 275 578 q 338 610 309 610 q 384 594 367 610 q 401 550 401 578 q 385 507 401 523 q 338 492 368 492 z "},"ḷ":{"ha":324,"x_min":102,"x_max":222,"o":"m 119 0 l 119 1122 l 204 1122 l 204 0 l 119 0 m 162 -235 q 118 -220 135 -235 q 102 -178 102 -204 q 118 -135 102 -151 q 162 -119 135 -119 q 205 -135 189 -119 q 222 -178 222 -151 q 205 -220 222 -204 q 162 -235 189 -235 z "},"ǉ":{"ha":647,"x_min":119,"x_max":548,"o":"m 119 0 l 119 1122 l 204 1122 l 204 0 l 119 0 m 308 -281 q 411 -96 379 -190 q 443 117 443 -2 l 443 752 l 528 752 l 528 122 q 490 -114 528 -10 q 365 -321 451 -217 l 308 -281 m 485 934 q 438 950 455 934 q 422 992 422 965 q 439 1036 422 1020 q 485 1053 456 1053 q 531 1036 514 1053 q 548 992 548 1020 q 531 950 548 965 q 485 934 515 934 z "},"ḻ":{"ha":324,"x_min":-37,"x_max":360,"o":"m 119 0 l 119 1122 l 204 1122 l 204 0 l 119 0 m -37 -209 l -37 -148 l 360 -148 l 360 -209 l -37 -209 z "},"ł":{"ha":324,"x_min":0,"x_max":326,"o":"m 326 576 l 204 488 l 204 0 l 119 0 l 119 425 l 35 363 l 0 415 l 119 503 l 119 1122 l 204 1122 l 204 565 l 291 628 l 326 576 z "},"m":{"ha":1222,"x_min":119,"x_max":1113,"o":"m 879 763 q 1050 699 988 763 q 1113 494 1113 634 l 1113 0 l 1028 0 l 1028 490 q 984 640 1028 594 q 863 686 941 686 q 751 660 807 686 q 653 580 694 635 q 660 496 660 544 l 660 0 l 576 0 l 576 490 q 534 640 576 594 q 416 686 492 686 q 301 658 358 686 q 204 574 245 631 l 204 0 l 119 0 l 119 752 l 192 752 l 198 663 l 205 663 q 310 738 251 713 q 435 763 369 763 q 631 651 578 763 q 750 736 685 710 q 879 763 815 763 z "},"ṃ":{"ha":1222,"x_min":119,"x_max":1113,"o":"m 879 763 q 1050 699 988 763 q 1113 494 1113 634 l 1113 0 l 1028 0 l 1028 490 q 984 640 1028 594 q 863 686 941 686 q 751 660 807 686 q 653 580 694 635 q 660 496 660 544 l 660 0 l 576 0 l 576 490 q 534 640 576 594 q 416 686 492 686 q 301 658 358 686 q 204 574 245 631 l 204 0 l 119 0 l 119 752 l 192 752 l 198 663 l 205 663 q 310 738 251 713 q 435 763 369 763 q 631 651 578 763 q 750 736 685 710 q 879 763 815 763 m 619 -235 q 575 -220 592 -235 q 559 -178 559 -204 q 575 -135 559 -151 q 619 -119 592 -119 q 662 -135 646 -119 q 678 -178 678 -151 q 662 -220 678 -204 q 619 -235 646 -235 z "},"n":{"ha":830,"x_min":119,"x_max":720,"o":"m 119 752 l 192 752 l 198 663 l 205 663 q 323 738 256 712 q 464 763 390 763 q 652 698 585 763 q 720 491 720 633 l 720 0 l 635 0 l 635 489 q 588 640 635 594 q 449 686 540 686 q 317 660 383 686 q 204 578 251 633 l 204 0 l 119 0 l 119 752 z "},"ń":{"ha":830,"x_min":119,"x_max":720,"o":"m 119 752 l 192 752 l 198 663 l 205 663 q 323 738 256 712 q 464 763 390 763 q 652 698 585 763 q 720 491 720 633 l 720 0 l 635 0 l 635 489 q 588 640 635 594 q 449 686 540 686 q 317 660 383 686 q 204 578 251 633 l 204 0 l 119 0 l 119 752 m 381 873 l 549 1122 l 644 1122 l 461 873 l 381 873 z "},"ŉ":{"ha":830,"x_min":10,"x_max":720,"o":"m 119 752 l 192 752 l 198 663 l 205 663 q 323 738 256 712 q 464 763 390 763 q 652 698 585 763 q 720 491 720 633 l 720 0 l 635 0 l 635 489 q 588 640 635 594 q 449 686 540 686 q 317 660 383 686 q 204 578 251 633 l 204 0 l 119 0 l 119 752 m 68 1128 q 115 1110 99 1128 q 131 1059 131 1093 q 121 995 131 1030 q 95 928 112 960 l 42 928 q 67 1026 64 982 q 25 1040 40 1026 q 10 1077 10 1054 q 25 1114 10 1101 q 68 1128 40 1128 z "},"ň":{"ha":830,"x_min":119,"x_max":720,"o":"m 119 752 l 192 752 l 198 663 l 205 663 q 323 738 256 712 q 464 763 390 763 q 652 698 585 763 q 720 491 720 633 l 720 0 l 635 0 l 635 489 q 588 640 635 594 q 449 686 540 686 q 317 660 383 686 q 204 578 251 633 l 204 0 l 119 0 l 119 752 m 558 1122 l 633 1122 l 461 873 l 381 873 l 208 1122 l 284 1122 l 421 920 l 558 1122 z "},"ņ":{"ha":830,"x_min":119,"x_max":720,"o":"m 119 752 l 192 752 l 198 663 l 205 663 q 323 738 256 712 q 464 763 390 763 q 652 698 585 763 q 720 491 720 633 l 720 0 l 635 0 l 635 489 q 588 640 635 594 q 449 686 540 686 q 317 660 383 686 q 204 578 251 633 l 204 0 l 119 0 l 119 752 m 419 -119 q 465 -137 449 -119 q 481 -188 481 -154 q 472 -252 481 -217 q 446 -319 463 -287 l 392 -319 q 418 -222 415 -265 q 376 -207 391 -221 q 360 -170 360 -193 q 376 -133 360 -147 q 419 -119 391 -119 z "},"ṅ":{"ha":830,"x_min":119,"x_max":720,"o":"m 119 752 l 192 752 l 198 663 l 205 663 q 323 738 256 712 q 464 763 390 763 q 652 698 585 763 q 720 491 720 633 l 720 0 l 635 0 l 635 489 q 588 640 635 594 q 449 686 540 686 q 317 660 383 686 q 204 578 251 633 l 204 0 l 119 0 l 119 752 m 421 928 q 374 944 391 928 q 358 987 358 960 q 375 1031 358 1015 q 421 1047 392 1047 q 467 1031 450 1047 q 484 987 484 1015 q 467 944 484 960 q 421 928 451 928 z "},"ṇ":{"ha":830,"x_min":119,"x_max":720,"o":"m 119 752 l 192 752 l 198 663 l 205 663 q 323 738 256 712 q 464 763 390 763 q 652 698 585 763 q 720 491 720 633 l 720 0 l 635 0 l 635 489 q 588 640 635 594 q 449 686 540 686 q 317 660 383 686 q 204 578 251 633 l 204 0 l 119 0 l 119 752 m 421 -235 q 377 -220 394 -235 q 361 -178 361 -204 q 377 -135 361 -151 q 421 -119 394 -119 q 464 -135 448 -119 q 481 -178 481 -151 q 464 -220 481 -204 q 421 -235 448 -235 z "},"ŋ":{"ha":830,"x_min":119,"x_max":720,"o":"m 501 -281 q 603 -96 572 -190 q 635 117 635 -2 l 635 491 q 587 641 635 595 q 449 687 538 687 q 316 660 381 687 q 204 578 251 633 l 204 0 l 119 0 l 119 752 l 192 752 l 198 663 l 205 663 q 322 738 256 713 q 465 763 389 763 q 653 699 585 763 q 720 494 720 635 l 720 98 q 678 -123 715 -26 q 558 -321 642 -220 l 501 -281 z "},"ǌ":{"ha":1153,"x_min":119,"x_max":1054,"o":"m 119 752 l 192 752 l 198 663 l 205 663 q 323 738 256 712 q 464 763 390 763 q 652 698 585 763 q 720 491 720 633 l 720 0 l 635 0 l 635 489 q 588 640 635 594 q 449 686 540 686 q 317 660 383 686 q 204 578 251 633 l 204 0 l 119 0 l 119 752 m 815 -281 q 917 -96 885 -190 q 949 117 949 -2 l 949 752 l 1034 752 l 1034 122 q 996 -114 1034 -10 q 872 -321 958 -217 l 815 -281 m 991 934 q 944 950 961 934 q 928 992 928 965 q 945 1036 928 1020 q 991 1053 962 1053 q 1037 1036 1020 1053 q 1054 992 1054 1020 q 1038 950 1054 965 q 991 934 1021 934 z "},"ṉ":{"ha":830,"x_min":119,"x_max":720,"o":"m 119 752 l 192 752 l 198 663 l 205 663 q 323 738 256 712 q 464 763 390 763 q 652 698 585 763 q 720 491 720 633 l 720 0 l 635 0 l 635 489 q 588 640 635 594 q 449 686 540 686 q 317 660 383 686 q 204 578 251 633 l 204 0 l 119 0 l 119 752 m 222 -209 l 222 -148 l 619 -148 l 619 -209 l 222 -209 z "},"ñ":{"ha":830,"x_min":119,"x_max":720,"o":"m 119 752 l 192 752 l 198 663 l 205 663 q 323 738 256 712 q 464 763 390 763 q 652 698 585 763 q 720 491 720 633 l 720 0 l 635 0 l 635 489 q 588 640 635 594 q 449 686 540 686 q 317 660 383 686 q 204 578 251 633 l 204 0 l 119 0 l 119 752 m 523 944 q 470 951 495 944 q 409 974 445 959 q 357 993 376 987 q 318 999 338 999 q 256 986 283 999 q 202 947 228 974 l 202 1015 q 319 1059 245 1059 q 372 1051 347 1059 q 433 1029 397 1044 q 484 1010 465 1016 q 524 1004 503 1004 q 586 1017 558 1004 q 640 1056 614 1029 l 640 988 q 523 944 597 944 z "},"o":{"ha":807,"x_min":76,"x_max":731,"o":"m 403 -13 q 163 82 249 -13 q 76 376 76 178 q 163 667 76 572 q 403 763 250 763 q 644 668 558 763 q 731 376 731 574 q 643 83 731 180 q 403 -13 556 -13 m 403 59 q 582 133 519 59 q 644 374 644 208 q 582 617 644 543 q 403 692 519 692 q 225 618 288 692 q 163 377 163 544 q 225 134 163 208 q 403 59 288 59 z "},"ó":{"ha":807,"x_min":76,"x_max":731,"o":"m 403 -13 q 163 82 249 -13 q 76 376 76 178 q 163 667 76 572 q 403 763 250 763 q 644 668 558 763 q 731 376 731 574 q 643 83 731 180 q 403 -13 556 -13 m 403 59 q 582 133 519 59 q 644 374 644 208 q 582 617 644 543 q 403 692 519 692 q 225 618 288 692 q 163 377 163 544 q 225 134 163 208 q 403 59 288 59 m 363 873 l 531 1122 l 626 1122 l 444 873 l 363 873 z "},"ŏ":{"ha":807,"x_min":76,"x_max":731,"o":"m 403 -13 q 163 82 249 -13 q 76 376 76 178 q 163 667 76 572 q 403 763 250 763 q 644 668 558 763 q 731 376 731 574 q 643 83 731 180 q 403 -13 556 -13 m 403 59 q 582 133 519 59 q 644 374 644 208 q 582 617 644 543 q 403 692 519 692 q 225 618 288 692 q 163 377 163 544 q 225 134 163 208 q 403 59 288 59 m 405 881 q 252 941 307 881 q 192 1103 197 1000 l 253 1103 q 405 937 265 937 q 513 980 477 937 q 553 1103 549 1023 l 615 1103 q 556 940 610 999 q 405 881 502 881 z "},"ô":{"ha":807,"x_min":76,"x_max":731,"o":"m 403 -13 q 163 82 249 -13 q 76 376 76 178 q 163 667 76 572 q 403 763 250 763 q 644 668 558 763 q 731 376 731 574 q 643 83 731 180 q 403 -13 556 -13 m 403 59 q 582 133 519 59 q 644 374 644 208 q 582 617 644 543 q 403 692 519 692 q 225 618 288 692 q 163 377 163 544 q 225 134 163 208 q 403 59 288 59 m 612 873 l 537 873 l 403 1074 l 270 873 l 195 873 l 363 1122 l 444 1122 l 612 873 z "},"ố":{"ha":807,"x_min":76,"x_max":781,"o":"m 403 -13 q 163 82 249 -13 q 76 376 76 178 q 163 667 76 572 q 403 763 250 763 q 644 668 558 763 q 731 376 731 574 q 643 83 731 180 q 403 -13 556 -13 m 403 59 q 582 133 519 59 q 644 374 644 208 q 582 617 644 543 q 403 692 519 692 q 225 618 288 692 q 163 377 163 544 q 225 134 163 208 q 403 59 288 59 m 694 1297 l 781 1297 l 626 1108 l 556 1108 l 694 1297 m 363 1122 l 444 1122 l 612 873 l 537 873 l 403 1074 l 270 873 l 195 873 l 363 1122 z "},"ộ":{"ha":807,"x_min":76,"x_max":731,"o":"m 403 -13 q 163 82 249 -13 q 76 376 76 178 q 163 667 76 572 q 403 763 250 763 q 644 668 558 763 q 731 376 731 574 q 643 83 731 180 q 403 -13 556 -13 m 403 59 q 582 133 519 59 q 644 374 644 208 q 582 617 644 543 q 403 692 519 692 q 225 618 288 692 q 163 377 163 544 q 225 134 163 208 q 403 59 288 59 m 403 -235 q 360 -220 376 -235 q 344 -178 344 -204 q 360 -135 344 -151 q 403 -119 376 -119 q 447 -135 431 -119 q 463 -178 463 -151 q 447 -220 463 -204 q 403 -235 431 -235 m 612 873 l 537 873 l 403 1074 l 270 873 l 195 873 l 363 1122 l 444 1122 l 612 873 z "},"ồ":{"ha":807,"x_min":76,"x_max":731,"o":"m 403 -13 q 163 82 249 -13 q 76 376 76 178 q 163 667 76 572 q 403 763 250 763 q 644 668 558 763 q 731 376 731 574 q 643 83 731 180 q 403 -13 556 -13 m 403 59 q 582 133 519 59 q 644 374 644 208 q 582 617 644 543 q 403 692 519 692 q 225 618 288 692 q 163 377 163 544 q 225 134 163 208 q 403 59 288 59 m 643 1108 l 572 1108 l 418 1297 l 504 1297 l 643 1108 m 363 1122 l 444 1122 l 612 873 l 537 873 l 403 1074 l 270 873 l 195 873 l 363 1122 z "},"ổ":{"ha":807,"x_min":76,"x_max":733,"o":"m 403 -13 q 163 82 249 -13 q 76 376 76 178 q 163 667 76 572 q 403 763 250 763 q 644 668 558 763 q 731 376 731 574 q 643 83 731 180 q 403 -13 556 -13 m 403 59 q 582 133 519 59 q 644 374 644 208 q 582 617 644 543 q 403 692 519 692 q 225 618 288 692 q 163 377 163 544 q 225 134 163 208 q 403 59 288 59 m 596 1300 q 699 1280 666 1300 q 733 1224 733 1260 q 717 1184 733 1197 q 669 1157 701 1170 q 630 1135 643 1145 q 615 1108 617 1126 l 556 1108 q 576 1152 558 1137 q 628 1181 595 1167 q 665 1199 653 1190 q 676 1220 676 1207 q 658 1246 676 1237 q 592 1255 639 1255 q 521 1249 553 1255 q 451 1232 488 1244 l 451 1276 q 596 1300 511 1300 m 363 1122 l 444 1122 l 612 873 l 537 873 l 403 1074 l 270 873 l 195 873 l 363 1122 z "},"ỗ":{"ha":807,"x_min":76,"x_max":731,"o":"m 403 -13 q 163 82 249 -13 q 76 376 76 178 q 163 667 76 572 q 403 763 250 763 q 644 668 558 763 q 731 376 731 574 q 643 83 731 180 q 403 -13 556 -13 m 403 59 q 582 133 519 59 q 644 374 644 208 q 582 617 644 543 q 403 692 519 692 q 225 618 288 692 q 163 377 163 544 q 225 134 163 208 q 403 59 288 59 m 508 1211 q 571 1223 543 1211 q 625 1259 599 1234 l 625 1198 q 508 1156 583 1156 q 453 1163 479 1156 q 392 1183 428 1169 q 340 1200 361 1194 q 299 1206 319 1206 q 236 1195 264 1206 q 182 1158 208 1183 l 182 1219 q 299 1263 225 1263 q 354 1255 328 1263 q 415 1235 381 1248 q 469 1217 450 1222 q 508 1211 488 1211 m 363 1114 l 444 1114 l 615 874 l 538 874 l 403 1070 l 269 874 l 192 874 l 363 1114 z "},"ȍ":{"ha":807,"x_min":76,"x_max":731,"o":"m 403 -13 q 163 82 249 -13 q 76 376 76 178 q 163 667 76 572 q 403 763 250 763 q 644 668 558 763 q 731 376 731 574 q 643 83 731 180 q 403 -13 556 -13 m 403 59 q 582 133 519 59 q 644 374 644 208 q 582 617 644 543 q 403 692 519 692 q 225 618 288 692 q 163 377 163 544 q 225 134 163 208 q 403 59 288 59 m 250 873 l 132 1122 l 209 1122 l 321 873 l 250 873 m 486 873 l 368 1122 l 445 1122 l 557 873 l 486 873 z "},"ö":{"ha":807,"x_min":76,"x_max":731,"o":"m 403 -13 q 163 82 249 -13 q 76 376 76 178 q 163 667 76 572 q 403 763 250 763 q 644 668 558 763 q 731 376 731 574 q 643 83 731 180 q 403 -13 556 -13 m 403 59 q 582 133 519 59 q 644 374 644 208 q 582 617 644 543 q 403 692 519 692 q 225 618 288 692 q 163 377 163 544 q 225 134 163 208 q 403 59 288 59 m 244 929 q 200 945 217 929 q 184 987 184 960 q 200 1030 184 1014 q 244 1047 217 1047 q 287 1030 271 1047 q 303 987 303 1014 q 287 945 303 960 q 244 929 271 929 m 563 929 q 520 945 536 929 q 503 987 503 960 q 520 1030 503 1014 q 563 1047 536 1047 q 607 1030 590 1047 q 623 987 623 1014 q 607 945 623 960 q 563 929 590 929 z "},"ȫ":{"ha":807,"x_min":76,"x_max":731,"o":"m 403 -13 q 163 82 249 -13 q 76 376 76 178 q 163 667 76 572 q 403 763 250 763 q 644 668 558 763 q 731 376 731 574 q 643 83 731 180 q 403 -13 556 -13 m 403 59 q 582 133 519 59 q 644 374 644 208 q 582 617 644 543 q 403 692 519 692 q 225 618 288 692 q 163 377 163 544 q 225 134 163 208 q 403 59 288 59 m 244 929 q 200 945 217 929 q 184 987 184 960 q 200 1030 184 1014 q 244 1047 217 1047 q 287 1030 271 1047 q 303 987 303 1014 q 287 945 303 960 q 244 929 271 929 m 563 929 q 520 945 536 929 q 503 987 503 960 q 520 1030 503 1014 q 563 1047 536 1047 q 607 1030 590 1047 q 623 987 623 1014 q 607 945 623 960 q 563 929 590 929 m 185 1157 l 185 1218 l 622 1218 l 622 1157 l 185 1157 z "},"ȱ":{"ha":807,"x_min":76,"x_max":731,"o":"m 403 -13 q 163 82 249 -13 q 76 376 76 178 q 163 667 76 572 q 403 763 250 763 q 644 668 558 763 q 731 376 731 574 q 643 83 731 180 q 403 -13 556 -13 m 403 59 q 582 133 519 59 q 644 374 644 208 q 582 617 644 543 q 403 692 519 692 q 225 618 288 692 q 163 377 163 544 q 225 134 163 208 q 403 59 288 59 m 403 928 q 357 944 374 928 q 340 987 340 960 q 357 1031 340 1015 q 403 1047 374 1047 q 450 1031 433 1047 q 467 987 467 1015 q 450 944 467 960 q 403 928 433 928 m 185 1158 l 185 1219 l 622 1219 l 622 1158 l 185 1158 z "},"ọ":{"ha":807,"x_min":76,"x_max":731,"o":"m 403 -13 q 163 82 249 -13 q 76 376 76 178 q 163 667 76 572 q 403 763 250 763 q 644 668 558 763 q 731 376 731 574 q 643 83 731 180 q 403 -13 556 -13 m 403 59 q 582 133 519 59 q 644 374 644 208 q 582 617 644 543 q 403 692 519 692 q 225 618 288 692 q 163 377 163 544 q 225 134 163 208 q 403 59 288 59 m 403 -235 q 360 -220 376 -235 q 344 -178 344 -204 q 360 -135 344 -151 q 403 -119 376 -119 q 447 -135 431 -119 q 463 -178 463 -151 q 447 -220 463 -204 q 403 -235 431 -235 z "},"ò":{"ha":807,"x_min":76,"x_max":731,"o":"m 403 -13 q 163 82 249 -13 q 76 376 76 178 q 163 667 76 572 q 403 763 250 763 q 644 668 558 763 q 731 376 731 574 q 643 83 731 180 q 403 -13 556 -13 m 403 59 q 582 133 519 59 q 644 374 644 208 q 582 617 644 543 q 403 692 519 692 q 225 618 288 692 q 163 377 163 544 q 225 134 163 208 q 403 59 288 59 m 363 873 l 181 1122 l 276 1122 l 444 873 l 363 873 z "},"ỏ":{"ha":807,"x_min":76,"x_max":731,"o":"m 403 -13 q 163 82 249 -13 q 76 376 76 178 q 163 667 76 572 q 403 763 250 763 q 644 668 558 763 q 731 376 731 574 q 643 83 731 180 q 403 -13 556 -13 m 403 59 q 582 133 519 59 q 644 374 644 208 q 582 617 644 543 q 403 692 519 692 q 225 618 288 692 q 163 377 163 544 q 225 134 163 208 q 403 59 288 59 m 375 873 q 386 918 376 899 q 410 949 397 938 q 445 976 424 961 q 480 1003 469 992 q 491 1032 491 1015 q 469 1069 491 1058 q 401 1081 447 1081 q 343 1077 373 1081 q 288 1065 313 1073 l 288 1114 q 341 1126 310 1122 q 401 1131 372 1131 q 548 1035 548 1131 q 533 985 548 1003 q 489 948 518 967 q 448 915 462 931 q 433 873 434 899 l 375 873 z "},"ơ":{"ha":807,"x_min":76,"x_max":748,"o":"m 608 701 q 731 376 731 607 q 643 83 731 180 q 403 -13 556 -13 q 163 82 249 -13 q 76 376 76 178 q 163 667 76 572 q 404 763 250 763 q 488 759 439 763 q 538 756 525 756 q 681 872 681 756 q 677 920 681 897 q 665 969 673 942 l 731 969 q 744 921 740 944 q 748 868 748 898 q 712 757 748 799 q 608 701 676 715 m 403 59 q 582 133 519 59 q 644 374 644 208 q 582 617 644 543 q 403 692 519 692 q 225 618 288 692 q 163 377 163 544 q 225 134 163 208 q 403 59 288 59 z "},"ớ":{"ha":807,"x_min":76,"x_max":748,"o":"m 619 1122 l 439 873 l 360 873 l 525 1122 l 619 1122 m 608 701 q 731 376 731 607 q 643 83 731 180 q 403 -13 556 -13 q 163 82 249 -13 q 76 376 76 178 q 163 667 76 572 q 404 763 250 763 q 488 759 439 763 q 538 756 525 756 q 681 872 681 756 q 677 920 681 897 q 665 969 673 942 l 731 969 q 744 921 740 944 q 748 868 748 898 q 712 757 748 799 q 608 701 676 715 m 403 59 q 582 133 519 59 q 644 374 644 208 q 582 617 644 543 q 403 692 519 692 q 225 618 288 692 q 163 377 163 544 q 225 134 163 208 q 403 59 288 59 z "},"ợ":{"ha":807,"x_min":76,"x_max":748,"o":"m 608 701 q 731 376 731 607 q 643 83 731 180 q 403 -13 556 -13 q 163 82 249 -13 q 76 376 76 178 q 163 667 76 572 q 404 763 250 763 q 488 759 439 763 q 538 756 525 756 q 681 872 681 756 q 677 920 681 897 q 665 969 673 942 l 731 969 q 744 921 740 944 q 748 868 748 898 q 712 757 748 799 q 608 701 676 715 m 403 59 q 582 133 519 59 q 644 374 644 208 q 582 617 644 543 q 403 692 519 692 q 225 618 288 692 q 163 377 163 544 q 225 134 163 208 q 403 59 288 59 m 401 -235 q 357 -220 374 -235 q 341 -178 341 -204 q 357 -135 341 -151 q 401 -119 374 -119 q 444 -135 428 -119 q 460 -178 460 -151 q 444 -220 460 -204 q 401 -235 428 -235 z "},"ờ":{"ha":807,"x_min":76,"x_max":748,"o":"m 608 701 q 731 376 731 607 q 643 83 731 180 q 403 -13 556 -13 q 163 82 249 -13 q 76 376 76 178 q 163 667 76 572 q 404 763 250 763 q 488 759 439 763 q 538 756 525 756 q 681 872 681 756 q 677 920 681 897 q 665 969 673 942 l 731 969 q 744 921 740 944 q 748 868 748 898 q 712 757 748 799 q 608 701 676 715 m 403 59 q 582 133 519 59 q 644 374 644 208 q 582 617 644 543 q 403 692 519 692 q 225 618 288 692 q 163 377 163 544 q 225 134 163 208 q 403 59 288 59 m 359 873 l 176 1122 l 272 1122 l 440 873 l 359 873 z "},"ở":{"ha":807,"x_min":76,"x_max":748,"o":"m 608 701 q 731 376 731 607 q 643 83 731 180 q 403 -13 556 -13 q 163 82 249 -13 q 76 376 76 178 q 163 667 76 572 q 404 763 250 763 q 488 759 439 763 q 538 756 525 756 q 681 872 681 756 q 677 920 681 897 q 665 969 673 942 l 731 969 q 744 921 740 944 q 748 868 748 898 q 712 757 748 799 q 608 701 676 715 m 403 59 q 582 133 519 59 q 644 374 644 208 q 582 617 644 543 q 403 692 519 692 q 225 618 288 692 q 163 377 163 544 q 225 134 163 208 q 403 59 288 59 m 371 873 q 382 918 372 899 q 406 949 392 938 q 441 976 419 961 q 476 1003 465 992 q 487 1032 487 1015 q 465 1069 487 1058 q 397 1081 443 1081 q 339 1077 369 1081 q 283 1065 308 1073 l 283 1114 q 337 1126 306 1122 q 397 1131 368 1131 q 544 1035 544 1131 q 529 985 544 1003 q 485 948 514 967 q 444 915 458 931 q 428 873 430 899 l 371 873 z "},"ỡ":{"ha":807,"x_min":76,"x_max":748,"o":"m 296 999 q 235 986 262 999 q 181 947 208 974 l 181 1015 q 297 1059 224 1059 q 348 1051 324 1059 q 408 1029 373 1044 q 459 1010 440 1017 q 499 1004 478 1004 q 559 1017 532 1004 q 613 1056 587 1029 l 613 988 q 498 944 569 944 q 445 951 470 944 q 386 974 420 959 q 334 993 353 987 q 296 999 315 999 m 608 701 q 731 376 731 607 q 643 83 731 180 q 403 -13 556 -13 q 163 82 249 -13 q 76 376 76 178 q 163 667 76 572 q 404 763 250 763 q 488 759 439 763 q 538 756 525 756 q 681 872 681 756 q 677 920 681 897 q 665 969 673 942 l 731 969 q 744 921 740 944 q 748 868 748 898 q 712 757 748 799 q 608 701 676 715 m 403 59 q 582 133 519 59 q 644 374 644 208 q 582 617 644 543 q 403 692 519 692 q 225 618 288 692 q 163 377 163 544 q 225 134 163 208 q 403 59 288 59 z "},"ő":{"ha":807,"x_min":76,"x_max":731,"o":"m 403 -13 q 163 82 249 -13 q 76 376 76 178 q 163 667 76 572 q 403 763 250 763 q 644 668 558 763 q 731 376 731 574 q 643 83 731 180 q 403 -13 556 -13 m 403 59 q 582 133 519 59 q 644 374 644 208 q 582 617 644 543 q 403 692 519 692 q 225 618 288 692 q 163 377 163 544 q 225 134 163 208 q 403 59 288 59 m 252 873 l 364 1122 l 439 1122 l 321 873 l 252 873 m 486 873 l 598 1122 l 673 1122 l 555 873 l 486 873 z "},"ȏ":{"ha":807,"x_min":76,"x_max":731,"o":"m 403 -13 q 163 82 249 -13 q 76 376 76 178 q 163 667 76 572 q 403 763 250 763 q 644 668 558 763 q 731 376 731 574 q 643 83 731 180 q 403 -13 556 -13 m 403 59 q 582 133 519 59 q 644 374 644 208 q 582 617 644 543 q 403 692 519 692 q 225 618 288 692 q 163 377 163 544 q 225 134 163 208 q 403 59 288 59 m 192 892 q 251 1056 197 997 q 402 1115 304 1115 q 555 1056 499 1115 q 615 892 610 996 l 553 892 q 511 1015 548 972 q 402 1058 474 1058 q 253 892 263 1058 l 192 892 z "},"ō":{"ha":807,"x_min":76,"x_max":731,"o":"m 403 -13 q 163 82 249 -13 q 76 376 76 178 q 163 667 76 572 q 403 763 250 763 q 644 668 558 763 q 731 376 731 574 q 643 83 731 180 q 403 -13 556 -13 m 403 59 q 582 133 519 59 q 644 374 644 208 q 582 617 644 543 q 403 692 519 692 q 225 618 288 692 q 163 377 163 544 q 225 134 163 208 q 403 59 288 59 m 185 958 l 185 1019 l 622 1019 l 622 958 l 185 958 z "},"ṓ":{"ha":807,"x_min":76,"x_max":731,"o":"m 403 -13 q 163 82 249 -13 q 76 376 76 178 q 163 667 76 572 q 403 763 250 763 q 644 668 558 763 q 731 376 731 574 q 643 83 731 180 q 403 -13 556 -13 m 403 59 q 582 133 519 59 q 644 374 644 208 q 582 617 644 543 q 403 692 519 692 q 225 618 288 692 q 163 377 163 544 q 225 134 163 208 q 403 59 288 59 m 185 958 l 185 1019 l 622 1019 l 622 958 l 185 958 m 363 1117 l 502 1311 l 598 1311 l 444 1117 l 363 1117 z "},"ṑ":{"ha":807,"x_min":76,"x_max":731,"o":"m 403 -13 q 163 82 249 -13 q 76 376 76 178 q 163 667 76 572 q 403 763 250 763 q 644 668 558 763 q 731 376 731 574 q 643 83 731 180 q 403 -13 556 -13 m 403 59 q 582 133 519 59 q 644 374 644 208 q 582 617 644 543 q 403 692 519 692 q 225 618 288 692 q 163 377 163 544 q 225 134 163 208 q 403 59 288 59 m 185 958 l 185 1019 l 622 1019 l 622 958 l 185 958 m 363 1117 l 209 1311 l 305 1311 l 444 1117 l 363 1117 z "},"ǫ":{"ha":807,"x_min":76,"x_max":731,"o":"m 512 2 q 384 -66 422 -25 q 347 -156 347 -108 q 372 -215 347 -194 q 440 -237 397 -237 q 538 -213 490 -237 l 549 -258 q 494 -277 524 -271 q 435 -284 465 -284 q 329 -251 368 -284 q 290 -160 290 -219 q 379 -12 290 -69 q 156 91 235 -5 q 76 376 76 186 q 163 667 76 572 q 403 763 250 763 q 644 668 558 763 q 731 376 731 574 q 674 125 731 217 q 512 2 617 32 m 163 377 q 225 134 163 208 q 403 59 288 59 q 582 133 519 59 q 644 374 644 208 q 582 617 644 543 q 403 692 519 692 q 225 618 288 692 q 163 377 163 544 z "},"ø":{"ha":807,"x_min":76,"x_max":731,"o":"m 652 660 q 731 376 731 560 q 643 83 731 180 q 403 -13 556 -13 q 196 51 275 -13 l 145 -17 l 99 18 l 154 92 q 76 376 76 191 q 163 667 76 572 q 403 763 250 763 q 610 701 532 763 l 661 769 l 708 734 l 652 660 m 403 692 q 224 618 287 692 q 162 377 162 544 q 207 159 162 238 l 565 638 q 403 692 507 692 m 403 58 q 583 133 520 58 q 645 374 645 207 q 599 593 645 516 l 241 115 q 403 58 299 58 z "},"ǿ":{"ha":807,"x_min":76,"x_max":731,"o":"m 652 660 q 731 376 731 560 q 643 83 731 180 q 403 -13 556 -13 q 196 51 275 -13 l 145 -17 l 99 18 l 154 92 q 76 376 76 191 q 163 667 76 572 q 403 763 250 763 q 610 701 532 763 l 661 769 l 708 734 l 652 660 m 403 692 q 224 618 287 692 q 162 377 162 544 q 207 159 162 238 l 565 638 q 403 692 507 692 m 403 58 q 583 133 520 58 q 645 374 645 207 q 599 593 645 516 l 241 115 q 403 58 299 58 m 358 873 l 526 1122 l 621 1122 l 438 873 l 358 873 z "},"õ":{"ha":807,"x_min":76,"x_max":731,"o":"m 403 -13 q 163 82 249 -13 q 76 376 76 178 q 163 667 76 572 q 403 763 250 763 q 644 668 558 763 q 731 376 731 574 q 643 83 731 180 q 403 -13 556 -13 m 403 59 q 582 133 519 59 q 644 374 644 208 q 582 617 644 543 q 403 692 519 692 q 225 618 288 692 q 163 377 163 544 q 225 134 163 208 q 403 59 288 59 m 506 944 q 453 951 478 944 q 392 974 428 959 q 340 993 359 987 q 301 999 320 999 q 238 986 266 999 q 185 947 210 974 l 185 1015 q 301 1059 228 1059 q 354 1051 329 1059 q 415 1029 379 1044 q 467 1010 448 1016 q 506 1004 486 1004 q 569 1017 541 1004 q 622 1056 597 1029 l 622 988 q 506 944 579 944 z "},"ṍ":{"ha":807,"x_min":76,"x_max":731,"o":"m 403 -13 q 163 82 249 -13 q 76 376 76 178 q 163 667 76 572 q 403 763 250 763 q 644 668 558 763 q 731 376 731 574 q 643 83 731 180 q 403 -13 556 -13 m 403 59 q 582 133 519 59 q 644 374 644 208 q 582 617 644 543 q 403 692 519 692 q 225 618 288 692 q 163 377 163 544 q 225 134 163 208 q 403 59 288 59 m 506 944 q 453 951 478 944 q 392 974 428 959 q 340 993 359 987 q 301 999 320 999 q 238 986 266 999 q 185 947 210 974 l 185 1015 q 301 1059 228 1059 q 354 1051 329 1059 q 415 1029 379 1044 q 467 1010 448 1016 q 506 1004 486 1004 q 569 1017 541 1004 q 622 1056 597 1029 l 622 988 q 506 944 579 944 m 377 1153 l 516 1347 l 612 1347 l 458 1153 l 377 1153 z "},"ṏ":{"ha":807,"x_min":76,"x_max":731,"o":"m 403 -13 q 163 82 249 -13 q 76 376 76 178 q 163 667 76 572 q 403 763 250 763 q 644 668 558 763 q 731 376 731 574 q 643 83 731 180 q 403 -13 556 -13 m 403 59 q 582 133 519 59 q 644 374 644 208 q 582 617 644 543 q 403 692 519 692 q 225 618 288 692 q 163 377 163 544 q 225 134 163 208 q 403 59 288 59 m 506 944 q 453 951 478 944 q 392 974 428 959 q 340 993 359 987 q 301 999 320 999 q 238 986 266 999 q 185 947 210 974 l 185 1015 q 301 1059 228 1059 q 354 1051 329 1059 q 415 1029 379 1044 q 467 1010 448 1016 q 506 1004 486 1004 q 569 1017 541 1004 q 622 1056 597 1029 l 622 988 q 506 944 579 944 m 244 1128 q 200 1144 217 1128 q 184 1186 184 1160 q 200 1230 184 1213 q 244 1246 217 1246 q 287 1230 271 1246 q 303 1186 303 1213 q 287 1144 303 1160 q 244 1128 271 1128 m 563 1128 q 520 1144 536 1128 q 503 1186 503 1160 q 520 1230 503 1213 q 563 1246 536 1246 q 607 1230 590 1246 q 623 1186 623 1213 q 607 1144 623 1160 q 563 1128 590 1128 z "},"ȭ":{"ha":807,"x_min":76,"x_max":731,"o":"m 403 -13 q 163 82 249 -13 q 76 376 76 178 q 163 667 76 572 q 403 763 250 763 q 644 668 558 763 q 731 376 731 574 q 643 83 731 180 q 403 -13 556 -13 m 403 59 q 582 133 519 59 q 644 374 644 208 q 582 617 644 543 q 403 692 519 692 q 225 618 288 692 q 163 377 163 544 q 225 134 163 208 q 403 59 288 59 m 506 944 q 453 951 478 944 q 392 974 428 959 q 340 993 359 987 q 301 999 320 999 q 238 986 266 999 q 185 947 210 974 l 185 1015 q 301 1059 228 1059 q 354 1051 329 1059 q 415 1029 379 1044 q 467 1010 448 1016 q 506 1004 486 1004 q 569 1017 541 1004 q 622 1056 597 1029 l 622 988 q 506 944 579 944 m 185 1157 l 185 1218 l 622 1218 l 622 1157 l 185 1157 z "},"œ":{"ha":1306,"x_min":76,"x_max":1243,"o":"m 1243 346 l 726 346 q 801 127 731 196 q 1007 59 871 59 q 1206 94 1094 59 l 1206 21 q 998 -13 1098 -13 q 797 32 876 -13 q 680 170 717 77 q 572 33 644 78 q 399 -13 501 -13 q 162 83 248 -13 q 76 376 76 178 q 163 667 76 571 q 399 763 249 763 q 575 718 503 763 q 682 578 647 672 q 783 717 715 670 q 949 764 851 764 q 1166 667 1090 764 q 1243 376 1243 569 l 1243 346 m 946 697 q 785 628 842 697 q 726 410 729 559 l 1160 410 q 1103 628 1157 560 q 946 697 1049 697 m 401 59 q 577 133 515 59 q 639 374 639 208 q 577 617 639 543 q 401 692 516 692 q 225 618 287 692 q 163 377 163 544 q 225 134 163 208 q 401 59 287 59 z "},"p":{"ha":822,"x_min":119,"x_max":746,"o":"m 119 752 l 192 752 l 199 664 l 205 664 q 303 737 244 710 q 433 763 362 763 q 594 725 524 763 q 705 604 665 688 q 746 390 746 521 q 353 -12 746 -12 q 204 0 289 -12 l 204 -306 l 119 -306 l 119 752 m 356 60 q 584 138 509 60 q 658 382 658 215 q 594 618 658 547 q 417 688 531 688 q 299 663 354 688 q 204 583 244 637 l 204 77 q 275 64 235 69 q 356 60 315 60 z "},"þ":{"ha":822,"x_min":119,"x_max":746,"o":"m 119 1122 l 204 1122 l 204 667 l 210 667 q 309 738 251 713 q 439 763 368 763 q 597 725 528 763 q 706 604 666 687 q 746 390 746 521 q 353 -12 746 -12 q 204 0 289 -12 l 204 -306 l 119 -306 l 119 1122 m 356 60 q 584 138 509 60 q 658 382 658 215 q 595 617 658 547 q 419 688 531 688 q 300 663 356 688 q 204 584 243 637 l 204 77 q 275 64 235 69 q 356 60 315 60 z "},"q":{"ha":822,"x_min":76,"x_max":703,"o":"m 618 82 l 613 82 q 513 13 572 38 q 381 -12 453 -12 q 224 26 292 -12 q 116 147 156 64 q 76 360 76 230 q 465 763 76 763 q 703 729 590 763 l 703 -306 l 618 -306 l 618 82 m 402 63 q 521 87 465 63 q 618 161 578 112 l 618 672 q 458 691 548 691 q 237 613 310 691 q 163 369 163 535 q 227 133 163 204 q 402 63 290 63 z "},"r":{"ha":526,"x_min":119,"x_max":515,"o":"m 119 752 l 191 752 l 198 651 l 205 651 q 313 730 247 701 q 446 759 378 759 q 515 753 480 759 l 515 672 q 443 678 485 678 q 313 649 380 678 q 204 566 247 620 l 204 0 l 119 0 l 119 752 z "},"ŕ":{"ha":526,"x_min":119,"x_max":538,"o":"m 119 752 l 191 752 l 198 651 l 205 651 q 313 730 247 701 q 446 759 378 759 q 515 753 480 759 l 515 672 q 443 678 485 678 q 313 649 380 678 q 204 566 247 620 l 204 0 l 119 0 l 119 752 m 274 873 l 442 1122 l 538 1122 l 355 873 l 274 873 z "},"ř":{"ha":526,"x_min":102,"x_max":527,"o":"m 119 752 l 191 752 l 198 651 l 205 651 q 313 730 247 701 q 446 759 378 759 q 515 753 480 759 l 515 672 q 443 678 485 678 q 313 649 380 678 q 204 566 247 620 l 204 0 l 119 0 l 119 752 m 451 1122 l 527 1122 l 355 873 l 274 873 l 102 1122 l 178 1122 l 315 920 l 451 1122 z "},"ŗ":{"ha":526,"x_min":101,"x_max":515,"o":"m 119 752 l 191 752 l 198 651 l 205 651 q 313 730 247 701 q 446 759 378 759 q 515 753 480 759 l 515 672 q 443 678 485 678 q 313 649 380 678 q 204 566 247 620 l 204 0 l 119 0 l 119 752 m 160 -119 q 206 -137 190 -119 q 222 -188 222 -154 q 213 -252 222 -217 q 187 -319 203 -287 l 133 -319 q 159 -222 156 -265 q 117 -207 132 -221 q 101 -170 101 -193 q 117 -133 101 -147 q 160 -119 132 -119 z "},"ȑ":{"ha":526,"x_min":43,"x_max":515,"o":"m 119 752 l 191 752 l 198 651 l 205 651 q 313 730 247 701 q 446 759 378 759 q 515 753 480 759 l 515 672 q 443 678 485 678 q 313 649 380 678 q 204 566 247 620 l 204 0 l 119 0 l 119 752 m 161 873 l 43 1122 l 120 1122 l 232 873 l 161 873 m 397 873 l 279 1122 l 356 1122 l 468 873 l 397 873 z "},"ṛ":{"ha":526,"x_min":102,"x_max":515,"o":"m 119 752 l 191 752 l 198 651 l 205 651 q 313 730 247 701 q 446 759 378 759 q 515 753 480 759 l 515 672 q 443 678 485 678 q 313 649 380 678 q 204 566 247 620 l 204 0 l 119 0 l 119 752 m 162 -235 q 118 -220 135 -235 q 102 -178 102 -204 q 118 -135 102 -151 q 162 -119 135 -119 q 205 -135 189 -119 q 222 -178 222 -151 q 205 -220 222 -204 q 162 -235 189 -235 z "},"ȓ":{"ha":526,"x_min":103,"x_max":526,"o":"m 119 752 l 191 752 l 198 651 l 205 651 q 313 730 247 701 q 446 759 378 759 q 515 753 480 759 l 515 672 q 443 678 485 678 q 313 649 380 678 q 204 566 247 620 l 204 0 l 119 0 l 119 752 m 103 892 q 162 1056 108 997 q 313 1115 215 1115 q 466 1056 410 1115 q 526 892 521 996 l 465 892 q 422 1015 459 972 q 313 1058 385 1058 q 165 892 174 1058 l 103 892 z "},"ṟ":{"ha":526,"x_min":-37,"x_max":515,"o":"m 119 752 l 191 752 l 198 651 l 205 651 q 313 730 247 701 q 446 759 378 759 q 515 753 480 759 l 515 672 q 443 678 485 678 q 313 649 380 678 q 204 566 247 620 l 204 0 l 119 0 l 119 752 m -37 -209 l -37 -148 l 360 -148 l 360 -209 l -37 -209 z "},"s":{"ha":658,"x_min":76,"x_max":602,"o":"m 304 -13 q 88 17 185 -13 l 88 90 q 197 66 146 73 q 306 58 249 58 q 468 94 417 58 q 519 197 519 129 q 488 283 519 253 q 382 328 458 313 l 272 349 q 123 419 169 369 q 76 551 76 469 q 108 661 76 614 q 207 736 140 709 q 374 763 274 763 q 560 739 474 763 l 560 667 q 467 686 510 681 q 376 692 424 692 q 210 655 261 692 q 159 553 159 617 q 189 469 159 501 q 290 423 218 437 l 400 402 q 554 334 506 381 q 602 203 602 286 q 526 44 602 101 q 304 -13 451 -13 z "},"ś":{"ha":658,"x_min":76,"x_max":602,"o":"m 304 -13 q 88 17 185 -13 l 88 90 q 197 66 146 73 q 306 58 249 58 q 468 94 417 58 q 519 197 519 129 q 488 283 519 253 q 382 328 458 313 l 272 349 q 123 419 169 369 q 76 551 76 469 q 108 661 76 614 q 207 736 140 709 q 374 763 274 763 q 560 739 474 763 l 560 667 q 467 686 510 681 q 376 692 424 692 q 210 655 261 692 q 159 553 159 617 q 189 469 159 501 q 290 423 218 437 l 400 402 q 554 334 506 381 q 602 203 602 286 q 526 44 602 101 q 304 -13 451 -13 m 292 873 l 460 1122 l 555 1122 l 372 873 l 292 873 z "},"ṥ":{"ha":658,"x_min":76,"x_max":602,"o":"m 304 -13 q 88 17 185 -13 l 88 90 q 197 66 146 73 q 306 58 249 58 q 468 94 417 58 q 519 197 519 129 q 488 283 519 253 q 382 328 458 313 l 272 349 q 123 419 169 369 q 76 551 76 469 q 108 661 76 614 q 207 736 140 709 q 374 763 274 763 q 560 739 474 763 l 560 667 q 467 686 510 681 q 376 692 424 692 q 210 655 261 692 q 159 553 159 617 q 189 469 159 501 q 290 423 218 437 l 400 402 q 554 334 506 381 q 602 203 602 286 q 526 44 602 101 q 304 -13 451 -13 m 285 1094 q 243 1108 259 1094 q 228 1147 228 1122 q 243 1185 228 1171 q 285 1199 259 1199 q 327 1185 312 1199 q 343 1147 343 1171 q 327 1108 343 1122 q 285 1094 312 1094 m 292 873 l 460 1122 l 555 1122 l 372 873 l 292 873 z "},"š":{"ha":658,"x_min":76,"x_max":602,"o":"m 304 -13 q 88 17 185 -13 l 88 90 q 197 66 146 73 q 306 58 249 58 q 468 94 417 58 q 519 197 519 129 q 488 283 519 253 q 382 328 458 313 l 272 349 q 123 419 169 369 q 76 551 76 469 q 108 661 76 614 q 207 736 140 709 q 374 763 274 763 q 560 739 474 763 l 560 667 q 467 686 510 681 q 376 692 424 692 q 210 655 261 692 q 159 553 159 617 q 189 469 159 501 q 290 423 218 437 l 400 402 q 554 334 506 381 q 602 203 602 286 q 526 44 602 101 q 304 -13 451 -13 m 469 1122 l 544 1122 l 372 873 l 292 873 l 119 1122 l 195 1122 l 332 920 l 469 1122 z "},"ṧ":{"ha":658,"x_min":76,"x_max":602,"o":"m 304 -13 q 88 17 185 -13 l 88 90 q 197 66 146 73 q 306 58 249 58 q 468 94 417 58 q 519 197 519 129 q 488 283 519 253 q 382 328 458 313 l 272 349 q 123 419 169 369 q 76 551 76 469 q 108 661 76 614 q 207 736 140 709 q 374 763 274 763 q 560 739 474 763 l 560 667 q 467 686 510 681 q 376 692 424 692 q 210 655 261 692 q 159 553 159 617 q 189 469 159 501 q 290 423 218 437 l 400 402 q 554 334 506 381 q 602 203 602 286 q 526 44 602 101 q 304 -13 451 -13 m 332 1125 q 290 1139 306 1125 q 274 1177 274 1153 q 290 1216 274 1201 q 332 1230 306 1230 q 374 1216 358 1230 q 390 1177 390 1201 q 374 1139 390 1153 q 332 1125 358 1125 m 469 1122 l 544 1122 l 372 873 l 292 873 l 119 1122 l 195 1122 l 332 920 l 469 1122 z "},"ş":{"ha":658,"x_min":76,"x_max":602,"o":"m 602 203 q 541 56 602 112 q 361 -10 481 0 l 361 -74 q 445 -106 415 -78 q 474 -179 474 -133 q 439 -257 474 -229 q 337 -284 403 -284 q 271 -277 304 -284 q 215 -258 238 -271 l 215 -209 q 335 -237 272 -237 q 399 -223 378 -237 q 419 -177 419 -208 q 398 -131 419 -146 q 334 -116 377 -116 l 308 -116 l 308 -13 l 304 -13 q 88 17 185 -13 l 88 90 q 197 66 146 73 q 306 58 249 58 q 468 94 417 58 q 519 197 519 129 q 488 283 519 253 q 382 328 458 313 l 272 349 q 123 419 169 369 q 76 551 76 469 q 108 661 76 614 q 207 736 140 709 q 374 763 274 763 q 560 739 474 763 l 560 667 q 467 686 510 681 q 376 692 424 692 q 210 655 261 692 q 159 553 159 617 q 189 469 159 501 q 290 423 218 437 l 400 402 q 554 334 506 381 q 602 203 602 286 z "},"ŝ":{"ha":658,"x_min":76,"x_max":602,"o":"m 304 -13 q 88 17 185 -13 l 88 90 q 197 66 146 73 q 306 58 249 58 q 468 94 417 58 q 519 197 519 129 q 488 283 519 253 q 382 328 458 313 l 272 349 q 123 419 169 369 q 76 551 76 469 q 108 661 76 614 q 207 736 140 709 q 374 763 274 763 q 560 739 474 763 l 560 667 q 467 686 510 681 q 376 692 424 692 q 210 655 261 692 q 159 553 159 617 q 189 469 159 501 q 290 423 218 437 l 400 402 q 554 334 506 381 q 602 203 602 286 q 526 44 602 101 q 304 -13 451 -13 m 540 873 l 465 873 l 332 1074 l 199 873 l 124 873 l 292 1122 l 372 1122 l 540 873 z "},"ș":{"ha":658,"x_min":76,"x_max":602,"o":"m 304 -13 q 88 17 185 -13 l 88 90 q 197 66 146 73 q 306 58 249 58 q 468 94 417 58 q 519 197 519 129 q 488 283 519 253 q 382 328 458 313 l 272 349 q 123 419 169 369 q 76 551 76 469 q 108 661 76 614 q 207 736 140 709 q 374 763 274 763 q 560 739 474 763 l 560 667 q 467 686 510 681 q 376 692 424 692 q 210 655 261 692 q 159 553 159 617 q 189 469 159 501 q 290 423 218 437 l 400 402 q 554 334 506 381 q 602 203 602 286 q 526 44 602 101 q 304 -13 451 -13 m 330 -119 q 376 -137 360 -119 q 392 -188 392 -154 q 383 -252 392 -217 q 357 -319 374 -287 l 303 -319 q 329 -222 326 -265 q 287 -207 302 -221 q 272 -170 272 -193 q 287 -133 272 -147 q 330 -119 302 -119 z "},"ṡ":{"ha":658,"x_min":76,"x_max":602,"o":"m 304 -13 q 88 17 185 -13 l 88 90 q 197 66 146 73 q 306 58 249 58 q 468 94 417 58 q 519 197 519 129 q 488 283 519 253 q 382 328 458 313 l 272 349 q 123 419 169 369 q 76 551 76 469 q 108 661 76 614 q 207 736 140 709 q 374 763 274 763 q 560 739 474 763 l 560 667 q 467 686 510 681 q 376 692 424 692 q 210 655 261 692 q 159 553 159 617 q 189 469 159 501 q 290 423 218 437 l 400 402 q 554 334 506 381 q 602 203 602 286 q 526 44 602 101 q 304 -13 451 -13 m 332 928 q 285 944 302 928 q 269 987 269 960 q 286 1031 269 1015 q 332 1047 303 1047 q 378 1031 361 1047 q 395 987 395 1015 q 378 944 395 960 q 332 928 362 928 z "},"ṣ":{"ha":658,"x_min":76,"x_max":602,"o":"m 304 -13 q 88 17 185 -13 l 88 90 q 197 66 146 73 q 306 58 249 58 q 468 94 417 58 q 519 197 519 129 q 488 283 519 253 q 382 328 458 313 l 272 349 q 123 419 169 369 q 76 551 76 469 q 108 661 76 614 q 207 736 140 709 q 374 763 274 763 q 560 739 474 763 l 560 667 q 467 686 510 681 q 376 692 424 692 q 210 655 261 692 q 159 553 159 617 q 189 469 159 501 q 290 423 218 437 l 400 402 q 554 334 506 381 q 602 203 602 286 q 526 44 602 101 q 304 -13 451 -13 m 332 -235 q 289 -220 305 -235 q 272 -178 272 -204 q 289 -135 272 -151 q 332 -119 305 -119 q 375 -135 359 -119 q 392 -178 392 -151 q 375 -220 392 -204 q 332 -235 359 -235 z "},"ṩ":{"ha":658,"x_min":76,"x_max":602,"o":"m 304 -13 q 88 17 185 -13 l 88 90 q 197 66 146 73 q 306 58 249 58 q 468 94 417 58 q 519 197 519 129 q 488 283 519 253 q 382 328 458 313 l 272 349 q 123 419 169 369 q 76 551 76 469 q 108 661 76 614 q 207 736 140 709 q 374 763 274 763 q 560 739 474 763 l 560 667 q 467 686 510 681 q 376 692 424 692 q 210 655 261 692 q 159 553 159 617 q 189 469 159 501 q 290 423 218 437 l 400 402 q 554 334 506 381 q 602 203 602 286 q 526 44 602 101 q 304 -13 451 -13 m 332 -235 q 289 -220 305 -235 q 272 -178 272 -204 q 289 -135 272 -151 q 332 -119 305 -119 q 375 -135 359 -119 q 392 -178 392 -151 q 375 -220 392 -204 q 332 -235 359 -235 m 332 928 q 285 944 302 928 q 269 987 269 960 q 286 1031 269 1015 q 332 1047 303 1047 q 378 1031 361 1047 q 395 987 395 1015 q 378 944 395 960 q 332 928 362 928 z "}}}
